G04 project-name*
%FSLAX35Y35*%
%MOMM*%
G04 undefined.(undefined)*
%LPD*%
%ADD10C,1.20*%
D10*
X-2684111Y17003450D02*
D03*

%ADD11C,0.3*%
%LPD*%
D11*
X-2684111Y17003450D02*
G01*
X-2812243Y17003450D01*
X-2864906Y17056112D01*
X-2864906Y17521116D01*
X-2582689Y17803332D01*
X-1997903Y17803332D01*
G04 undefined.(undefined)*
%LPD*%
D10*
X-2464278Y16412071D02*
D03*

%ADD12C,0.4*%
%LPD*%
D12*
X-2464278Y16412071D02*
G01*
X-2682252Y16412071D01*
X-2841424Y16252899D01*
X-2841424Y15912009D01*
X-3014491Y15738942D01*
X-3376358Y15738942D01*
X-3449781Y15812365D01*
G04 undefined.(undefined)*
%LPD*%
D10*
X-1008196Y15775751D02*
D03*


%LPD*%
D12*
X-1008196Y15775751D02*
G01*
X-1008196Y15775751D01*
X-872150Y15911797D01*
X-466707Y15911797D01*
G04 undefined.(undefined)*
%LPD*%
D10*
X-1069844Y16641209D02*
D03*


%LPD*%
D12*
X-1069844Y16641209D02*
G01*
X-1069844Y16402956D01*
X-852685Y16185797D01*
X-466707Y16185797D01*
%ADD13C,1.2*%
%LPD*%
D13*
X-842685Y14520618D02*
G01*
X-2967169Y14520618D01*
X-3408869Y14962318D01*
X-3408869Y18684936D01*
X-3278009Y18815797D01*
X-3098741Y18815797D01*
%ADD14C,0.8*%
%LPD*%
D14*
X-3098741Y19102265D02*
G01*
X-3098741Y18881837D01*

%LPD*%
D13*
X-644016Y20163721D02*
G01*
X-364187Y20163721D01*
X-108503Y19908038D01*
X-108503Y15548140D01*
X-119771Y15536872D01*

%LPD*%
D13*
X-842685Y14520618D02*
G01*
X-452842Y14520618D01*
X-115119Y14858342D01*
X-115119Y15580918D01*

%LPD*%
D12*
X-1838302Y18066747D02*
G01*
X-2264843Y18066747D01*
X-2491229Y18293132D01*
X-2491229Y18389092D01*

%LPD*%
D12*
X-1707903Y17803332D02*
G01*
X-1707903Y17936347D01*
X-1838302Y18066747D01*

%LPD*%
D12*
X-2122903Y17555797D02*
G01*
X-2015435Y17555797D01*
X-1997903Y17573329D01*
X-1997903Y17803332D01*

%LPD*%
D12*
X-2122903Y17047797D02*
G01*
X-1865120Y17047797D01*
X-1749426Y17163490D01*
X-1710240Y17163490D01*
X-1704211Y17169519D01*

%LPD*%
D12*
X-1707903Y17803332D02*
G01*
X-1707903Y16688325D01*
X-1686375Y16666797D01*
X-1582903Y16666797D01*

%LPD*%
D12*
X-2397903Y16793797D02*
G01*
X-2172893Y16793797D01*

%LPD*%
D12*
X-2687903Y17301797D02*
G01*
X-2596581Y17301797D01*
X-2469581Y17428797D01*
X-2122903Y17428797D01*

%LPD*%
D12*
X-1042149Y17007797D02*
G01*
X-534247Y17007797D01*

%LPD*%
D12*
X-1332149Y17007797D02*
G01*
X-1249645Y17007797D01*
X-1112645Y17144797D01*
X-720707Y17144797D01*

%LPD*%
D12*
X-1042149Y17555797D02*
G01*
X-543988Y17555797D01*

%LPD*%
D12*
X-1332149Y17555797D02*
G01*
X-1198461Y17555797D01*
X-1151731Y17602527D01*
X-1151731Y17655034D01*
X-1113968Y17692797D01*
X-720707Y17692797D01*

%LPD*%
D12*
X-2676411Y19354557D02*
G01*
X-2586632Y19354557D01*
X-2459157Y19227082D01*
X-2459157Y18860192D01*
X-2395762Y18796796D01*
X-2244132Y18796796D01*

%LPD*%
D14*
X-3098741Y18561797D02*
G01*
X-3015241Y18561797D01*
X-2884152Y18692886D01*
X-2884152Y18867313D01*
X-2796909Y18954557D01*
X-2676411Y18954557D01*

%LPD*%
D12*
X-2050113Y18381796D02*
G01*
X-2050113Y18482733D01*
X-2074177Y18506796D01*
X-2244132Y18506796D01*
G04 undefined.(undefined)*
%LPD*%
%ADD15C,1.5*%
D15*
X-2124646Y18202506D02*
D03*


%LPD*%
D12*
X-2124646Y18202506D02*
G01*
X-2002855Y18202506D01*
X-1923113Y18282248D01*
X-1923113Y18381796D01*
G04 undefined.(undefined)*
%LPD*%
D15*
X-1012223Y18596949D02*
D03*


%LPD*%
D12*
X-1012223Y18596949D02*
G01*
X-1130014Y18596949D01*
X-1161113Y18565850D01*
X-1161113Y18381796D01*

%LPD*%
D12*
X-2047663Y19155766D02*
G01*
X-2047663Y18974868D01*

%LPD*%
D12*
X-1542113Y18381796D02*
G01*
X-1542113Y18788736D01*
X-1533514Y18797335D01*

%LPD*%
D12*
X-1669113Y18921796D02*
G01*
X-1669113Y18796228D01*
X-1682353Y18782988D01*

%LPD*%
D12*
X-1669113Y18381796D02*
G01*
X-1669113Y18281860D01*
X-1421630Y18034377D01*
X-1015144Y18034377D01*
X-808725Y18240797D01*
X-720707Y18240797D01*

%LPD*%
D12*
X-1288113Y18381796D02*
G01*
X-1288113Y18285891D01*
X-1224222Y18222001D01*
X-1114017Y18222001D01*
X-1008866Y18327152D01*
X-1008866Y18322310D01*
X-816379Y18514797D01*
X-720707Y18514797D01*

%LPD*%
D12*
X-1796113Y18921796D02*
G01*
X-1796113Y19097668D01*
X-1411577Y19482205D01*
X-1114839Y19482205D01*
X-695431Y19062797D01*

%LPD*%
D12*
X-1415113Y18921796D02*
G01*
X-1415113Y19136172D01*
X-1313152Y19238134D01*
X-1182805Y19238134D01*
X-1024997Y19080326D01*
X-1024997Y18859886D01*
X-816908Y18651797D01*
X-466707Y18651797D01*

%LPD*%
D12*
X-1542113Y18921796D02*
G01*
X-1542113Y19175965D01*
X-1358182Y19359896D01*
X-1163825Y19359896D01*
X-909540Y19105610D01*
X-909540Y18979894D01*
X-736774Y18807128D01*
X-739039Y18807128D01*
X-720707Y18788797D01*

%LPD*%
D12*
X-1923113Y18921796D02*
G01*
X-1923113Y19136937D01*
X-1467127Y19592923D01*
X-1033343Y19592923D01*
X-466707Y19026287D01*
X-466707Y18925797D01*

%LPD*%
D12*
X-1415113Y18381796D02*
G01*
X-1415113Y18261298D01*
X-1278956Y18125141D01*
X-1069636Y18125141D01*
X-816980Y18377797D01*
X-466707Y18377797D01*

%LPD*%
D12*
X-1796113Y18381796D02*
G01*
X-1796113Y18267063D01*
X-1459442Y17930392D01*
X-978193Y17930392D01*
X-804788Y18103797D01*
X-466707Y18103797D01*

%LPD*%
D12*
X-1161113Y18921796D02*
G01*
X-1161113Y18811065D01*
X-1181873Y18790305D01*
X-2116220Y18790305D01*
X-2122712Y18796796D01*
X-2244132Y18796796D01*
G04 undefined.(undefined)*
%LPD*%
D15*
X-1232512Y19093515D02*
D03*


%LPD*%
D12*
X-1288113Y18921796D02*
G01*
X-1288113Y19037914D01*
X-1232512Y19093515D01*
G04 undefined.(undefined)*
%LPD*%
D15*
X-2047663Y19155766D02*
D03*


%LPD*%
D14*
X-3098741Y19102265D02*
G01*
X-3098741Y19093031D01*
X-2837215Y19354557D01*
X-2676411Y19354557D01*

%LPD*%
D12*
X-2676411Y18954557D02*
G01*
X-2676411Y18596925D01*
X-2586283Y18506796D01*
X-2244132Y18506796D01*

%LPD*%
D12*
X-1582903Y17555797D02*
G01*
X-1369085Y17555797D01*

%LPD*%
D12*
X-1582903Y17428797D02*
G01*
X-1066393Y17428797D01*
X-1042149Y17453040D01*
X-1042149Y17555797D01*

%LPD*%
D12*
X-1582903Y16920797D02*
G01*
X-1500950Y16920797D01*
X-1413950Y17007797D01*
X-1332149Y17007797D01*

%LPD*%
D12*
X-1582903Y16793797D02*
G01*
X-1324099Y16793797D01*
X-1110099Y17007797D01*
X-1042149Y17007797D01*

%LPD*%
D12*
X-2397903Y17301797D02*
G01*
X-2164032Y17301797D01*

%LPD*%
D12*
X-2687903Y16793797D02*
G01*
X-2610801Y16793797D01*
X-2483801Y16666797D01*
X-2122903Y16666797D01*

%LPD*%
D12*
X-1707903Y17169366D02*
G01*
X-1636564Y17169366D01*

%LPD*%
D12*
X-1997903Y17803332D02*
G01*
X-1997903Y17899480D01*
X-2059402Y17960979D01*
X-2369641Y17960979D01*
X-2679880Y18271219D01*
X-2679880Y18710111D01*
X-2669803Y18720188D01*

%LPD*%
D12*
X-2491229Y18679092D02*
G01*
X-2491229Y18844029D01*
X-2458510Y18876747D01*

%LPD*%
D13*
X-2676411Y19354557D02*
G01*
X-2676411Y19632524D01*
X-2145214Y20163721D01*
X-644016Y20163721D01*
G04 undefined.(undefined)*
%LPD*%
D15*
X-1364163Y17302537D02*
D03*


%LPD*%
D12*
X-1364163Y17302537D02*
G01*
X-1522041Y17302537D01*
G04 undefined.(undefined)*
%LPD*%
D10*
X-1148116Y17266299D02*
D03*


%LPD*%
D12*
X-1582903Y17047797D02*
G01*
X-1481331Y17047797D01*
X-1443647Y17085481D01*
X-1443647Y17132144D01*
X-1410594Y17165197D01*
X-1249219Y17165197D01*
X-1148116Y17266299D01*

%LPD*%
D12*
X-720707Y15774797D02*
G01*
X-720707Y15720118D01*
X-547091Y15546502D01*
X-130298Y15546502D01*
X-94055Y15582745D01*
G04 undefined.(undefined)*
%LPD*%
D10*
X-1007905Y16050438D02*
D03*


%LPD*%
D12*
X-1007905Y16050438D02*
G01*
X-800883Y16050438D01*
G04 r.r4.1(1)*
%LPD*%
%ADD16R,0.9X1.6*%
D16*
X-2397903Y17301797D02*
D03*

G04 r.r4.2(2)*
%LPD*%
D16*
X-2687903Y17301797D02*
D03*

G04 r.r3.1(1)*
%LPD*%
D16*
X-2397903Y16793797D02*
D03*

G04 r.r3.2(2)*
%LPD*%
D16*
X-2687903Y16793797D02*
D03*

G04 r.r2.1(1)*
%LPD*%
D16*
X-1332149Y17007797D02*
D03*

G04 r.r2.2(2)*
%LPD*%
D16*
X-1042149Y17007797D02*
D03*

G04 r.r1.1(1)*
%LPD*%
D16*
X-1042149Y17555797D02*
D03*

G04 r.r1.2(2)*
%LPD*%
D16*
X-1332149Y17555797D02*
D03*

G04 __c.(undefined)*
%LPD*%
%ADD17C,6.2*%
D17*
X-1854756Y19770797D02*
D03*

G04 __d.(undefined)*
%LPD*%
D17*
X-1854756Y15066797D02*
D03*

G04 c1.clk-(1)*
%LPD*%
%ADD18C,1.9*%
D18*
X-720707Y19062797D02*
D03*

G04 c1.sync-(2)*
%LPD*%
D18*
X-720707Y18788797D02*
D03*

G04 c1.x-(3)*
%LPD*%
D18*
X-720707Y18514797D02*
D03*

G04 c1.y-(4)*
%LPD*%
D18*
X-720707Y18240797D02*
D03*

G04 c1.z-(5)*
%LPD*%
D18*
X-720707Y17966797D02*
D03*

G04 c1.y_stat-(6)*
%LPD*%
D18*
X-720707Y17692797D02*
D03*

G04 c1.z_stat-(7)*
%LPD*%
D18*
X-720707Y17418797D02*
D03*

G04 c1.x_stat-(8)*
%LPD*%
D18*
X-720707Y17144797D02*
D03*

G04 c1.+15v(9)*
%LPD*%
D18*
X-720707Y16870797D02*
D03*

G04 c1.+15v(10)*
%LPD*%
D18*
X-720707Y16596797D02*
D03*

G04 c1.red(11)*
%LPD*%
D18*
X-720707Y16322797D02*
D03*

G04 c1.en(12)*
%LPD*%
D18*
X-720707Y16048797D02*
D03*

G04 c1.gnd(13)*
%LPD*%
D18*
X-720707Y15774797D02*
D03*

G04 c1.clk+(14)*
%LPD*%
D18*
X-466707Y18925797D02*
D03*

G04 c1.sync+(15)*
%LPD*%
D18*
X-466707Y18651797D02*
D03*

G04 c1.x+(16)*
%LPD*%
D18*
X-466707Y18377797D02*
D03*

G04 c1.y+(17)*
%LPD*%
D18*
X-466707Y18103797D02*
D03*

G04 c1.z+(18)*
%LPD*%
D18*
X-466707Y17829797D02*
D03*

G04 c1.y_stat+(19)*
%LPD*%
D18*
X-466707Y17555797D02*
D03*

G04 c1.z_stat+(20)*
%LPD*%
D18*
X-466707Y17281797D02*
D03*

G04 c1.x_stat+(21)*
%LPD*%
D18*
X-466707Y17007797D02*
D03*

G04 c1.+15v(22)*
%LPD*%
D18*
X-466707Y16733797D02*
D03*

G04 c1.pgnd(23)*
%LPD*%
D18*
X-466707Y16459797D02*
D03*

G04 c1.pwm(24)*
%LPD*%
D18*
X-466707Y16185797D02*
D03*

G04 c1.pctl(25)*
%LPD*%
D18*
X-466707Y15911797D02*
D03*

G04 c1.S(S)*
%LPD*%
%ADD19C,5*%
D19*
X-593707Y19770797D02*
D03*

G04 c1.S(S)*
%LPD*%
D19*
X-593707Y15066797D02*
D03*

G04 c5.C2.c(1)*
%LPD*%
%ADD20R,1.6X0.9*%
D20*
X-2244132Y18796796D02*
D03*

G04 c5.C2.a(2)*
%LPD*%
D20*
X-2244132Y18506796D02*
D03*

G04 d.c1.1a(1)*
%LPD*%
%ADD21R,0.6X1.55*%
D21*
X-2050113Y18921796D02*
D03*

G04 d.c1.1y(2)*
%LPD*%
D21*
X-1923113Y18921796D02*
D03*

G04 d.c1.1z(3)*
%LPD*%
D21*
X-1796113Y18921796D02*
D03*

G04 d.c1.g(4)*
%LPD*%
D21*
X-1669113Y18921796D02*
D03*

G04 d.c1.2z(5)*
%LPD*%
D21*
X-1542113Y18921796D02*
D03*

G04 d.c1.2y(6)*
%LPD*%
D21*
X-1415113Y18921796D02*
D03*

G04 d.c1.2a(7)*
%LPD*%
D21*
X-1288113Y18921796D02*
D03*

G04 d.c1.gnd(8)*
%LPD*%
D21*
X-1161113Y18921796D02*
D03*

G04 d.c1.vcc(16)*
%LPD*%
D21*
X-2050113Y18381796D02*
D03*

G04 d.c1.4a(15)*
%LPD*%
D21*
X-1923113Y18381796D02*
D03*

G04 d.c1.4y(14)*
%LPD*%
D21*
X-1796113Y18381796D02*
D03*

G04 d.c1.4z(13)*
%LPD*%
D21*
X-1669113Y18381796D02*
D03*

G04 d.c1.n_g(12)*
%LPD*%
D21*
X-1542113Y18381796D02*
D03*

G04 d.c1.3z(11)*
%LPD*%
D21*
X-1415113Y18381796D02*
D03*

G04 d.c1.3y(10)*
%LPD*%
D21*
X-1288113Y18381796D02*
D03*

G04 d.c1.3a(9)*
%LPD*%
D21*
X-1161113Y18381796D02*
D03*

G04 r.c1.1b(1)*
%LPD*%
%ADD22R,1.55X0.6*%
D22*
X-1582903Y17555797D02*
D03*

G04 r.c1.1a(2)*
%LPD*%
D22*
X-1582903Y17428797D02*
D03*

G04 r.c1.1y(3)*
%LPD*%
D22*
X-1582903Y17301797D02*
D03*

G04 r.c1.g(4)*
%LPD*%
D22*
X-1582903Y17174797D02*
D03*

G04 r.c1.2y(5)*
%LPD*%
D22*
X-1582903Y17047797D02*
D03*

G04 r.c1.2a(6)*
%LPD*%
D22*
X-1582903Y16920797D02*
D03*

G04 r.c1.2b(7)*
%LPD*%
D22*
X-1582903Y16793797D02*
D03*

G04 r.c1.gnd(8)*
%LPD*%
D22*
X-1582903Y16666797D02*
D03*

G04 r.c1.vcc(16)*
%LPD*%
D22*
X-2122903Y17555797D02*
D03*

G04 r.c1.4b(15)*
%LPD*%
D22*
X-2122903Y17428797D02*
D03*

G04 r.c1.4a(14)*
%LPD*%
D22*
X-2122903Y17301797D02*
D03*

G04 r.c1.4y(13)*
%LPD*%
D22*
X-2122903Y17174797D02*
D03*

G04 r.c1.n_g(12)*
%LPD*%
D22*
X-2122903Y17047797D02*
D03*

G04 r.c1.3y(11)*
%LPD*%
D22*
X-2122903Y16920797D02*
D03*

G04 r.c1.3a(10)*
%LPD*%
D22*
X-2122903Y16793797D02*
D03*

G04 r.c1.3b(9)*
%LPD*%
D22*
X-2122903Y16666797D02*
D03*

G04 r.c2.c(1)*
%LPD*%
D16*
X-1707903Y17803332D02*
D03*

G04 r.c2.a(2)*
%LPD*%
D16*
X-1997903Y17803332D02*
D03*

G04 r.c2.c(1)*
%LPD*%
D16*
X-1707903Y17803332D02*
D03*

G04 r.c2.a(2)*
%LPD*%
D16*
X-1997903Y17803332D02*
D03*

G04 j1.1(1)*
%LPD*%
D20*
X-2491229Y18679091D02*
D03*

G04 j1.1(2)*
%LPD*%
D20*
X-2491229Y18389091D02*
D03*

G04 conn.gnd(1)*
%LPD*%
%ADD23C,1.89*%
D23*
X-3098741Y18815797D02*
D03*

G04 conn.vcc(2)*
%LPD*%
D23*
X-3098741Y18561797D02*
D03*

G04 conn.clk(3)*
%LPD*%
D23*
X-3098741Y18307797D02*
D03*

G04 conn.sync(4)*
%LPD*%
D23*
X-3098741Y18053797D02*
D03*

G04 conn.y(5)*
%LPD*%
D23*
X-3098741Y17799797D02*
D03*

G04 conn.x(6)*
%LPD*%
D23*
X-3098741Y17545797D02*
D03*

G04 conn.y_stat(7)*
%LPD*%
D23*
X-3098741Y17291797D02*
D03*

G04 conn.x_stat(8)*
%LPD*%
D23*
X-3098741Y17037797D02*
D03*

G04 conn.pwm(9)*
%LPD*%
D23*
X-3098741Y16783797D02*
D03*

G04 conn.en(10)*
%LPD*%
D23*
X-3098741Y16529797D02*
D03*

G04 conn.pctl(11)*
%LPD*%
D23*
X-3098741Y16275797D02*
D03*

G04 conn.red(12)*
%LPD*%
D23*
X-3098741Y16021797D02*
D03*

G04 c2.c(1)*
%LPD*%
D15*
X-2676411Y19354557D02*
D03*

G04 c2.a(2)*
%LPD*%
D15*
X-2676411Y18954557D02*
D03*

M02*