M48
FMAT,2
METRIC,TZ
T11C3.0
T21C0.9
T31C3.1
T41C0.6
T01C0.5
%
G90
G05
M71
T11
X-18.54756Y197.70797
X-18.54756Y150.66797
T21
X-7.20707Y190.62797
X-7.20707Y187.88797
X-7.20707Y185.14797
X-7.20707Y182.40797
X-7.20707Y179.66797
X-7.20707Y176.92797
X-7.20707Y174.18797
X-7.20707Y171.44797
X-7.20707Y168.70797
X-7.20707Y165.96797
X-7.20707Y163.22797
X-7.20707Y160.48797
X-7.20707Y157.74797
X-4.66707Y189.25797
X-4.66707Y186.51797
X-4.66707Y183.77797
X-4.66707Y181.03797
X-4.66707Y178.29797
X-4.66707Y175.55797
X-4.66707Y172.81797
X-4.66707Y170.07797
X-4.66707Y167.33797
X-4.66707Y164.59797
X-4.66707Y161.85797
X-4.66707Y159.11797
X-30.98741Y188.15797
X-30.98741Y185.61797
X-30.98741Y183.07797
X-30.98741Y180.53797
X-30.98741Y177.99797
X-30.98741Y175.45797
X-30.98741Y172.91797
X-30.98741Y170.37797
X-30.98741Y167.83797
X-30.98741Y165.29797
X-30.98741Y162.75797
X-30.98741Y160.21797
T31
X-5.93707Y197.70797
X-5.93707Y150.66797
T41
X-26.76411Y193.54557
X-26.76411Y189.54557
T01
X-26.84111Y170.0345
X-24.64278Y164.12071
X-10.08196Y157.75751
X-10.69844Y166.41209
X-21.24646Y182.02506
X-10.12223Y185.96949
X-12.32512Y190.93515
X-20.47663Y191.55766
X-13.64163Y173.02537
X-11.48116Y172.66299
X-10.07905Y160.50438
M30