G04 project-name*
%FSLAX35Y35*%
%MOMM*%
G04 undefined.(undefined)*
%LPD*%
%ADD10C,1.20*%
D10*
X-2684111Y17003450D02*
D03*

%ADD11C,0.3*%
%LPD*%
D11*
X-1894950Y16395064D02*
G01*
X-2001069Y16395064D01*
X-2064134Y16458129D01*
X-2064134Y16866711D01*
X-2200454Y17003031D01*
X-2683692Y17003031D01*
X-2684111Y17003450D01*
G04 undefined.(undefined)*
%LPD*%
D10*
X-2464278Y16412071D02*
D03*

%ADD12C,0.4*%
%LPD*%
D12*
X-2184950Y16395064D02*
G01*
X-2447272Y16395064D01*
X-2464278Y16412071D01*

%LPD*%
D12*
X-2170394Y16596596D02*
G01*
X-2170394Y16460620D01*
G04 undefined.(undefined)*
%LPD*%
D10*
X-1008196Y15775751D02*
D03*


%LPD*%
D12*
X-3098741Y16275797D02*
G01*
X-2958217Y16275797D01*
X-2875542Y16193123D01*
X-2875542Y15868924D01*
X-2697721Y15691102D01*
X-1092844Y15691102D01*
X-1008196Y15775751D01*

%LPD*%
D12*
X-1465676Y16085543D02*
G01*
X-1532981Y16085543D01*
X-1632981Y16185543D01*
X-1718592Y16185543D01*

%LPD*%
D12*
X-1970393Y15990543D02*
G01*
X-1784819Y15990543D01*
X-1718592Y16056769D01*
X-1718592Y16185543D01*

%LPD*%
D12*
X-1696149Y16395064D02*
G01*
X-1868031Y16395064D01*
G04 undefined.(undefined)*
%LPD*%
D10*
X-1069844Y16641209D02*
D03*


%LPD*%
D12*
X-1265676Y16691596D02*
G01*
X-1120231Y16691596D01*
X-1069844Y16641209D01*

%LPD*%
D12*
X-1718592Y16596596D02*
G01*
X-1472338Y16596596D01*

%LPD*%
D12*
X-1970393Y16691596D02*
G01*
X-1887273Y16691596D01*
X-1860804Y16718065D01*
X-1860804Y16870193D01*
X-1844401Y16886596D01*
X-1718592Y16886596D01*

%LPD*%
D12*
X-3098741Y16783797D02*
G01*
X-2740213Y16783797D01*
G04 undefined.(undefined)*
%LPD*%
%ADD13C,1.5*%
D13*
X-2124646Y18202506D02*
D03*


%LPD*%
D12*
X-3098741Y17799797D02*
G01*
X-2527355Y17799797D01*
X-2124646Y18202506D01*
G04 undefined.(undefined)*
%LPD*%
D13*
X-1012223Y18596949D02*
D03*


%LPD*%
D12*
X-3098741Y17545797D02*
G01*
X-2556238Y17545797D01*
X-1601933Y18500101D01*
X-1109070Y18500101D01*
X-1012223Y18596949D01*
G04 undefined.(undefined)*
%LPD*%
D13*
X-1232512Y19093515D02*
D03*


%LPD*%
D12*
X-1232512Y19093515D02*
G01*
X-1597623Y19093515D01*
X-2638562Y18052576D01*
X-3098741Y18052576D01*
G04 undefined.(undefined)*
%LPD*%
D13*
X-2047663Y19155766D02*
D03*


%LPD*%
D12*
X-3098741Y18316893D02*
G01*
X-2575865Y18316893D01*
X-2047663Y18845096D01*

%LPD*%
D12*
X-2047663Y18845096D02*
G01*
X-2047663Y19111729D01*
G04 undefined.(undefined)*
%LPD*%
D13*
X-1364163Y17302537D02*
D03*


%LPD*%
D12*
X-3098741Y17291797D02*
G01*
X-2486901Y17291797D01*
X-2397455Y17381243D01*
X-1442869Y17381243D01*
X-1364163Y17302537D01*
G04 undefined.(undefined)*
%LPD*%
D10*
X-1148116Y17266299D02*
D03*


%LPD*%
D12*
X-1148116Y17266299D02*
G01*
X-1154625Y17266299D01*
X-1303605Y17117320D01*
X-2813024Y17117320D01*
X-2892546Y17037797D01*
X-3098741Y17037797D01*

%LPD*%
D12*
X-2431567Y16786596D02*
G01*
X-2159189Y16786596D01*

%LPD*%
D12*
X-1718592Y16886596D02*
G01*
X-1500706Y16886596D01*
X-1465676Y16851567D01*
X-1465676Y16786596D01*

%LPD*%
D12*
X-1718592Y16596596D02*
G01*
X-1850301Y16596596D01*
X-1894950Y16551947D01*
X-1894950Y16395064D01*

%LPD*%
D12*
X-2431568Y16085543D02*
G01*
X-2161542Y16085543D01*

%LPD*%
D12*
X-1718592Y15895543D02*
G01*
X-1490444Y15895543D01*
G04 undefined.(undefined)*
%LPD*%
D10*
X-1007905Y16050438D02*
D03*


%LPD*%
D12*
X-1265676Y15990543D02*
G01*
X-1067801Y15990543D01*
X-1007905Y16050438D01*

%LPD*%
D12*
X-2721568Y16085543D02*
G01*
X-2721568Y16478470D01*
X-2772894Y16529797D01*
X-3098741Y16529797D01*

%LPD*%
D12*
X-1406149Y16395064D02*
G01*
X-1406149Y16301455D01*
X-1434531Y16273072D01*
X-2159909Y16273072D01*
X-2184950Y16298113D01*
X-2184950Y16395064D01*

%LPD*%
D12*
X-2170394Y15895543D02*
G01*
X-2089694Y15895543D01*
X-2071479Y15913758D01*
X-2071479Y16266342D01*
X-2057431Y16280389D01*

%LPD*%
D11*
X-1696149Y16395064D02*
G01*
X-1614617Y16395064D01*
X-1494027Y16515654D01*
X-1312968Y16515654D01*
X-1248721Y16451408D01*
X-1248721Y16220704D01*
X-1359693Y16109732D01*
X-1359693Y15939382D01*
X-1403532Y15895543D01*
X-1465676Y15895543D01*
G04 c3.m.d(3)*
%LPD*%
%ADD14R,0.9X0.7*%
D14*
X-1265676Y16691596D02*
D03*

G04 c3.m.s(2)*
%LPD*%
D14*
X-1465676Y16596596D02*
D03*

G04 c3.m.g(1)*
%LPD*%
D14*
X-1465676Y16786596D02*
D03*

G04 c3.i.1(1)*
%LPD*%
%ADD15R,0.9X1.6*%
D15*
X-2431568Y16786596D02*
D03*

G04 c3.i.2(2)*
%LPD*%
D15*
X-2721568Y16786596D02*
D03*

G04 c3.p.1(1)*
%LPD*%
%ADD16R,1.6X0.9*%
D16*
X-1718592Y16596596D02*
D03*

G04 c3.p.2(2)*
%LPD*%
D16*
X-1718592Y16886596D02*
D03*

G04 c3.b.c(3)*
%LPD*%
D14*
X-1970393Y16691596D02*
D03*

G04 c3.b.e(2)*
%LPD*%
D14*
X-2170394Y16596596D02*
D03*

G04 c3.b.b(1)*
%LPD*%
D14*
X-2170394Y16786596D02*
D03*

G04 c4.m.d(3)*
%LPD*%
D14*
X-1265676Y15990543D02*
D03*

G04 c4.m.s(2)*
%LPD*%
D14*
X-1465676Y15895543D02*
D03*

G04 c4.m.g(1)*
%LPD*%
D14*
X-1465676Y16085543D02*
D03*

G04 c4.i.1(1)*
%LPD*%
D15*
X-2431568Y16085543D02*
D03*

G04 c4.i.2(2)*
%LPD*%
D15*
X-2721568Y16085543D02*
D03*

G04 c4.p.1(1)*
%LPD*%
D16*
X-1718592Y15895543D02*
D03*

G04 c4.p.2(2)*
%LPD*%
D16*
X-1718592Y16185543D02*
D03*

G04 c4.b.c(3)*
%LPD*%
D14*
X-1970393Y15990543D02*
D03*

G04 c4.b.e(2)*
%LPD*%
D14*
X-2170394Y15895543D02*
D03*

G04 c4.b.b(1)*
%LPD*%
D14*
X-2170394Y16085543D02*
D03*

G04 __c.(undefined)*
%LPD*%
%ADD17C,6.2*%
D17*
X-1854756Y19770797D02*
D03*

G04 __d.(undefined)*
%LPD*%
D17*
X-1854756Y15066797D02*
D03*

G04 c1.clk-(1)*
%LPD*%
%ADD18C,1.9*%
D18*
X-720707Y19062797D02*
D03*

G04 c1.sync-(2)*
%LPD*%
D18*
X-720707Y18788797D02*
D03*

G04 c1.x-(3)*
%LPD*%
D18*
X-720707Y18514797D02*
D03*

G04 c1.y-(4)*
%LPD*%
D18*
X-720707Y18240797D02*
D03*

G04 c1.z-(5)*
%LPD*%
D18*
X-720707Y17966797D02*
D03*

G04 c1.y_stat-(6)*
%LPD*%
D18*
X-720707Y17692797D02*
D03*

G04 c1.z_stat-(7)*
%LPD*%
D18*
X-720707Y17418797D02*
D03*

G04 c1.x_stat-(8)*
%LPD*%
D18*
X-720707Y17144797D02*
D03*

G04 c1.+15v(9)*
%LPD*%
D18*
X-720707Y16870797D02*
D03*

G04 c1.+15v(10)*
%LPD*%
D18*
X-720707Y16596797D02*
D03*

G04 c1.red(11)*
%LPD*%
D18*
X-720707Y16322797D02*
D03*

G04 c1.en(12)*
%LPD*%
D18*
X-720707Y16048797D02*
D03*

G04 c1.gnd(13)*
%LPD*%
D18*
X-720707Y15774797D02*
D03*

G04 c1.clk+(14)*
%LPD*%
D18*
X-466707Y18925797D02*
D03*

G04 c1.sync+(15)*
%LPD*%
D18*
X-466707Y18651797D02*
D03*

G04 c1.x+(16)*
%LPD*%
D18*
X-466707Y18377797D02*
D03*

G04 c1.y+(17)*
%LPD*%
D18*
X-466707Y18103797D02*
D03*

G04 c1.z+(18)*
%LPD*%
D18*
X-466707Y17829797D02*
D03*

G04 c1.y_stat+(19)*
%LPD*%
D18*
X-466707Y17555797D02*
D03*

G04 c1.z_stat+(20)*
%LPD*%
D18*
X-466707Y17281797D02*
D03*

G04 c1.x_stat+(21)*
%LPD*%
D18*
X-466707Y17007797D02*
D03*

G04 c1.+15v(22)*
%LPD*%
D18*
X-466707Y16733797D02*
D03*

G04 c1.pgnd(23)*
%LPD*%
D18*
X-466707Y16459797D02*
D03*

G04 c1.pwm(24)*
%LPD*%
D18*
X-466707Y16185797D02*
D03*

G04 c1.pctl(25)*
%LPD*%
D18*
X-466707Y15911797D02*
D03*

G04 c1.S(S)*
%LPD*%
%ADD19C,5*%
D19*
X-593707Y19770797D02*
D03*

G04 c1.S(S)*
%LPD*%
D19*
X-593707Y15066797D02*
D03*

G04 conn.gnd(1)*
%LPD*%
%ADD20C,1.89*%
D20*
X-3098741Y18815797D02*
D03*

G04 conn.vcc(2)*
%LPD*%
D20*
X-3098741Y18561797D02*
D03*

G04 conn.clk(3)*
%LPD*%
D20*
X-3098741Y18307797D02*
D03*

G04 conn.sync(4)*
%LPD*%
D20*
X-3098741Y18053797D02*
D03*

G04 conn.y(5)*
%LPD*%
D20*
X-3098741Y17799797D02*
D03*

G04 conn.x(6)*
%LPD*%
D20*
X-3098741Y17545797D02*
D03*

G04 conn.y_stat(7)*
%LPD*%
D20*
X-3098741Y17291797D02*
D03*

G04 conn.x_stat(8)*
%LPD*%
D20*
X-3098741Y17037797D02*
D03*

G04 conn.pwm(9)*
%LPD*%
D20*
X-3098741Y16783797D02*
D03*

G04 conn.en(10)*
%LPD*%
D20*
X-3098741Y16529797D02*
D03*

G04 conn.pctl(11)*
%LPD*%
D20*
X-3098741Y16275797D02*
D03*

G04 conn.red(12)*
%LPD*%
D20*
X-3098741Y16021797D02*
D03*

G04 c5.C1.c(1)*
%LPD*%
D15*
X-2178833Y16420106D02*
D03*

G04 c5.C1.a(2)*
%LPD*%
D15*
X-1888833Y16420106D02*
D03*

G04 c2.c(1)*
%LPD*%
D13*
X-2676411Y19354557D02*
D03*

G04 c2.a(2)*
%LPD*%
D13*
X-2676411Y18954557D02*
D03*

G04 c7.b.c(3)*
%LPD*%
D14*
X-4175946Y16982500D02*
D03*

G04 c7.b.e(2)*
%LPD*%
D14*
X-3975945Y17077500D02*
D03*

G04 c7.b.b(1)*
%LPD*%
D14*
X-3975945Y16887499D02*
D03*

G04 c7.l.1(1)*
%LPD*%
D15*
X-5368134Y19387512D02*
D03*

G04 c7.l.2(2)*
%LPD*%
D15*
X-5078134Y19387512D02*
D03*

G04 c7.p.1(1)*
%LPD*%
D15*
X-4196164Y18992810D02*
D03*

G04 c7.p.2(2)*
%LPD*%
D15*
X-3906164Y18992810D02*
D03*

G04 c7.i.1(1)*
%LPD*%
D15*
X-4165836Y18618325D02*
D03*

G04 c7.i.2(2)*
%LPD*%
D15*
X-3875836Y18618325D02*
D03*

G04 c7.m.d(3)*
%LPD*%
D14*
X-4196164Y18243295D02*
D03*

G04 c7.m.s(2)*
%LPD*%
D14*
X-3996164Y18338295D02*
D03*

G04 c7.m.g(1)*
%LPD*%
D14*
X-3996164Y18148295D02*
D03*

G04 c4.l.1(1)*
%LPD*%
D15*
X-4175946Y17868264D02*
D03*

G04 c4.l.2(2)*
%LPD*%
D15*
X-3885946Y17868264D02*
D03*

G04 c3.l.1(1)*
%LPD*%
D15*
X-4190031Y17427885D02*
D03*

G04 c3.l.2(2)*
%LPD*%
D15*
X-3900031Y17427885D02*
D03*

M02*