G04 project-name*
%FSLAX35Y35*%
%MOMM*%
%ADD10C,3*%
%LPD*%
D10*
X6578730Y13287471D02*
G01*
X7397841Y13287471D01*
X7402645Y13282667D01*
%ADD11C,0.5*%
%LPD*%
D11*
X10098644Y11742853D02*
G01*
X10098644Y12410892D01*
G04 undefined.(undefined)*
%LPD*%
%ADD12C,1.500*%
D12*
X9192524Y12728185D02*
D03*


%LPD*%
D11*
X9590644Y12504853D02*
G01*
X9415856Y12504853D01*
X9192524Y12728185D01*
%ADD13C,0.4*%
%LPD*%
D13*
X7322375Y18505004D02*
G01*
X7464567Y18503156D01*
X7571829Y18635211D01*

%LPD*%
D13*
X7263644Y19130728D02*
G01*
X7263644Y18968738D01*

%LPD*%
D13*
X5940232Y17499339D02*
G01*
X6065485Y17499339D01*
X6094996Y17469828D01*
X6094996Y17386975D01*
X6081561Y17373539D01*

%LPD*%
D13*
X6333217Y17805807D02*
G01*
X6333217Y17708138D01*
X6279825Y17654746D01*
X6211130Y17654746D01*
X6076536Y17789339D01*
X5940232Y17789339D01*

%LPD*%
D13*
X6268217Y17805807D02*
G01*
X6268217Y17912798D01*
X6190353Y17990663D01*
X6086397Y17990663D01*
X6016550Y18060510D01*
X6016550Y18173707D01*

%LPD*%
D13*
X5761711Y13570998D02*
G01*
X5927862Y13570998D01*
X5961267Y13575387D01*

%LPD*%
D13*
X5761711Y13443998D02*
G01*
X5895014Y13443998D01*
X5960429Y13509413D01*
X5960429Y13946900D01*
X6089472Y14075944D01*
X6301005Y14075944D01*
X6355076Y14021873D01*
X6355076Y13954597D01*
X6362775Y13946899D01*
%ADD14C,1*%
%LPD*%
D14*
X4010216Y19272728D02*
G01*
X4010216Y18974588D01*

%LPD*%
D11*
X3424068Y13993131D02*
G01*
X3456324Y13993131D01*
X3563155Y14099962D01*
X3563155Y14181696D01*
X3570993Y14189534D01*

%LPD*%
D11*
X3558458Y14214743D02*
G01*
X3722794Y14214743D01*
X3874767Y14366716D01*
X3874767Y14616640D01*

%LPD*%
D11*
X3144994Y13941036D02*
G01*
X3009805Y13941036D01*
X2957066Y13993774D01*
X2957066Y14160850D01*
X3010959Y14214743D01*
X3268458Y14214743D01*
G04 undefined.(undefined)*
%LPD*%
%ADD15C,1.50*%
D15*
X9357087Y16683577D02*
D03*


%LPD*%
D11*
X9357087Y16683577D02*
G01*
X8971453Y16683577D01*

%LPD*%
D14*
X3756216Y18806435D02*
G01*
X3756216Y19213309D01*

%LPD*%
D14*
X3248216Y18806435D02*
G01*
X3248216Y19186570D01*
%ADD16C,0.6*%
%LPD*%
D16*
X9717644Y18544537D02*
G01*
X9717644Y18684098D01*
X9590644Y18811098D01*
X9590644Y19032853D01*

%LPD*%
D13*
X6791124Y13578106D02*
G01*
X6791124Y15088471D01*
X7119919Y15417266D01*
X8251232Y15417266D01*

%LPD*%
D13*
X6986125Y13578106D02*
G01*
X6986125Y14683912D01*
X7211478Y14909266D01*
X8251232Y14909266D01*

%LPD*%
D13*
X7116124Y13578106D02*
G01*
X7116124Y13685610D01*
X7147933Y13717419D01*
X7631589Y13717419D01*
X7712944Y13636064D01*
X8251232Y13636064D01*
G04 undefined.(undefined)*
%LPD*%
D15*
X6510841Y13541603D02*
D03*


%LPD*%
D13*
X6661124Y12998106D02*
G01*
X6661124Y12891493D01*
X6604167Y12834535D01*
X6379037Y12834535D01*
X6321681Y12891892D01*
X6321681Y13352442D01*
X6510841Y13541603D01*
G04 undefined.(undefined)*
%LPD*%
D15*
X6462768Y13171509D02*
D03*


%LPD*%
D13*
X6684105Y13287471D02*
G01*
X6578730Y13287471D01*
X6462768Y13171509D01*

%LPD*%
D13*
X6661124Y13578106D02*
G01*
X6661124Y13280783D01*
X6724205Y13215849D01*

%LPD*%
D13*
X7246124Y13264888D02*
G01*
X6773376Y13264888D01*
X6725198Y13216709D01*
X6726125Y12998106D01*

%LPD*%
D13*
X3684994Y13560036D02*
G01*
X3482436Y13560036D01*
X3354812Y13561966D01*

%LPD*%
D13*
X3144994Y13687036D02*
G01*
X2963985Y13687036D01*
X2598498Y13321549D01*
X2598498Y12714455D01*
X2752644Y12560309D01*
X2752644Y12110018D01*

%LPD*%
D13*
X3144994Y13306036D02*
G01*
X2981196Y13306036D01*
X2823106Y13147946D01*
X2823106Y12835102D01*
X3026644Y12631563D01*
X3026644Y12110018D01*

%LPD*%
D13*
X3684994Y13306036D02*
G01*
X3832413Y13306036D01*
X3964330Y13174118D01*
X3964330Y12987416D01*
X3636994Y12660080D01*
X3463867Y12660080D01*
X3300644Y12496857D01*
X3300644Y12110018D01*

%LPD*%
D13*
X3684994Y13433036D02*
G01*
X3892714Y13433036D01*
X4069819Y13255931D01*

%LPD*%
D13*
X3711644Y12394018D02*
G01*
X3781248Y12394018D01*
X4187193Y12799963D01*
X4187193Y13489780D01*
X3989938Y13687036D01*
X3684994Y13687036D01*

%LPD*%
D13*
X6509226Y18439321D02*
G01*
X6647196Y18439321D01*
X6674673Y18411844D01*
X6674673Y18077568D01*
X6528217Y17931113D01*
X6528217Y17805807D01*

%LPD*%
D13*
X3574644Y12110018D02*
G01*
X3662826Y12110018D01*
X4307489Y12754680D01*
X4307489Y13520387D01*
X4013840Y13814036D01*
X3684994Y13814036D01*

%LPD*%
D13*
X4069819Y13255931D02*
G01*
X4069819Y12926233D01*
X3719127Y12575541D01*
X3619168Y12575541D01*
X3437644Y12394018D01*

%LPD*%
D13*
X3144994Y13179036D02*
G01*
X2995032Y13179036D01*
X2918684Y13102689D01*
X2918684Y12881802D01*
X3163644Y12636842D01*
X3163644Y12394018D01*

%LPD*%
D13*
X3144994Y13560036D02*
G01*
X3004545Y13560036D01*
X2714385Y13269876D01*
X2714385Y12737099D01*
X2889644Y12561840D01*
X2889644Y12394018D01*

%LPD*%
D13*
X3684994Y13052036D02*
G01*
X3437085Y13052036D01*
X3424068Y13039019D01*
%ADD17C,2.3*%
%LPD*%
D17*
X3424068Y13039019D02*
G01*
X3424068Y13993131D01*

%LPD*%
D11*
X5065584Y14120843D02*
G01*
X5337009Y14120843D01*
X5386961Y14070891D01*

%LPD*%
D13*
X7246124Y13578106D02*
G01*
X7246124Y12963050D01*

%LPD*%
D13*
X6986125Y12998106D02*
G01*
X6986125Y13244393D01*
X7006620Y13264888D01*

%LPD*%
D13*
X6726125Y13578106D02*
G01*
X6726125Y13232043D01*
X6736496Y13221671D01*

%LPD*%
D13*
X7051124Y13578106D02*
G01*
X7051124Y14436623D01*
X7263283Y14648781D01*
X8251232Y14648781D01*

%LPD*%
D13*
X6856124Y13578106D02*
G01*
X6856124Y14932046D01*
X6904573Y14980494D01*
X6968063Y14980494D01*

%LPD*%
D16*
X10733644Y18544537D02*
G01*
X10733644Y18665465D01*
X10606644Y18792465D01*
X10606644Y19032853D01*

%LPD*%
D14*
X3502216Y18806435D02*
G01*
X3502216Y19193997D01*

%LPD*%
D13*
X5795232Y17256821D02*
G01*
X5795232Y17102570D01*
X5846644Y17051158D01*
X6234712Y17051158D01*
X6268217Y17084663D01*
X6268217Y17225807D01*
G04 undefined.(undefined)*
%LPD*%
D15*
X4174099Y14588801D02*
D03*

G04 undefined.(undefined)*
%LPD*%
D15*
X4008598Y16785355D02*
D03*


%LPD*%
D11*
X4008598Y16785355D02*
G01*
X4008598Y18719586D01*

%LPD*%
D11*
X1970232Y13382064D02*
G01*
X2238747Y13382064D01*
X2465409Y13608726D01*
X2465409Y14014984D01*
X3222051Y14771626D01*
X3991273Y14771626D01*
X4174099Y14588801D01*

%LPD*%
D13*
X5761711Y13189998D02*
G01*
X5960360Y13189998D01*
X6039263Y13268901D01*
X6039263Y13824623D01*
X6164803Y13950163D01*

%LPD*%
D13*
X5761711Y13697998D02*
G01*
X5761711Y13826014D01*

%LPD*%
D13*
X7116124Y12998106D02*
G01*
X7116124Y12775926D01*
X7192096Y12699954D01*
X7381658Y12699954D01*
X7557073Y12524538D01*
X7557073Y12281220D01*
X7385871Y12110018D01*
X7263644Y12110018D01*

%LPD*%
D13*
X6888368Y18166590D02*
G01*
X6888368Y18166590D01*
X7263644Y18541866D01*
X7263644Y18635211D01*

%LPD*%
D11*
X9590644Y11742853D02*
G01*
X9590644Y12409710D01*
G04 undefined.(undefined)*
%LPD*%
D12*
X10219009Y13711717D02*
D03*


%LPD*%
D11*
X10098644Y12504853D02*
G01*
X10098644Y13591352D01*
X10219009Y13711717D01*
G04 din.i0+(1)*
%LPD*%
%ADD18C,2.6*%
D18*
X9590644Y11742853D02*
D03*

G04 din.i0-(3)*
%LPD*%
D18*
X10098644Y11742853D02*
D03*

G04 din.i1+(5)*
%LPD*%
D18*
X10606644Y11742853D02*
D03*

G04 din.i1-(7)*
%LPD*%
D18*
X11114644Y11742853D02*
D03*

G04 din.i0+(2)*
%LPD*%
D18*
X9590644Y12504853D02*
D03*

G04 din.i0-(4)*
%LPD*%
D18*
X10098644Y12504853D02*
D03*

G04 din.i1+(6)*
%LPD*%
D18*
X10606644Y12504853D02*
D03*

G04 din.i1-(8)*
%LPD*%
D18*
X11114644Y12504853D02*
D03*

G04 p_in.gnd(1)*
%LPD*%
D18*
X1872644Y19781853D02*
D03*

G04 p_in.vin(3)*
%LPD*%
D18*
X1364644Y19781853D02*
D03*

G04 p_in.gnd(2)*
%LPD*%
D18*
X1872644Y19019853D02*
D03*

G04 p_in.vin(4)*
%LPD*%
D18*
X1364644Y19019853D02*
D03*

G04 dout.q1c(1)*
%LPD*%
D18*
X11114644Y19781853D02*
D03*

G04 dout.q1e(3)*
%LPD*%
D18*
X10606644Y19781853D02*
D03*

G04 dout.q0c(5)*
%LPD*%
D18*
X10098644Y19781853D02*
D03*

G04 dout.q0e(7)*
%LPD*%
D18*
X9590644Y19781853D02*
D03*

G04 dout.q1c(2)*
%LPD*%
D18*
X11114644Y19019853D02*
D03*

G04 dout.q1e(4)*
%LPD*%
D18*
X10606644Y19019853D02*
D03*

G04 dout.q0c(6)*
%LPD*%
D18*
X10098644Y19019853D02*
D03*

G04 dout.q0e(8)*
%LPD*%
D18*
X9590644Y19019853D02*
D03*

G04 d2.t3.c(1)*
%LPD*%
%ADD19R,1.52X1.68*%
D19*
X5446272Y18572509D02*
D03*

G04 d2.t3.a(2)*
%LPD*%
D19*
X5070272Y18572509D02*
D03*

G04 d2.t1.c(1)*
%LPD*%
D19*
X5745093Y18308747D02*
D03*

G04 d2.t1.a(2)*
%LPD*%
D19*
X5369093Y18308747D02*
D03*

G04 q1.d_rev.c(1)*
%LPD*%
%ADD20R,1.68X1.52*%
D20*
X11619945Y18442537D02*
D03*

G04 q1.d_rev.a(2)*
%LPD*%
D20*
X11619945Y18066537D02*
D03*

G04 q0.d_rev.c(1)*
%LPD*%
D20*
X9430630Y18211537D02*
D03*

G04 q0.d_rev.a(2)*
%LPD*%
D20*
X9430630Y18587537D02*
D03*

G04 c1.out1(1)*
%LPD*%
%ADD21R,2X0.6*%
D21*
X5761711Y13824998D02*
D03*

G04 c1.in1-(2)*
%LPD*%
D21*
X5761711Y13697998D02*
D03*

G04 c1.in1+(3)*
%LPD*%
D21*
X5761711Y13570998D02*
D03*

G04 c1.vcc(4)*
%LPD*%
D21*
X5761711Y13443998D02*
D03*

G04 c1.in2+(5)*
%LPD*%
D21*
X5761711Y13316998D02*
D03*

G04 c1.in2-(6)*
%LPD*%
D21*
X5761711Y13189998D02*
D03*

G04 c1.out2(7)*
%LPD*%
D21*
X5761711Y13062998D02*
D03*

G04 c1.out4(14)*
%LPD*%
D21*
X5221711Y13824998D02*
D03*

G04 c1.in4-(13)*
%LPD*%
D21*
X5221711Y13697998D02*
D03*

G04 c1.in4+(12)*
%LPD*%
D21*
X5221711Y13570998D02*
D03*

G04 c1.vee(11)*
%LPD*%
D21*
X5221711Y13443998D02*
D03*

G04 c1.in3+(10)*
%LPD*%
D21*
X5221711Y13316998D02*
D03*

G04 c1.in3-(9)*
%LPD*%
D21*
X5221711Y13189998D02*
D03*

G04 c1.out3(8)*
%LPD*%
D21*
X5221711Y13062998D02*
D03*

G04 d2.c_bypass.c(1)*
%LPD*%
%ADD22R,0.9X1.6*%
D22*
X6085232Y17256821D02*
D03*

G04 d2.c_bypass.a(2)*
%LPD*%
D22*
X5795232Y17256821D02*
D03*

G04 d2.c4.c(1)*
%LPD*%
%ADD23R,1.6X0.9*%
D23*
X7055080Y17652774D02*
D03*

G04 d2.c4.a(2)*
%LPD*%
D23*
X7055080Y17362774D02*
D03*

G04 d2.c3.c(1)*
%LPD*%
D23*
X5940232Y17499339D02*
D03*

G04 d2.c3.a(2)*
%LPD*%
D23*
X5940232Y17789339D02*
D03*

G04 d2.c2.c(1)*
%LPD*%
D23*
X6509226Y18439321D02*
D03*

G04 d2.c2.a(2)*
%LPD*%
D23*
X6509226Y18149321D02*
D03*

G04 d2.c1.c(1)*
%LPD*%
D22*
X6306550Y18173707D02*
D03*

G04 d2.c1.a(2)*
%LPD*%
D22*
X6016550Y18173707D02*
D03*

G04 c5.C2.c(1)*
%LPD*%
D22*
X5366251Y14120843D02*
D03*

G04 c5.C2.a(2)*
%LPD*%
D22*
X5656251Y14120843D02*
D03*

G04 c5.C1.c(1)*
%LPD*%
D22*
X5366251Y14399047D02*
D03*

G04 c5.C1.a(2)*
%LPD*%
D22*
X5656251Y14399047D02*
D03*

G04 c6.c(1)*
%LPD*%
D22*
X5065584Y14120843D02*
D03*

G04 c6.a(2)*
%LPD*%
D22*
X4775584Y14120843D02*
D03*

G04 d2.r4.1(1)*
%LPD*%
D23*
X7571829Y18635211D02*
D03*

G04 d2.r4.2(2)*
%LPD*%
D23*
X7571829Y18925211D02*
D03*

G04 p1.tvs.c(1)*
%LPD*%
D19*
X1430644Y18619177D02*
D03*

G04 p1.tvs.a(2)*
%LPD*%
D19*
X1806644Y18619177D02*
D03*


%LPD*%
D13*
X7055080Y17652774D02*
G01*
X6628304Y17652774D01*
X6593217Y17687861D01*
X6593217Y17805807D01*
G04 sp.nc(1)*
%LPD*%
%ADD24C,1.9*%
D24*
X7400644Y19414728D02*
D03*

G04 sp.tx(2)*
%LPD*%
D24*
X7126644Y19414728D02*
D03*

G04 sp.rx(3)*
%LPD*%
D24*
X6852644Y19414728D02*
D03*

G04 sp.nc(4)*
%LPD*%
D24*
X6578644Y19414728D02*
D03*

G04 sp.gnd(5)*
%LPD*%
D24*
X6304644Y19414728D02*
D03*

G04 sp.tx2(6)*
%LPD*%
D24*
X7263644Y19130728D02*
D03*

G04 sp.rx2(7)*
%LPD*%
D24*
X6989644Y19130728D02*
D03*

G04 sp.nc(8)*
%LPD*%
D24*
X6715644Y19130728D02*
D03*

G04 sp.gnd(9)*
%LPD*%
D24*
X6441644Y19130728D02*
D03*

G04 sp.S(S)*
%LPD*%
%ADD25C,5*%
D25*
X8102144Y19272728D02*
D03*

G04 sp.S(S)*
%LPD*%
D25*
X5603144Y19272728D02*
D03*

G04 l.red(1)*
%LPD*%
D24*
X7400644Y12394018D02*
D03*

G04 l.pwm(2)*
%LPD*%
D24*
X7126644Y12394018D02*
D03*

G04 l.en(3)*
%LPD*%
D24*
X6852644Y12394018D02*
D03*

G04 l.pctl(4)*
%LPD*%
D24*
X6578644Y12394018D02*
D03*

G04 l.gnd(5)*
%LPD*%
D24*
X6304644Y12394018D02*
D03*

G04 l.ready(6)*
%LPD*%
D24*
X7263644Y12110018D02*
D03*

G04 l.reset(7)*
%LPD*%
D24*
X6989644Y12110018D02*
D03*

G04 l.alarm(8)*
%LPD*%
D24*
X6715644Y12110018D02*
D03*

G04 l.nc(9)*
%LPD*%
D24*
X6441644Y12110018D02*
D03*

G04 l.S(S)*
%LPD*%
D25*
X8102144Y12252018D02*
D03*

G04 l.S(S)*
%LPD*%
D25*
X5603144Y12252018D02*
D03*

G04 g.clk-(1)*
%LPD*%
D24*
X3711644Y12394018D02*
D03*

G04 g.sync-(2)*
%LPD*%
D24*
X3437644Y12394018D02*
D03*

G04 g.x-(3)*
%LPD*%
D24*
X3163644Y12394018D02*
D03*

G04 g.y-(4)*
%LPD*%
D24*
X2889644Y12394018D02*
D03*

G04 g.y_stat-(5)*
%LPD*%
D24*
X2615644Y12394018D02*
D03*

G04 g.x_stat-(6)*
%LPD*%
D24*
X2341644Y12394018D02*
D03*

G04 g.nc(7)*
%LPD*%
D24*
X2067644Y12394018D02*
D03*

G04 g.nc(8)*
%LPD*%
D24*
X1793644Y12394018D02*
D03*

G04 g.clk+(9)*
%LPD*%
D24*
X3574644Y12110018D02*
D03*

G04 g.sync+(10)*
%LPD*%
D24*
X3300644Y12110018D02*
D03*

G04 g.x+(11)*
%LPD*%
D24*
X3026644Y12110018D02*
D03*

G04 g.y+(12)*
%LPD*%
D24*
X2752644Y12110018D02*
D03*

G04 g.y_stat+(13)*
%LPD*%
D24*
X2478644Y12110018D02*
D03*

G04 g.x_stat+(14)*
%LPD*%
D24*
X2204644Y12110018D02*
D03*

G04 g.nc(15)*
%LPD*%
D24*
X1930644Y12110018D02*
D03*

G04 g.S(S)*
%LPD*%
D25*
X4418644Y12252018D02*
D03*

G04 g.S(S)*
%LPD*%
D25*
X1086644Y12252018D02*
D03*


%LPD*%
D11*
X3513764Y16785355D02*
G01*
X3513764Y18503560D01*
X3489498Y18527826D01*
G04 undefined.(undefined)*
%LPD*%
D12*
X2013681Y18568735D02*
D03*

%ADD26C,1.5*%
%LPD*%
D26*
X1806644Y18619177D02*
G01*
X1963238Y18619177D01*
X2013681Y18568735D01*

%LPD*%
D11*
X11114644Y19781853D02*
G01*
X11114644Y19109191D01*

%LPD*%
D11*
X10606644Y19781853D02*
G01*
X10606644Y19140891D01*

%LPD*%
D11*
X9590644Y19781853D02*
G01*
X9590644Y19121682D01*
G04 undefined.(undefined)*
%LPD*%
D12*
X10449756Y13705539D02*
D03*


%LPD*%
D11*
X10606644Y12504853D02*
G01*
X10606644Y13548650D01*
X10449756Y13705539D01*

%LPD*%
D11*
X11114644Y11742853D02*
G01*
X11114644Y12446662D01*
G04 undefined.(undefined)*
%LPD*%
D12*
X5042333Y18740122D02*
D03*

%ADD27C,0.7*%
%LPD*%
D27*
X5042333Y18740122D02*
G01*
X5192818Y18740122D01*
X5238800Y18786103D01*

%LPD*%
D13*
X6158735Y18561252D02*
G01*
X6398207Y18561252D01*
X6851505Y19014550D01*
X6851505Y19212600D01*
X7053633Y19414728D01*
X7126644Y19414728D01*

%LPD*%
D13*
X5446272Y18572509D02*
G01*
X5574173Y18572509D01*
X5578895Y18567787D01*

%LPD*%
D13*
X6398217Y17225807D02*
G01*
X6398217Y17079250D01*
X6265001Y16946033D01*
X5673346Y16946033D01*
X5461316Y17158063D01*
X5461316Y17889531D01*
X5745093Y18173308D01*
X5745093Y18308747D01*

%LPD*%
D13*
X5979908Y18816600D02*
G01*
X5660089Y18816600D01*
X5574105Y18730615D01*
X5574105Y18230522D01*
X5374872Y18031290D01*
X5374872Y17126362D01*
X5630990Y16870245D01*
X6290567Y16870245D01*
X6462829Y17042507D01*

%LPD*%
D14*
X5369093Y18308747D02*
G01*
X5236171Y18308747D01*
X5218218Y18326700D01*

%LPD*%
D14*
X6304644Y19414728D02*
G01*
X6207289Y19414728D01*
X5745972Y18953411D01*
X5311492Y18953411D01*
X5220178Y18862097D01*
X5220178Y17227873D01*

%LPD*%
D13*
X6658217Y17805807D02*
G01*
X6658217Y17936439D01*
X6888368Y18166590D01*
%ADD28C,2*%
%LPD*%
D28*
X1806644Y18619177D02*
G01*
X1806644Y18953853D01*

%LPD*%
D13*
X6089472Y14075944D02*
G01*
X5862358Y14075944D01*
X5817458Y14120843D01*
X5656251Y14120843D01*

%LPD*%
D16*
X9430630Y18544537D02*
G01*
X9719304Y18544537D01*

%LPD*%
D16*
X11619945Y18109537D02*
G01*
X11440591Y18109537D01*
X11391905Y18158224D01*
X10955387Y18158224D01*
X10733644Y18379967D01*
X10733644Y18544537D01*

%LPD*%
D16*
X11330348Y18689537D02*
G01*
X11330348Y18817149D01*
X11114644Y19032853D01*

%LPD*%
D16*
X10300922Y18399537D02*
G01*
X10009563Y18399537D01*
X9971644Y18437456D01*
X9971644Y18544537D01*

%LPD*%
D13*
X6963509Y14979182D02*
G01*
X7063706Y14979182D01*
X7244588Y15160064D01*
X8251232Y15160064D01*

%LPD*%
D13*
X6673509Y14678282D02*
G01*
X6673509Y14172646D01*
X6726125Y14120031D01*
X6726125Y13578106D01*

%LPD*%
D13*
X6085232Y17396457D02*
G01*
X6315169Y17396457D01*
X6333217Y17378409D01*
X6333217Y17225807D01*

%LPD*%
D13*
X5795232Y17256821D02*
G01*
X5637505Y17256821D01*
X5549310Y17345016D01*
X5549310Y17627944D01*
X5611284Y17689919D01*
X5719067Y17689919D01*
X5783736Y17625250D01*
X6077442Y17625250D01*
X6190614Y17512078D01*
X7497491Y17512078D01*
X7716781Y17292788D01*
X7716781Y16940893D01*

%LPD*%
D11*
X6085232Y17256821D02*
G01*
X6085232Y17399900D01*
X6082824Y17402308D01*

%LPD*%
D13*
X6301024Y12248972D02*
G01*
X6433598Y12248972D01*
X6578644Y12394018D01*

%LPD*%
D13*
X6725932Y13043522D02*
G01*
X6725932Y13209239D01*
X6664492Y13270679D01*
G04 undefined.(undefined)*
%LPD*%
D15*
X7716781Y16940893D02*
D03*


%LPD*%
D14*
X7716781Y16940893D02*
G01*
X8132402Y16940893D01*

%LPD*%
D11*
X9989644Y17127709D02*
G01*
X9989644Y17347271D01*
X9971644Y17365271D01*
X9971644Y17644537D01*
G04 undefined.(undefined)*
%LPD*%
D15*
X10447808Y17201047D02*
D03*


%LPD*%
D11*
X10715644Y17127709D02*
G01*
X10521146Y17127709D01*
X10447808Y17201047D01*
G04 undefined.(undefined)*
%LPD*%
D15*
X9687919Y16219611D02*
D03*


%LPD*%
D11*
X9687919Y16219611D02*
G01*
X9687919Y16229222D01*
X9634761Y16176064D01*
X8805232Y16176064D01*
G04 undefined.(undefined)*
%LPD*%
D15*
X10560738Y17446245D02*
D03*


%LPD*%
D11*
X10560738Y17446245D02*
G01*
X10560738Y17586995D01*
X10618280Y17644537D01*
X10733644Y17644537D01*

%LPD*%
D13*
X5221711Y13316998D02*
G01*
X5521891Y13316998D01*
X5648891Y13443998D01*
X5761711Y13443998D01*

%LPD*%
D11*
X5504002Y13588109D02*
G01*
X5504002Y13465187D01*
X5482813Y13443998D01*
X5221711Y13443998D01*

%LPD*%
D13*
X5656251Y14399047D02*
G01*
X5656251Y14199026D01*

%LPD*%
D11*
X5504002Y13821743D02*
G01*
X5504002Y13831661D01*
X5366251Y13969412D01*
X5366251Y14120843D01*

%LPD*%
D17*
X5504002Y13524677D02*
G01*
X5504002Y13821743D01*

%LPD*%
D13*
X5994108Y13062998D02*
G01*
X5994108Y12412074D01*
X6157211Y12248972D01*
X6301024Y12248972D01*

%LPD*%
D13*
X5221711Y13189998D02*
G01*
X5076783Y13189998D01*
X5049126Y13162340D01*
X5049126Y13094709D01*
X5080836Y13062998D01*
X5221711Y13062998D01*

%LPD*%
D13*
X5221711Y13824998D02*
G01*
X5077198Y13824998D01*
X5030394Y13778194D01*
X5030394Y13725291D01*
X5057687Y13697998D01*
X5221711Y13697998D01*

%LPD*%
D13*
X6255789Y16191808D02*
G01*
X3188907Y16191808D01*
X2530916Y15533816D01*
X2530916Y14605047D01*
X2323933Y14398064D01*
X1970232Y14398064D01*
G04 undefined.(undefined)*
%LPD*%
D15*
X547682Y13208866D02*
D03*


%LPD*%
D13*
X547682Y13208866D02*
G01*
X547682Y15973887D01*
X1003859Y16430064D01*
X1416232Y16430064D01*
G04 undefined.(undefined)*
%LPD*%
D15*
X4532369Y13080585D02*
D03*


%LPD*%
D13*
X3684994Y13941036D02*
G01*
X4077460Y13941036D01*
X4532369Y13486128D01*
X4532369Y13124189D01*
X4487494Y13079314D01*
G04 undefined.(undefined)*
%LPD*%
D15*
X3874767Y14616640D02*
D03*

G04 undefined.(undefined)*
%LPD*%
D15*
X2433941Y13016938D02*
D03*

G04 undefined.(undefined)*
%LPD*%
D15*
X3176638Y12899193D02*
D03*


%LPD*%
D13*
X3176638Y12899193D02*
G01*
X3058923Y12899193D01*
X3008481Y12949636D01*
X3008481Y13022514D01*
X3038003Y13052036D01*
X3144994Y13052036D01*

%LPD*%
D13*
X1416232Y15922064D02*
G01*
X1102417Y15922064D01*
X877859Y15697506D01*
X877859Y13202898D01*
X1161196Y12919560D01*
X2336563Y12919560D01*
X2433941Y13016938D01*

%LPD*%
D13*
X6658217Y17225807D02*
G01*
X6658217Y16364417D01*
X6972240Y16050394D01*
X8483162Y16050394D01*
X8535378Y16102610D01*
X8535378Y16377731D01*
X8587711Y16430064D01*
X8805232Y16430064D01*

%LPD*%
D13*
X7400644Y12394768D02*
G01*
X7372687Y12394768D01*
X7226697Y12248777D01*
X7020752Y12248777D01*
X6852644Y12416886D01*

%LPD*%
D13*
X6989644Y12110768D02*
G01*
X6989644Y12061020D01*
X7089517Y11961147D01*
X7369347Y11961147D01*
X7641964Y12233764D01*
X7641964Y12573938D01*
X7436069Y12779832D01*
X7226175Y12779832D01*
X7180805Y12825202D01*
X7180805Y12990556D01*

%LPD*%
D13*
X7126644Y12394768D02*
G01*
X7126644Y12613523D01*
X7051882Y12688284D01*
X7051882Y12976829D01*

%LPD*%
D11*
X6852644Y12394768D02*
G01*
X6852644Y12751932D01*
X6921125Y12820413D01*
X6921125Y12998106D01*

%LPD*%
D13*
X6715644Y12110768D02*
G01*
X6715644Y12710834D01*
X6856125Y12851314D01*
X6856125Y12998106D01*

%LPD*%
D13*
X6723217Y17225807D02*
G01*
X6723217Y16402688D01*
X6949841Y16176064D01*
X8251232Y16176064D01*

%LPD*%
D13*
X6528217Y17225807D02*
G01*
X6528217Y16464236D01*
X6255789Y16191808D01*

%LPD*%
D13*
X3144994Y13433036D02*
G01*
X3485502Y13433036D01*
X3510563Y13458096D01*

%LPD*%
D13*
X1416232Y15668064D02*
G01*
X1126923Y15668064D01*
X1005219Y15546359D01*
X1005219Y13288504D01*
X1212052Y13081670D01*

%LPD*%
D13*
X1212052Y13081670D02*
G01*
X2205506Y13081670D01*
X2452970Y13329134D01*
X2452970Y13329903D01*
X2937103Y13814036D01*
X3144994Y13814036D01*
G04 undefined.(undefined)*
%LPD*%
D15*
X860371Y12900263D02*
D03*

G04 undefined.(undefined)*
%LPD*%
D15*
X3583051Y12856418D02*
D03*


%LPD*%
D13*
X3583051Y12856418D02*
G01*
X3701738Y12856418D01*
X3857309Y13011989D01*
X3857309Y13113782D01*
X3792055Y13179036D01*
X3684994Y13179036D01*

%LPD*%
D13*
X1416232Y16176064D02*
G01*
X1079573Y16176064D01*
X719643Y15816133D01*
X719643Y13040992D01*
X860371Y12900263D01*
G04 undefined.(undefined)*
%LPD*%
D15*
X3224767Y14435883D02*
D03*


%LPD*%
D13*
X3268458Y14214743D02*
G01*
X3268458Y14392192D01*
X3224767Y14435883D01*

%LPD*%
D13*
X6593217Y17225807D02*
G01*
X6593217Y16432604D01*
X6268978Y16108365D01*
X3221237Y16108365D01*
X2616671Y15503799D01*
X2616671Y14537345D01*
X2350394Y14271068D01*
X1543237Y14271068D01*
X1416232Y14144064D01*

%LPD*%
D13*
X5221711Y13570998D02*
G01*
X5034643Y13570998D01*
X4977425Y13513780D01*
X4977425Y13364890D01*
X5025317Y13316998D01*
X5221711Y13316998D01*

%LPD*%
D13*
X5761711Y13062998D02*
G01*
X5994108Y13062998D01*
X6164803Y13233692D01*
X6164803Y13690001D01*

%LPD*%
D13*
X5366251Y14399047D02*
G01*
X5366251Y14194781D01*

%LPD*%
D13*
X5761711Y13316998D02*
G01*
X5627569Y13316998D01*
X5547785Y13237215D01*
X5547785Y13031916D01*
X5447580Y12931710D01*
X4969620Y12931710D01*
X4779870Y13121460D01*
X4779870Y14187906D01*
X4075537Y14892239D01*
X3118596Y14892239D01*
X2244709Y14018353D01*
X1189127Y14018353D01*
X1144371Y14063110D01*
X1144371Y14357090D01*
X1185344Y14398064D01*
X1416232Y14398064D01*
G04 undefined.(undefined)*
%LPD*%
D15*
X9547077Y17468863D02*
D03*


%LPD*%
D11*
X9547077Y17468863D02*
G01*
X9547077Y17606741D01*
X9584873Y17644537D01*
X9717644Y17644537D01*

%LPD*%
D11*
X11005644Y17127709D02*
G01*
X11005644Y17310222D01*
X10987644Y17328221D01*
X10987644Y17644537D01*
G04 undefined.(undefined)*
%LPD*%
D15*
X9435859Y17210103D02*
D03*


%LPD*%
D11*
X9699644Y17127709D02*
G01*
X9518253Y17127709D01*
X9435859Y17210103D01*

%LPD*%
D11*
X9435859Y17210103D02*
G01*
X9435859Y16992393D01*
X9514334Y16913918D01*
X10354343Y16913918D01*
X10465813Y17025389D01*
X10465813Y17183042D01*
X10447808Y17201047D01*
G04 undefined.(undefined)*
%LPD*%
D15*
X9229958Y17372936D02*
D03*


%LPD*%
D14*
X9229958Y17372936D02*
G01*
X9229958Y17046585D01*
X9121437Y16938064D01*
X8805232Y16938064D01*
G04 undefined.(undefined)*
%LPD*%
D15*
X9341051Y15649350D02*
D03*


%LPD*%
D11*
X9341051Y15649350D02*
G01*
X8944735Y15649350D01*
G04 undefined.(undefined)*
%LPD*%
D15*
X10530002Y15527406D02*
D03*


%LPD*%
D11*
X10530002Y15527406D02*
G01*
X9808502Y15527406D01*
X9413844Y15922064D01*
X8805232Y15922064D01*
G04 undefined.(undefined)*
%LPD*%
D15*
X6567043Y13935450D02*
D03*


%LPD*%
D16*
X6567043Y13935450D02*
G01*
X6376985Y13935450D01*
X6352644Y13959791D01*

%LPD*%
D13*
X6304644Y12394018D02*
G01*
X6304644Y12525936D01*
X6383083Y12604375D01*
X6493770Y12604375D01*
X6726125Y12836730D01*
X6726125Y12998106D01*
G04 undefined.(undefined)*
%LPD*%
D15*
X5677914Y17498428D02*
D03*


%LPD*%
D13*
X6085232Y17399900D02*
G01*
X5776443Y17399900D01*
X5677914Y17498428D01*
G04 undefined.(undefined)*
%LPD*%
D15*
X5410900Y15353352D02*
D03*


%LPD*%
D11*
X5366251Y14399047D02*
G01*
X5366251Y15308703D01*
X5410900Y15353352D01*

%LPD*%
D13*
X6315169Y17396457D02*
G01*
X6882350Y17396457D01*
X6916033Y17362774D01*
X7055080Y17362774D01*

%LPD*%
D13*
X6306550Y18173707D02*
G01*
X6306550Y18049464D01*
X6398217Y17957797D01*
X6398217Y17805807D01*

%LPD*%
D13*
X6509226Y18149321D02*
G01*
X6509226Y18046481D01*
X6463217Y18000472D01*
X6463217Y17805807D01*
G04 undefined.(undefined)*
%LPD*%
D15*
X5220178Y17227873D02*
D03*


%LPD*%
D11*
X5202271Y17245781D02*
G01*
X5220178Y17227873D01*

%LPD*%
D13*
X5065584Y14399047D02*
G01*
X5065584Y14129382D01*

%LPD*%
D13*
X4775584Y14399047D02*
G01*
X4775584Y14124736D01*
X4784895Y14115425D01*

%LPD*%
D13*
X7647696Y13426828D02*
G01*
X7508643Y13426828D01*
X7342674Y13260859D01*
X7247240Y13260859D01*
X7240257Y13267842D01*

%LPD*%
D13*
X6673509Y14979182D02*
G01*
X6673509Y14725670D01*

%LPD*%
D16*
X10312877Y18689537D02*
G01*
X10312877Y18818620D01*
X10098644Y19032853D01*

%LPD*%
D16*
X10987644Y18544537D02*
G01*
X10987644Y18422367D01*
X11010474Y18399537D01*
X11330348Y18399537D01*

%LPD*%
D16*
X11330348Y18399537D02*
G01*
X11635493Y18399537D01*

%LPD*%
D16*
X9430630Y18254537D02*
G01*
X9869231Y18254537D01*
X10019188Y18404494D01*

%LPD*%
D13*
X6164803Y14200163D02*
G01*
X6164803Y14401152D01*
X5884575Y14681380D01*
X5359106Y14681380D01*
X5353074Y14687412D01*

%LPD*%
D28*
X1430644Y18619177D02*
G01*
X1430644Y18953853D01*
X1364644Y19019853D01*
G04 undefined.(undefined)*
%LPD*%
D12*
X992568Y18464957D02*
D03*


%LPD*%
D28*
X1430644Y18619177D02*
G01*
X1146789Y18619177D01*
X992568Y18464957D01*

%LPD*%
D14*
X1806644Y18619177D02*
G01*
X2325684Y18619177D01*
X2566138Y18378723D01*
X3416332Y18378723D01*
X3502216Y18464606D01*
X3502216Y18806435D01*

%LPD*%
D13*
X6723217Y17805807D02*
G01*
X6723217Y17905907D01*
X6797644Y17980333D01*
X6797705Y17980333D01*
X7322375Y18505004D01*

%LPD*%
D13*
X7575296Y18932842D02*
G01*
X7575296Y19169620D01*
X7472076Y19272839D01*
X7194773Y19272839D01*
X7021153Y19099219D01*

%LPD*%
D14*
X6304644Y19414728D02*
G01*
X6304644Y19267728D01*
X6441644Y19130728D01*

%LPD*%
D14*
X5063899Y18572509D02*
G01*
X5206876Y18572509D01*
X5220435Y18586067D01*

%LPD*%
D13*
X6462829Y17042507D02*
G01*
X6462829Y17189232D01*

%LPD*%
D13*
X5745093Y18308747D02*
G01*
X5745093Y18506354D01*
X5799991Y18561252D01*
X5868735Y18561252D01*

%LPD*%
D13*
X6269908Y18816600D02*
G01*
X6374391Y18816600D01*
X6584304Y19026513D01*
X6584304Y19203509D01*
X6795523Y19414728D01*
X6852644Y19414728D01*
G04 undefined.(undefined)*
%LPD*%
D12*
X7560936Y18478738D02*
D03*


%LPD*%
D11*
X7560936Y18478738D02*
G01*
X7560936Y18622186D01*
G04 undefined.(undefined)*
%LPD*%
D12*
X6984739Y18524595D02*
D03*


%LPD*%
D11*
X6984739Y18524595D02*
G01*
X7015379Y18524595D01*
X7125995Y18635211D01*
X7263644Y18635211D01*
G04 undefined.(undefined)*
%LPD*%
D12*
X11364698Y13146875D02*
D03*


%LPD*%
D11*
X11114644Y12504853D02*
G01*
X11114644Y12896821D01*
X11364698Y13146875D01*

%LPD*%
D11*
X10606644Y11742853D02*
G01*
X10606644Y12394502D01*

%LPD*%
D11*
X10098644Y19781853D02*
G01*
X10098644Y19129731D01*

%LPD*%
D11*
X4008598Y16785355D02*
G01*
X3838465Y16785355D01*
G04 r.1(1)*
%LPD*%
D26*
X6164803Y13700163D02*
D03*

G04 r.2(2)*
%LPD*%
D26*
X6164803Y13950163D02*
D03*

G04 r.3(3)*
%LPD*%
D26*
X6164803Y14200163D02*
D03*

G04 debug.nrst(1)*
%LPD*%
%ADD29C,1.89*%
D29*
X4010216Y19272728D02*
D03*

G04 debug.swdio(2)*
%LPD*%
D29*
X3756216Y19272728D02*
D03*

G04 debug.gnd(3)*
%LPD*%
D29*
X3502216Y19272728D02*
D03*

G04 debug.swclk(4)*
%LPD*%
D29*
X3248216Y19272728D02*
D03*

G04 __b4.(undefined)*
%LPD*%
%ADD30C,6.2*%
D30*
X8702644Y19497353D02*
D03*

G04 __b5.(undefined)*
%LPD*%
D30*
X8702644Y12027393D02*
D03*

G04 __b6.(undefined)*
%LPD*%
D30*
X502644Y12027393D02*
D03*

G04 __b1.(undefined)*
%LPD*%
D30*
X502644Y19497353D02*
D03*

G04 __b2.(undefined)*
%LPD*%
D30*
X12002644Y19497353D02*
D03*

G04 __b3.(undefined)*
%LPD*%
D30*
X5002644Y19497353D02*
D03*

G04 __b7.(undefined)*
%LPD*%
D30*
X12002644Y12027393D02*
D03*

G04 __b8.(undefined)*
%LPD*%
D30*
X5002644Y12027393D02*
D03*

G04 r2.1(1)*
%LPD*%
D22*
X6963509Y14979182D02*
D03*

G04 r2.2(2)*
%LPD*%
D22*
X6673509Y14979182D02*
D03*

G04 r3.1(1)*
%LPD*%
D22*
X6963509Y14678282D02*
D03*

G04 r3.2(2)*
%LPD*%
D22*
X6673509Y14678282D02*
D03*

G04 r4.1(1)*
%LPD*%
D23*
X7647696Y13716828D02*
D03*

G04 r4.2(2)*
%LPD*%
D23*
X7647696Y13426828D02*
D03*

G04 q0.d_in.c(1)*
%LPD*%
D23*
X10309086Y18399537D02*
D03*

G04 q0.d_in.a(2)*
%LPD*%
D23*
X10309086Y18689537D02*
D03*

G04 q1.d_in.c(1)*
%LPD*%
D23*
X11330348Y18399537D02*
D03*

G04 q1.d_in.a(2)*
%LPD*%
D23*
X11330348Y18689537D02*
D03*

G04 d2.m.C1+(1)*
%LPD*%
%ADD31R,0.45X1.5*%
D31*
X6268217Y17805807D02*
D03*

G04 d2.m.V+(2)*
%LPD*%
D31*
X6333217Y17805807D02*
D03*

G04 d2.m.C1-(3)*
%LPD*%
D31*
X6398217Y17805807D02*
D03*

G04 d2.m.C2+(4)*
%LPD*%
D31*
X6463217Y17805807D02*
D03*

G04 d2.m.C2-(5)*
%LPD*%
D31*
X6528217Y17805807D02*
D03*

G04 d2.m.V-(6)*
%LPD*%
D31*
X6593217Y17805807D02*
D03*

G04 d2.m.DOUT2(7)*
%LPD*%
D31*
X6658217Y17805807D02*
D03*

G04 d2.m.RIN2(8)*
%LPD*%
D31*
X6723217Y17805807D02*
D03*

G04 d2.m.VCC(16)*
%LPD*%
D31*
X6268217Y17225807D02*
D03*

G04 d2.m.GND(15)*
%LPD*%
D31*
X6333217Y17225807D02*
D03*

G04 d2.m.DOUT1(14)*
%LPD*%
D31*
X6398217Y17225807D02*
D03*

G04 d2.m.RIN1(13)*
%LPD*%
D31*
X6463217Y17225807D02*
D03*

G04 d2.m.ROUT1(12)*
%LPD*%
D31*
X6528217Y17225807D02*
D03*

G04 d2.m.DIN1(11)*
%LPD*%
D31*
X6593217Y17225807D02*
D03*

G04 d2.m.DIN2(10)*
%LPD*%
D31*
X6658217Y17225807D02*
D03*

G04 d2.m.ROUT2(9)*
%LPD*%
D31*
X6723217Y17225807D02*
D03*

G04 q0.opto.a(1)*
%LPD*%
%ADD32R,1.5X1.3*%
D32*
X9971644Y17644537D02*
D03*

G04 q0.opto.ca(2)*
%LPD*%
D32*
X9717644Y17644537D02*
D03*

G04 q0.opto.co(4)*
%LPD*%
D32*
X9971644Y18544537D02*
D03*

G04 q0.opto.e(3)*
%LPD*%
D32*
X9717644Y18544537D02*
D03*

G04 q1.opto.a(1)*
%LPD*%
D32*
X10987644Y17644537D02*
D03*

G04 q1.opto.ca(2)*
%LPD*%
D32*
X10733644Y17644537D02*
D03*

G04 q1.opto.co(4)*
%LPD*%
D32*
X10987644Y18544537D02*
D03*

G04 q1.opto.e(3)*
%LPD*%
D32*
X10733644Y18544537D02*
D03*

G04 c4.PA15(1)*
%LPD*%
%ADD33R,1.5X4*%
D33*
X2740216Y18806435D02*
D03*

G04 c4.VDD_OK(2)*
%LPD*%
D33*
X2994216Y18806435D02*
D03*

G04 c4.SWCLK(3)*
%LPD*%
D33*
X3248216Y18806435D02*
D03*

G04 c4.GND(4)*
%LPD*%
D33*
X3502216Y18806435D02*
D03*

G04 c4.SWDIO(5)*
%LPD*%
D33*
X3756216Y18806435D02*
D03*

G04 c4.NRST(6)*
%LPD*%
D33*
X4010216Y18806435D02*
D03*

G04 d.c1.1a(1)*
%LPD*%
%ADD34R,1.55X0.6*%
D34*
X3684994Y13941036D02*
D03*

G04 d.c1.1y(2)*
%LPD*%
D34*
X3684994Y13814036D02*
D03*

G04 d.c1.1z(3)*
%LPD*%
D34*
X3684994Y13687036D02*
D03*

G04 d.c1.g(4)*
%LPD*%
D34*
X3684994Y13560036D02*
D03*

G04 d.c1.2z(5)*
%LPD*%
D34*
X3684994Y13433036D02*
D03*

G04 d.c1.2y(6)*
%LPD*%
D34*
X3684994Y13306036D02*
D03*

G04 d.c1.2a(7)*
%LPD*%
D34*
X3684994Y13179036D02*
D03*

G04 d.c1.gnd(8)*
%LPD*%
D34*
X3684994Y13052036D02*
D03*

G04 d.c1.vcc(16)*
%LPD*%
D34*
X3144994Y13941036D02*
D03*

G04 d.c1.4a(15)*
%LPD*%
D34*
X3144994Y13814036D02*
D03*

G04 d.c1.4y(14)*
%LPD*%
D34*
X3144994Y13687036D02*
D03*

G04 d.c1.4z(13)*
%LPD*%
D34*
X3144994Y13560036D02*
D03*

G04 d.c1.n_g(12)*
%LPD*%
D34*
X3144994Y13433036D02*
D03*

G04 d.c1.3z(11)*
%LPD*%
D34*
X3144994Y13306036D02*
D03*

G04 d.c1.3y(10)*
%LPD*%
D34*
X3144994Y13179036D02*
D03*

G04 d.c1.3a(9)*
%LPD*%
D34*
X3144994Y13052036D02*
D03*

G04 d3.oe1'(1)*
%LPD*%
D31*
X6661124Y13578106D02*
D03*

G04 d3.i0(2)*
%LPD*%
D31*
X6726125Y13578106D02*
D03*

G04 d3.q4(3)*
%LPD*%
D31*
X6791124Y13578106D02*
D03*

G04 d3.i1(4)*
%LPD*%
D31*
X6856124Y13578106D02*
D03*

G04 d3.q5(5)*
%LPD*%
D31*
X6921125Y13578106D02*
D03*

G04 d3.i2(6)*
%LPD*%
D31*
X6986125Y13578106D02*
D03*

G04 d3.q6(7)*
%LPD*%
D31*
X7051124Y13578106D02*
D03*

G04 d3.i3(8)*
%LPD*%
D31*
X7116124Y13578106D02*
D03*

G04 d3.q7(9)*
%LPD*%
D31*
X7181125Y13578106D02*
D03*

G04 d3.gnd(10)*
%LPD*%
D31*
X7246124Y13578106D02*
D03*

G04 d3.vcc(20)*
%LPD*%
D31*
X6661124Y12998106D02*
D03*

G04 d3.oe2'(19)*
%LPD*%
D31*
X6726125Y12998106D02*
D03*

G04 d3.q0(18)*
%LPD*%
D31*
X6791124Y12998106D02*
D03*

G04 d3.i4(17)*
%LPD*%
D31*
X6856124Y12998106D02*
D03*

G04 d3.q1(16)*
%LPD*%
D31*
X6921125Y12998106D02*
D03*

G04 d3.i5(15)*
%LPD*%
D31*
X6986125Y12998106D02*
D03*

G04 d3.q2(14)*
%LPD*%
D31*
X7051124Y12998106D02*
D03*

G04 d3.i6(13)*
%LPD*%
D31*
X7116124Y12998106D02*
D03*

G04 d3.q3(12)*
%LPD*%
D31*
X7181125Y12998106D02*
D03*

G04 d3.i7(11)*
%LPD*%
D31*
X7246124Y12998106D02*
D03*

G04 d.c2.c(1)*
%LPD*%
D22*
X3558458Y14214743D02*
D03*

G04 d.c2.a(2)*
%LPD*%
D22*
X3268458Y14214743D02*
D03*

G04 c3.NRST(41)*
%LPD*%
%ADD35R,4X1.5*%
D35*
X1970232Y13382064D02*
D03*

G04 c3.PC1(43)*
%LPD*%
D35*
X1970232Y13636064D02*
D03*

G04 c3.PC3(45)*
%LPD*%
D35*
X1970232Y13890064D02*
D03*

G04 c3.PA1(47)*
%LPD*%
D35*
X1970232Y14144064D02*
D03*

G04 c3.PA3(49)*
%LPD*%
D35*
X1970232Y14398064D02*
D03*

G04 c3.PA5(51)*
%LPD*%
D35*
X1970232Y14652064D02*
D03*

G04 c3.PA7(53)*
%LPD*%
D35*
X1970232Y14906064D02*
D03*

G04 c3.PC5(55)*
%LPD*%
D35*
X1970232Y15160064D02*
D03*

G04 c3.PB1(57)*
%LPD*%
D35*
X1970232Y15414064D02*
D03*

G04 c3.PE7(59)*
%LPD*%
D35*
X1970232Y15668064D02*
D03*

G04 c3.PE9(61)*
%LPD*%
D35*
X1970232Y15922064D02*
D03*

G04 c3.PE11(63)*
%LPD*%
D35*
X1970232Y16176064D02*
D03*

G04 c3.PE13(65)*
%LPD*%
D35*
X1970232Y16430064D02*
D03*

G04 c3.PE15(67)*
%LPD*%
D35*
X1970232Y16684064D02*
D03*

G04 c3.PB11(69)*
%LPD*%
D35*
X1970232Y16938064D02*
D03*

G04 c3.PB13(71)*
%LPD*%
D35*
X1970232Y17192064D02*
D03*

G04 c3.PB15(73)*
%LPD*%
D35*
X1970232Y17446064D02*
D03*

G04 c3.PD9(75)*
%LPD*%
D35*
X1970232Y17700064D02*
D03*

G04 c3.PD11(77)*
%LPD*%
D35*
X1970232Y17954064D02*
D03*

G04 c3.PD13(79)*
%LPD*%
D35*
X1970232Y18208064D02*
D03*

G04 c3.PC0(42)*
%LPD*%
D35*
X1416232Y13382064D02*
D03*

G04 c3.PC2(44)*
%LPD*%
D35*
X1416232Y13636064D02*
D03*

G04 c3.PA0(46)*
%LPD*%
D35*
X1416232Y13890064D02*
D03*

G04 c3.PA2(48)*
%LPD*%
D35*
X1416232Y14144064D02*
D03*

G04 c3.PA4(50)*
%LPD*%
D35*
X1416232Y14398064D02*
D03*

G04 c3.PA6(52)*
%LPD*%
D35*
X1416232Y14652064D02*
D03*

G04 c3.PC4(54)*
%LPD*%
D35*
X1416232Y14906064D02*
D03*

G04 c3.PB0(56)*
%LPD*%
D35*
X1416232Y15160064D02*
D03*

G04 c3.PB2(58)*
%LPD*%
D35*
X1416232Y15414064D02*
D03*

G04 c3.PE8(60)*
%LPD*%
D35*
X1416232Y15668064D02*
D03*

G04 c3.PE10(62)*
%LPD*%
D35*
X1416232Y15922064D02*
D03*

G04 c3.PE12(64)*
%LPD*%
D35*
X1416232Y16176064D02*
D03*

G04 c3.PE14(66)*
%LPD*%
D35*
X1416232Y16430064D02*
D03*

G04 c3.PB10(68)*
%LPD*%
D35*
X1416232Y16684064D02*
D03*

G04 c3.PB12(70)*
%LPD*%
D35*
X1416232Y16938064D02*
D03*

G04 c3.PB14(72)*
%LPD*%
D35*
X1416232Y17192064D02*
D03*

G04 c3.PD8(74)*
%LPD*%
D35*
X1416232Y17446064D02*
D03*

G04 c3.PD10(76)*
%LPD*%
D35*
X1416232Y17700064D02*
D03*

G04 c3.PD12(78)*
%LPD*%
D35*
X1416232Y17954064D02*
D03*

G04 c3.PD14(80)*
%LPD*%
D35*
X1416232Y18208064D02*
D03*

G04 c3.PC15(1)*
%LPD*%
D35*
X8251232Y13382064D02*
D03*

G04 c3.PC13(3)*
%LPD*%
D35*
X8251232Y13636064D02*
D03*

G04 c3.PE5(5)*
%LPD*%
D35*
X8251232Y13890064D02*
D03*

G04 c3.PE3(7)*
%LPD*%
D35*
X8251232Y14144064D02*
D03*

G04 c3.PE1(9)*
%LPD*%
D35*
X8251232Y14398064D02*
D03*

G04 c3.PB9(11)*
%LPD*%
D35*
X8251232Y14652064D02*
D03*

G04 c3.PB7(13)*
%LPD*%
D35*
X8251232Y14906064D02*
D03*

G04 c3.PB5(15)*
%LPD*%
D35*
X8251232Y15160064D02*
D03*

G04 c3.PB3(17)*
%LPD*%
D35*
X8251232Y15414064D02*
D03*

G04 c3.PD6(19)*
%LPD*%
D35*
X8251232Y15668064D02*
D03*

G04 c3.PD4(21)*
%LPD*%
D35*
X8251232Y15922064D02*
D03*

G04 c3.PD2(23)*
%LPD*%
D35*
X8251232Y16176064D02*
D03*

G04 c3.PD0(25)*
%LPD*%
D35*
X8251232Y16430064D02*
D03*

G04 c3.PC11(27)*
%LPD*%
D35*
X8251232Y16684064D02*
D03*

G04 c3.VCC(29)*
%LPD*%
D35*
X8251232Y16938064D02*
D03*

G04 c3.PA12(31)*
%LPD*%
D35*
X8251232Y17192064D02*
D03*

G04 c3.PA10(33)*
%LPD*%
D35*
X8251232Y17446064D02*
D03*

G04 c3.PA8(35)*
%LPD*%
D35*
X8251232Y17700064D02*
D03*

G04 c3.PC8(37)*
%LPD*%
D35*
X8251232Y17954064D02*
D03*

G04 c3.PC6(39)*
%LPD*%
D35*
X8251232Y18208064D02*
D03*

G04 c3.PC14(2)*
%LPD*%
D35*
X8805232Y13382064D02*
D03*

G04 c3.PE6(4)*
%LPD*%
D35*
X8805232Y13636064D02*
D03*

G04 c3.PE4(6)*
%LPD*%
D35*
X8805232Y13890064D02*
D03*

G04 c3.PE2(8)*
%LPD*%
D35*
X8805232Y14144064D02*
D03*

G04 c3.PE0(10)*
%LPD*%
D35*
X8805232Y14398064D02*
D03*

G04 c3.PB8(12)*
%LPD*%
D35*
X8805232Y14652064D02*
D03*

G04 c3.PB6(14)*
%LPD*%
D35*
X8805232Y14906064D02*
D03*

G04 c3.PB4(16)*
%LPD*%
D35*
X8805232Y15160064D02*
D03*

G04 c3.PD7(18)*
%LPD*%
D35*
X8805232Y15414064D02*
D03*

G04 c3.PD5(20)*
%LPD*%
D35*
X8805232Y15668064D02*
D03*

G04 c3.PD3(22)*
%LPD*%
D35*
X8805232Y15922064D02*
D03*

G04 c3.PD1(24)*
%LPD*%
D35*
X8805232Y16176064D02*
D03*

G04 c3.PC12(26)*
%LPD*%
D35*
X8805232Y16430064D02*
D03*

G04 c3.PC10(28)*
%LPD*%
D35*
X8805232Y16684064D02*
D03*

G04 c3.GND(30)*
%LPD*%
D35*
X8805232Y16938064D02*
D03*

G04 c3.PA11(32)*
%LPD*%
D35*
X8805232Y17192064D02*
D03*

G04 c3.PA9(34)*
%LPD*%
D35*
X8805232Y17446064D02*
D03*

G04 c3.PC9(36)*
%LPD*%
D35*
X8805232Y17700064D02*
D03*

G04 c3.PC7(38)*
%LPD*%
D35*
X8805232Y17954064D02*
D03*

G04 c3.PD15(40)*
%LPD*%
D35*
X8805232Y18208064D02*
D03*

G04 q0.R2.1(1)*
%LPD*%
D22*
X9989644Y17127709D02*
D03*

G04 q0.R2.2(2)*
%LPD*%
D22*
X9699644Y17127709D02*
D03*

G04 q1.R2.1(1)*
%LPD*%
D22*
X11005644Y17127709D02*
D03*

G04 q1.R2.2(2)*
%LPD*%
D22*
X10715644Y17127709D02*
D03*

G04 r1.1(1)*
%LPD*%
D22*
X5065584Y14399047D02*
D03*

G04 r1.2(2)*
%LPD*%
D22*
X4775584Y14399047D02*
D03*

G04 d2.r1.1(1)*
%LPD*%
D22*
X5868735Y18561252D02*
D03*

G04 d2.r1.2(2)*
%LPD*%
D22*
X6158735Y18561252D02*
D03*

G04 d2.r2.1(1)*
%LPD*%
D23*
X7263644Y18635211D02*
D03*

G04 d2.r2.2(2)*
%LPD*%
D23*
X7263644Y18925211D02*
D03*

G04 d2.r3.1(1)*
%LPD*%
D22*
X5979908Y18816600D02*
D03*

G04 d2.r3.2(2)*
%LPD*%
D22*
X6269908Y18816600D02*
D03*

G04 c7.c(1)*
%LPD*%
D22*
X3513764Y16785355D02*
D03*

G04 c7.a(2)*
%LPD*%
D22*
X3803764Y16785355D02*
D03*

M02*