G04 project-name*
%FSLAX35Y35*%
%MOMM*%
G04 din.i0+(1)*
%LPD*%
%ADD10C,3*%
D10*
X9590644Y11742853D02*
D03*

G04 din.i0-(3)*
%LPD*%
D10*
X10098644Y11742853D02*
D03*

G04 din.i1+(5)*
%LPD*%
D10*
X10606644Y11742853D02*
D03*

G04 din.i1-(7)*
%LPD*%
D10*
X11114644Y11742853D02*
D03*

G04 din.i0+(2)*
%LPD*%
D10*
X9590644Y12504853D02*
D03*

G04 din.i0-(4)*
%LPD*%
D10*
X10098644Y12504853D02*
D03*

G04 din.i1+(6)*
%LPD*%
D10*
X10606644Y12504853D02*
D03*

G04 din.i1-(8)*
%LPD*%
D10*
X11114644Y12504853D02*
D03*

G04 p_in.gnd(1)*
%LPD*%
D10*
X1872644Y19781853D02*
D03*

G04 p_in.vin(3)*
%LPD*%
D10*
X1364644Y19781853D02*
D03*

G04 p_in.gnd(2)*
%LPD*%
D10*
X1872644Y19019853D02*
D03*

G04 p_in.vin(4)*
%LPD*%
D10*
X1364644Y19019853D02*
D03*

G04 dout.q1c(1)*
%LPD*%
D10*
X11114644Y19781853D02*
D03*

G04 dout.q1e(3)*
%LPD*%
D10*
X10606644Y19781853D02*
D03*

G04 dout.q0c(5)*
%LPD*%
D10*
X10098644Y19781853D02*
D03*

G04 dout.q0e(7)*
%LPD*%
D10*
X9590644Y19781853D02*
D03*

G04 dout.q1c(2)*
%LPD*%
D10*
X11114644Y19019853D02*
D03*

G04 dout.q1e(4)*
%LPD*%
D10*
X10606644Y19019853D02*
D03*

G04 dout.q0c(6)*
%LPD*%
D10*
X10098644Y19019853D02*
D03*

G04 dout.q0e(8)*
%LPD*%
D10*
X9590644Y19019853D02*
D03*

G04 d2.t3.c(1)*
%LPD*%
%ADD11R,1.72X1.88*%
D11*
X5446272Y18572509D02*
D03*

G04 d2.t3.a(2)*
%LPD*%
D11*
X5070272Y18572509D02*
D03*

G04 d2.t1.c(1)*
%LPD*%
D11*
X5745093Y18308747D02*
D03*

G04 d2.t1.a(2)*
%LPD*%
D11*
X5369093Y18308747D02*
D03*

G04 q1.d_rev.c(1)*
%LPD*%
%ADD12R,1.88X1.72*%
D12*
X11619945Y18442537D02*
D03*

G04 q1.d_rev.a(2)*
%LPD*%
D12*
X11619945Y18066537D02*
D03*

G04 q0.d_rev.c(1)*
%LPD*%
D12*
X9430630Y18211537D02*
D03*

G04 q0.d_rev.a(2)*
%LPD*%
D12*
X9430630Y18587537D02*
D03*

G04 c1.out1(1)*
%LPD*%
%ADD13R,2.2X0.8*%
D13*
X5761711Y13824998D02*
D03*

G04 c1.in1-(2)*
%LPD*%
D13*
X5761711Y13697998D02*
D03*

G04 c1.in1+(3)*
%LPD*%
D13*
X5761711Y13570998D02*
D03*

G04 c1.vcc(4)*
%LPD*%
D13*
X5761711Y13443998D02*
D03*

G04 c1.in2+(5)*
%LPD*%
D13*
X5761711Y13316998D02*
D03*

G04 c1.in2-(6)*
%LPD*%
D13*
X5761711Y13189998D02*
D03*

G04 c1.out2(7)*
%LPD*%
D13*
X5761711Y13062998D02*
D03*

G04 c1.out4(14)*
%LPD*%
D13*
X5221711Y13824998D02*
D03*

G04 c1.in4-(13)*
%LPD*%
D13*
X5221711Y13697998D02*
D03*

G04 c1.in4+(12)*
%LPD*%
D13*
X5221711Y13570998D02*
D03*

G04 c1.vee(11)*
%LPD*%
D13*
X5221711Y13443998D02*
D03*

G04 c1.in3+(10)*
%LPD*%
D13*
X5221711Y13316998D02*
D03*

G04 c1.in3-(9)*
%LPD*%
D13*
X5221711Y13189998D02*
D03*

G04 c1.out3(8)*
%LPD*%
D13*
X5221711Y13062998D02*
D03*

G04 d2.c_bypass.c(1)*
%LPD*%
%ADD14R,1.1X1.8*%
D14*
X6085232Y17256821D02*
D03*

G04 d2.c_bypass.a(2)*
%LPD*%
D14*
X5795232Y17256821D02*
D03*

G04 d2.c4.c(1)*
%LPD*%
%ADD15R,1.8X1.1*%
D15*
X7055080Y17652774D02*
D03*

G04 d2.c4.a(2)*
%LPD*%
D15*
X7055080Y17362774D02*
D03*

G04 d2.c3.c(1)*
%LPD*%
D15*
X5940232Y17499339D02*
D03*

G04 d2.c3.a(2)*
%LPD*%
D15*
X5940232Y17789339D02*
D03*

G04 d2.c2.c(1)*
%LPD*%
D15*
X6509226Y18439321D02*
D03*

G04 d2.c2.a(2)*
%LPD*%
D15*
X6509226Y18149321D02*
D03*

G04 d2.c1.c(1)*
%LPD*%
D14*
X6306550Y18173707D02*
D03*

G04 d2.c1.a(2)*
%LPD*%
D14*
X6016550Y18173707D02*
D03*

G04 c5.C2.c(1)*
%LPD*%
D14*
X5366251Y14120843D02*
D03*

G04 c5.C2.a(2)*
%LPD*%
D14*
X5656251Y14120843D02*
D03*

G04 c5.C1.c(1)*
%LPD*%
D14*
X5366251Y14399047D02*
D03*

G04 c5.C1.a(2)*
%LPD*%
D14*
X5656251Y14399047D02*
D03*

G04 c6.c(1)*
%LPD*%
D14*
X5065584Y14120843D02*
D03*

G04 c6.a(2)*
%LPD*%
D14*
X4775584Y14120843D02*
D03*

G04 d2.r4.1(1)*
%LPD*%
D15*
X7571829Y18635211D02*
D03*

G04 d2.r4.2(2)*
%LPD*%
D15*
X7571829Y18925211D02*
D03*

G04 p1.tvs.c(1)*
%LPD*%
D11*
X1430644Y18619177D02*
D03*

G04 p1.tvs.a(2)*
%LPD*%
D11*
X1806644Y18619177D02*
D03*

G04 sp.nc(1)*
%LPD*%
%ADD16C,2.3*%
D16*
X7400644Y19414728D02*
D03*

G04 sp.tx(2)*
%LPD*%
D16*
X7126644Y19414728D02*
D03*

G04 sp.rx(3)*
%LPD*%
D16*
X6852644Y19414728D02*
D03*

G04 sp.nc(4)*
%LPD*%
D16*
X6578644Y19414728D02*
D03*

G04 sp.gnd(5)*
%LPD*%
D16*
X6304644Y19414728D02*
D03*

G04 sp.tx2(6)*
%LPD*%
D16*
X7263644Y19130728D02*
D03*

G04 sp.rx2(7)*
%LPD*%
D16*
X6989644Y19130728D02*
D03*

G04 sp.nc(8)*
%LPD*%
D16*
X6715644Y19130728D02*
D03*

G04 sp.gnd(9)*
%LPD*%
D16*
X6441644Y19130728D02*
D03*

G04 sp.S(S)*
%LPD*%
%ADD17C,5.4*%
D17*
X8102144Y19272728D02*
D03*

G04 sp.S(S)*
%LPD*%
D17*
X5603144Y19272728D02*
D03*

G04 l.red(1)*
%LPD*%
D16*
X7400644Y12394018D02*
D03*

G04 l.pwm(2)*
%LPD*%
D16*
X7126644Y12394018D02*
D03*

G04 l.en(3)*
%LPD*%
D16*
X6852644Y12394018D02*
D03*

G04 l.pctl(4)*
%LPD*%
D16*
X6578644Y12394018D02*
D03*

G04 l.gnd(5)*
%LPD*%
D16*
X6304644Y12394018D02*
D03*

G04 l.ready(6)*
%LPD*%
D16*
X7263644Y12110018D02*
D03*

G04 l.reset(7)*
%LPD*%
D16*
X6989644Y12110018D02*
D03*

G04 l.alarm(8)*
%LPD*%
D16*
X6715644Y12110018D02*
D03*

G04 l.nc(9)*
%LPD*%
D16*
X6441644Y12110018D02*
D03*

G04 l.S(S)*
%LPD*%
D17*
X8102144Y12252018D02*
D03*

G04 l.S(S)*
%LPD*%
D17*
X5603144Y12252018D02*
D03*

G04 g.clk-(1)*
%LPD*%
D16*
X3711644Y12394018D02*
D03*

G04 g.sync-(2)*
%LPD*%
D16*
X3437644Y12394018D02*
D03*

G04 g.x-(3)*
%LPD*%
D16*
X3163644Y12394018D02*
D03*

G04 g.y-(4)*
%LPD*%
D16*
X2889644Y12394018D02*
D03*

G04 g.y_stat-(5)*
%LPD*%
D16*
X2615644Y12394018D02*
D03*

G04 g.x_stat-(6)*
%LPD*%
D16*
X2341644Y12394018D02*
D03*

G04 g.nc(7)*
%LPD*%
D16*
X2067644Y12394018D02*
D03*

G04 g.nc(8)*
%LPD*%
D16*
X1793644Y12394018D02*
D03*

G04 g.clk+(9)*
%LPD*%
D16*
X3574644Y12110018D02*
D03*

G04 g.sync+(10)*
%LPD*%
D16*
X3300644Y12110018D02*
D03*

G04 g.x+(11)*
%LPD*%
D16*
X3026644Y12110018D02*
D03*

G04 g.y+(12)*
%LPD*%
D16*
X2752644Y12110018D02*
D03*

G04 g.y_stat+(13)*
%LPD*%
D16*
X2478644Y12110018D02*
D03*

G04 g.x_stat+(14)*
%LPD*%
D16*
X2204644Y12110018D02*
D03*

G04 g.nc(15)*
%LPD*%
D16*
X1930644Y12110018D02*
D03*

G04 g.S(S)*
%LPD*%
D17*
X4418644Y12252018D02*
D03*

G04 g.S(S)*
%LPD*%
D17*
X1086644Y12252018D02*
D03*

G04 r.1(1)*
%LPD*%
%ADD18C,1.9*%
D18*
X6164803Y13700163D02*
D03*

G04 r.2(2)*
%LPD*%
D18*
X6164803Y13950163D02*
D03*

G04 r.3(3)*
%LPD*%
D18*
X6164803Y14200163D02*
D03*

G04 debug.nrst(1)*
%LPD*%
%ADD19C,2.29*%
D19*
X4010216Y19272728D02*
D03*

G04 debug.swdio(2)*
%LPD*%
D19*
X3756216Y19272728D02*
D03*

G04 debug.gnd(3)*
%LPD*%
D19*
X3502216Y19272728D02*
D03*

G04 debug.swclk(4)*
%LPD*%
D19*
X3248216Y19272728D02*
D03*

G04 __b4.(undefined)*
%LPD*%
%ADD20C,6.6000000000000005*%
D20*
X8702644Y19497353D02*
D03*

G04 __b5.(undefined)*
%LPD*%
D20*
X8702644Y12027393D02*
D03*

G04 __b6.(undefined)*
%LPD*%
D20*
X502644Y12027393D02*
D03*

G04 __b1.(undefined)*
%LPD*%
D20*
X502644Y19497353D02*
D03*

G04 __b2.(undefined)*
%LPD*%
D20*
X12002644Y19497353D02*
D03*

G04 __b3.(undefined)*
%LPD*%
D20*
X5002644Y19497353D02*
D03*

G04 __b7.(undefined)*
%LPD*%
D20*
X12002644Y12027393D02*
D03*

G04 __b8.(undefined)*
%LPD*%
D20*
X5002644Y12027393D02*
D03*

G04 r2.1(1)*
%LPD*%
D14*
X6963509Y14979182D02*
D03*

G04 r2.2(2)*
%LPD*%
D14*
X6673509Y14979182D02*
D03*

G04 r3.1(1)*
%LPD*%
D14*
X6963509Y14678282D02*
D03*

G04 r3.2(2)*
%LPD*%
D14*
X6673509Y14678282D02*
D03*

G04 r4.1(1)*
%LPD*%
D15*
X7647696Y13716828D02*
D03*

G04 r4.2(2)*
%LPD*%
D15*
X7647696Y13426828D02*
D03*

G04 q0.d_in.c(1)*
%LPD*%
D15*
X10309086Y18399537D02*
D03*

G04 q0.d_in.a(2)*
%LPD*%
D15*
X10309086Y18689537D02*
D03*

G04 q1.d_in.c(1)*
%LPD*%
D15*
X11330348Y18399537D02*
D03*

G04 q1.d_in.a(2)*
%LPD*%
D15*
X11330348Y18689537D02*
D03*

G04 d2.m.C1+(1)*
%LPD*%
%ADD21R,0.65X1.7*%
D21*
X6268217Y17805807D02*
D03*

G04 d2.m.V+(2)*
%LPD*%
D21*
X6333217Y17805807D02*
D03*

G04 d2.m.C1-(3)*
%LPD*%
D21*
X6398217Y17805807D02*
D03*

G04 d2.m.C2+(4)*
%LPD*%
D21*
X6463217Y17805807D02*
D03*

G04 d2.m.C2-(5)*
%LPD*%
D21*
X6528217Y17805807D02*
D03*

G04 d2.m.V-(6)*
%LPD*%
D21*
X6593217Y17805807D02*
D03*

G04 d2.m.DOUT2(7)*
%LPD*%
D21*
X6658217Y17805807D02*
D03*

G04 d2.m.RIN2(8)*
%LPD*%
D21*
X6723217Y17805807D02*
D03*

G04 d2.m.VCC(16)*
%LPD*%
D21*
X6268217Y17225807D02*
D03*

G04 d2.m.GND(15)*
%LPD*%
D21*
X6333217Y17225807D02*
D03*

G04 d2.m.DOUT1(14)*
%LPD*%
D21*
X6398217Y17225807D02*
D03*

G04 d2.m.RIN1(13)*
%LPD*%
D21*
X6463217Y17225807D02*
D03*

G04 d2.m.ROUT1(12)*
%LPD*%
D21*
X6528217Y17225807D02*
D03*

G04 d2.m.DIN1(11)*
%LPD*%
D21*
X6593217Y17225807D02*
D03*

G04 d2.m.DIN2(10)*
%LPD*%
D21*
X6658217Y17225807D02*
D03*

G04 d2.m.ROUT2(9)*
%LPD*%
D21*
X6723217Y17225807D02*
D03*

G04 q0.opto.a(1)*
%LPD*%
%ADD22R,1.7X1.5*%
D22*
X9971644Y17644537D02*
D03*

G04 q0.opto.ca(2)*
%LPD*%
D22*
X9717644Y17644537D02*
D03*

G04 q0.opto.co(4)*
%LPD*%
D22*
X9971644Y18544537D02*
D03*

G04 q0.opto.e(3)*
%LPD*%
D22*
X9717644Y18544537D02*
D03*

G04 q1.opto.a(1)*
%LPD*%
D22*
X10987644Y17644537D02*
D03*

G04 q1.opto.ca(2)*
%LPD*%
D22*
X10733644Y17644537D02*
D03*

G04 q1.opto.co(4)*
%LPD*%
D22*
X10987644Y18544537D02*
D03*

G04 q1.opto.e(3)*
%LPD*%
D22*
X10733644Y18544537D02*
D03*

G04 c4.PA15(1)*
%LPD*%
%ADD23R,1.7X4.2*%
D23*
X2740216Y18806435D02*
D03*

G04 c4.VDD_OK(2)*
%LPD*%
D23*
X2994216Y18806435D02*
D03*

G04 c4.SWCLK(3)*
%LPD*%
D23*
X3248216Y18806435D02*
D03*

G04 c4.GND(4)*
%LPD*%
D23*
X3502216Y18806435D02*
D03*

G04 c4.SWDIO(5)*
%LPD*%
D23*
X3756216Y18806435D02*
D03*

G04 c4.NRST(6)*
%LPD*%
D23*
X4010216Y18806435D02*
D03*

G04 d.c1.1a(1)*
%LPD*%
%ADD24R,1.75X0.8*%
D24*
X3684994Y13941036D02*
D03*

G04 d.c1.1y(2)*
%LPD*%
D24*
X3684994Y13814036D02*
D03*

G04 d.c1.1z(3)*
%LPD*%
D24*
X3684994Y13687036D02*
D03*

G04 d.c1.g(4)*
%LPD*%
D24*
X3684994Y13560036D02*
D03*

G04 d.c1.2z(5)*
%LPD*%
D24*
X3684994Y13433036D02*
D03*

G04 d.c1.2y(6)*
%LPD*%
D24*
X3684994Y13306036D02*
D03*

G04 d.c1.2a(7)*
%LPD*%
D24*
X3684994Y13179036D02*
D03*

G04 d.c1.gnd(8)*
%LPD*%
D24*
X3684994Y13052036D02*
D03*

G04 d.c1.vcc(16)*
%LPD*%
D24*
X3144994Y13941036D02*
D03*

G04 d.c1.4a(15)*
%LPD*%
D24*
X3144994Y13814036D02*
D03*

G04 d.c1.4y(14)*
%LPD*%
D24*
X3144994Y13687036D02*
D03*

G04 d.c1.4z(13)*
%LPD*%
D24*
X3144994Y13560036D02*
D03*

G04 d.c1.n_g(12)*
%LPD*%
D24*
X3144994Y13433036D02*
D03*

G04 d.c1.3z(11)*
%LPD*%
D24*
X3144994Y13306036D02*
D03*

G04 d.c1.3y(10)*
%LPD*%
D24*
X3144994Y13179036D02*
D03*

G04 d.c1.3a(9)*
%LPD*%
D24*
X3144994Y13052036D02*
D03*

G04 d3.oe1'(1)*
%LPD*%
D21*
X6661124Y13578106D02*
D03*

G04 d3.i0(2)*
%LPD*%
D21*
X6726125Y13578106D02*
D03*

G04 d3.q4(3)*
%LPD*%
D21*
X6791124Y13578106D02*
D03*

G04 d3.i1(4)*
%LPD*%
D21*
X6856124Y13578106D02*
D03*

G04 d3.q5(5)*
%LPD*%
D21*
X6921125Y13578106D02*
D03*

G04 d3.i2(6)*
%LPD*%
D21*
X6986125Y13578106D02*
D03*

G04 d3.q6(7)*
%LPD*%
D21*
X7051124Y13578106D02*
D03*

G04 d3.i3(8)*
%LPD*%
D21*
X7116124Y13578106D02*
D03*

G04 d3.q7(9)*
%LPD*%
D21*
X7181125Y13578106D02*
D03*

G04 d3.gnd(10)*
%LPD*%
D21*
X7246124Y13578106D02*
D03*

G04 d3.vcc(20)*
%LPD*%
D21*
X6661124Y12998106D02*
D03*

G04 d3.oe2'(19)*
%LPD*%
D21*
X6726125Y12998106D02*
D03*

G04 d3.q0(18)*
%LPD*%
D21*
X6791124Y12998106D02*
D03*

G04 d3.i4(17)*
%LPD*%
D21*
X6856124Y12998106D02*
D03*

G04 d3.q1(16)*
%LPD*%
D21*
X6921125Y12998106D02*
D03*

G04 d3.i5(15)*
%LPD*%
D21*
X6986125Y12998106D02*
D03*

G04 d3.q2(14)*
%LPD*%
D21*
X7051124Y12998106D02*
D03*

G04 d3.i6(13)*
%LPD*%
D21*
X7116124Y12998106D02*
D03*

G04 d3.q3(12)*
%LPD*%
D21*
X7181125Y12998106D02*
D03*

G04 d3.i7(11)*
%LPD*%
D21*
X7246124Y12998106D02*
D03*

G04 d.c2.c(1)*
%LPD*%
D14*
X3558458Y14214743D02*
D03*

G04 d.c2.a(2)*
%LPD*%
D14*
X3268458Y14214743D02*
D03*

G04 c3.NRST(41)*
%LPD*%
%ADD25R,4.2X1.7*%
D25*
X1970232Y13382064D02*
D03*

G04 c3.PC1(43)*
%LPD*%
D25*
X1970232Y13636064D02*
D03*

G04 c3.PC3(45)*
%LPD*%
D25*
X1970232Y13890064D02*
D03*

G04 c3.PA1(47)*
%LPD*%
D25*
X1970232Y14144064D02*
D03*

G04 c3.PA3(49)*
%LPD*%
D25*
X1970232Y14398064D02*
D03*

G04 c3.PA5(51)*
%LPD*%
D25*
X1970232Y14652064D02*
D03*

G04 c3.PA7(53)*
%LPD*%
D25*
X1970232Y14906064D02*
D03*

G04 c3.PC5(55)*
%LPD*%
D25*
X1970232Y15160064D02*
D03*

G04 c3.PB1(57)*
%LPD*%
D25*
X1970232Y15414064D02*
D03*

G04 c3.PE7(59)*
%LPD*%
D25*
X1970232Y15668064D02*
D03*

G04 c3.PE9(61)*
%LPD*%
D25*
X1970232Y15922064D02*
D03*

G04 c3.PE11(63)*
%LPD*%
D25*
X1970232Y16176064D02*
D03*

G04 c3.PE13(65)*
%LPD*%
D25*
X1970232Y16430064D02*
D03*

G04 c3.PE15(67)*
%LPD*%
D25*
X1970232Y16684064D02*
D03*

G04 c3.PB11(69)*
%LPD*%
D25*
X1970232Y16938064D02*
D03*

G04 c3.PB13(71)*
%LPD*%
D25*
X1970232Y17192064D02*
D03*

G04 c3.PB15(73)*
%LPD*%
D25*
X1970232Y17446064D02*
D03*

G04 c3.PD9(75)*
%LPD*%
D25*
X1970232Y17700064D02*
D03*

G04 c3.PD11(77)*
%LPD*%
D25*
X1970232Y17954064D02*
D03*

G04 c3.PD13(79)*
%LPD*%
D25*
X1970232Y18208064D02*
D03*

G04 c3.PC0(42)*
%LPD*%
D25*
X1416232Y13382064D02*
D03*

G04 c3.PC2(44)*
%LPD*%
D25*
X1416232Y13636064D02*
D03*

G04 c3.PA0(46)*
%LPD*%
D25*
X1416232Y13890064D02*
D03*

G04 c3.PA2(48)*
%LPD*%
D25*
X1416232Y14144064D02*
D03*

G04 c3.PA4(50)*
%LPD*%
D25*
X1416232Y14398064D02*
D03*

G04 c3.PA6(52)*
%LPD*%
D25*
X1416232Y14652064D02*
D03*

G04 c3.PC4(54)*
%LPD*%
D25*
X1416232Y14906064D02*
D03*

G04 c3.PB0(56)*
%LPD*%
D25*
X1416232Y15160064D02*
D03*

G04 c3.PB2(58)*
%LPD*%
D25*
X1416232Y15414064D02*
D03*

G04 c3.PE8(60)*
%LPD*%
D25*
X1416232Y15668064D02*
D03*

G04 c3.PE10(62)*
%LPD*%
D25*
X1416232Y15922064D02*
D03*

G04 c3.PE12(64)*
%LPD*%
D25*
X1416232Y16176064D02*
D03*

G04 c3.PE14(66)*
%LPD*%
D25*
X1416232Y16430064D02*
D03*

G04 c3.PB10(68)*
%LPD*%
D25*
X1416232Y16684064D02*
D03*

G04 c3.PB12(70)*
%LPD*%
D25*
X1416232Y16938064D02*
D03*

G04 c3.PB14(72)*
%LPD*%
D25*
X1416232Y17192064D02*
D03*

G04 c3.PD8(74)*
%LPD*%
D25*
X1416232Y17446064D02*
D03*

G04 c3.PD10(76)*
%LPD*%
D25*
X1416232Y17700064D02*
D03*

G04 c3.PD12(78)*
%LPD*%
D25*
X1416232Y17954064D02*
D03*

G04 c3.PD14(80)*
%LPD*%
D25*
X1416232Y18208064D02*
D03*

G04 c3.PC15(1)*
%LPD*%
D25*
X8251232Y13382064D02*
D03*

G04 c3.PC13(3)*
%LPD*%
D25*
X8251232Y13636064D02*
D03*

G04 c3.PE5(5)*
%LPD*%
D25*
X8251232Y13890064D02*
D03*

G04 c3.PE3(7)*
%LPD*%
D25*
X8251232Y14144064D02*
D03*

G04 c3.PE1(9)*
%LPD*%
D25*
X8251232Y14398064D02*
D03*

G04 c3.PB9(11)*
%LPD*%
D25*
X8251232Y14652064D02*
D03*

G04 c3.PB7(13)*
%LPD*%
D25*
X8251232Y14906064D02*
D03*

G04 c3.PB5(15)*
%LPD*%
D25*
X8251232Y15160064D02*
D03*

G04 c3.PB3(17)*
%LPD*%
D25*
X8251232Y15414064D02*
D03*

G04 c3.PD6(19)*
%LPD*%
D25*
X8251232Y15668064D02*
D03*

G04 c3.PD4(21)*
%LPD*%
D25*
X8251232Y15922064D02*
D03*

G04 c3.PD2(23)*
%LPD*%
D25*
X8251232Y16176064D02*
D03*

G04 c3.PD0(25)*
%LPD*%
D25*
X8251232Y16430064D02*
D03*

G04 c3.PC11(27)*
%LPD*%
D25*
X8251232Y16684064D02*
D03*

G04 c3.VCC(29)*
%LPD*%
D25*
X8251232Y16938064D02*
D03*

G04 c3.PA12(31)*
%LPD*%
D25*
X8251232Y17192064D02*
D03*

G04 c3.PA10(33)*
%LPD*%
D25*
X8251232Y17446064D02*
D03*

G04 c3.PA8(35)*
%LPD*%
D25*
X8251232Y17700064D02*
D03*

G04 c3.PC8(37)*
%LPD*%
D25*
X8251232Y17954064D02*
D03*

G04 c3.PC6(39)*
%LPD*%
D25*
X8251232Y18208064D02*
D03*

G04 c3.PC14(2)*
%LPD*%
D25*
X8805232Y13382064D02*
D03*

G04 c3.PE6(4)*
%LPD*%
D25*
X8805232Y13636064D02*
D03*

G04 c3.PE4(6)*
%LPD*%
D25*
X8805232Y13890064D02*
D03*

G04 c3.PE2(8)*
%LPD*%
D25*
X8805232Y14144064D02*
D03*

G04 c3.PE0(10)*
%LPD*%
D25*
X8805232Y14398064D02*
D03*

G04 c3.PB8(12)*
%LPD*%
D25*
X8805232Y14652064D02*
D03*

G04 c3.PB6(14)*
%LPD*%
D25*
X8805232Y14906064D02*
D03*

G04 c3.PB4(16)*
%LPD*%
D25*
X8805232Y15160064D02*
D03*

G04 c3.PD7(18)*
%LPD*%
D25*
X8805232Y15414064D02*
D03*

G04 c3.PD5(20)*
%LPD*%
D25*
X8805232Y15668064D02*
D03*

G04 c3.PD3(22)*
%LPD*%
D25*
X8805232Y15922064D02*
D03*

G04 c3.PD1(24)*
%LPD*%
D25*
X8805232Y16176064D02*
D03*

G04 c3.PC12(26)*
%LPD*%
D25*
X8805232Y16430064D02*
D03*

G04 c3.PC10(28)*
%LPD*%
D25*
X8805232Y16684064D02*
D03*

G04 c3.GND(30)*
%LPD*%
D25*
X8805232Y16938064D02*
D03*

G04 c3.PA11(32)*
%LPD*%
D25*
X8805232Y17192064D02*
D03*

G04 c3.PA9(34)*
%LPD*%
D25*
X8805232Y17446064D02*
D03*

G04 c3.PC9(36)*
%LPD*%
D25*
X8805232Y17700064D02*
D03*

G04 c3.PC7(38)*
%LPD*%
D25*
X8805232Y17954064D02*
D03*

G04 c3.PD15(40)*
%LPD*%
D25*
X8805232Y18208064D02*
D03*

G04 q0.R2.1(1)*
%LPD*%
D14*
X9989644Y17127709D02*
D03*

G04 q0.R2.2(2)*
%LPD*%
D14*
X9699644Y17127709D02*
D03*

G04 q1.R2.1(1)*
%LPD*%
D14*
X11005644Y17127709D02*
D03*

G04 q1.R2.2(2)*
%LPD*%
D14*
X10715644Y17127709D02*
D03*

G04 r1.1(1)*
%LPD*%
D14*
X5065584Y14399047D02*
D03*

G04 r1.2(2)*
%LPD*%
D14*
X4775584Y14399047D02*
D03*

G04 d2.r1.1(1)*
%LPD*%
D14*
X5868735Y18561252D02*
D03*

G04 d2.r1.2(2)*
%LPD*%
D14*
X6158735Y18561252D02*
D03*

G04 d2.r2.1(1)*
%LPD*%
D15*
X7263644Y18635211D02*
D03*

G04 d2.r2.2(2)*
%LPD*%
D15*
X7263644Y18925211D02*
D03*

G04 d2.r3.1(1)*
%LPD*%
D14*
X5979908Y18816600D02*
D03*

G04 d2.r3.2(2)*
%LPD*%
D14*
X6269908Y18816600D02*
D03*

G04 c7.c(1)*
%LPD*%
D14*
X3513764Y16785355D02*
D03*

G04 c7.a(2)*
%LPD*%
D14*
X3803764Y16785355D02*
D03*

M02*