M48
FMAT,2
METRIC,TZ
T11C1.2
T21C0.9
T31C3.1
T41C0.6
T51C3.0
T01C0.5
%
G90
G05
M71
T11
X95.90644Y117.42853
X100.98644Y117.42853
X106.06644Y117.42853
X111.14644Y117.42853
X95.90644Y125.04853
X100.98644Y125.04853
X106.06644Y125.04853
X111.14644Y125.04853
X18.72644Y197.81853
X13.64644Y197.81853
X18.72644Y190.19853
X13.64644Y190.19853
X111.14644Y197.81853
X106.06644Y197.81853
X100.98644Y197.81853
X95.90644Y197.81853
X111.14644Y190.19853
X106.06644Y190.19853
X100.98644Y190.19853
X95.90644Y190.19853
T21
X74.00644Y194.14728
X71.26644Y194.14728
X68.52644Y194.14728
X65.78644Y194.14728
X63.04644Y194.14728
X72.63644Y191.30728
X69.89644Y191.30728
X67.15644Y191.30728
X64.41644Y191.30728
X74.00644Y123.94018
X71.26644Y123.94018
X68.52644Y123.94018
X65.78644Y123.94018
X63.04644Y123.94018
X72.63644Y121.10018
X69.89644Y121.10018
X67.15644Y121.10018
X64.41644Y121.10018
X37.11644Y123.94018
X34.37644Y123.94018
X31.63644Y123.94018
X28.89644Y123.94018
X26.15644Y123.94018
X23.41644Y123.94018
X20.67644Y123.94018
X17.93644Y123.94018
X35.74644Y121.10018
X33.00644Y121.10018
X30.26644Y121.10018
X27.52644Y121.10018
X24.78644Y121.10018
X22.04644Y121.10018
X19.30644Y121.10018
X40.10216Y192.72728
X37.56216Y192.72728
X35.02216Y192.72728
X32.48216Y192.72728
T31
X81.02144Y192.72728
X56.03144Y192.72728
X81.02144Y122.52018
X56.03144Y122.52018
X44.18644Y122.52018
X10.86644Y122.52018
T41
X61.64803Y137.00163
X61.64803Y139.50163
X61.64803Y142.00163
T51
X87.02644Y194.97353
X87.02644Y120.27393
X5.02644Y120.27393
X5.02644Y194.97353
X120.02644Y194.97353
X50.02644Y194.97353
X120.02644Y120.27393
X50.02644Y120.27393
T01
X91.92524Y127.28185
X93.57087Y166.83577
X65.10841Y135.41603
X64.62768Y131.71509
X41.74099Y145.88801
X40.08598Y167.85355
X102.19009Y137.11717
X20.13681Y185.68735
X104.49756Y137.05539
X50.42333Y187.40122
X77.16781Y169.40893
X104.47808Y172.01047
X96.87919Y162.19611
X105.60738Y174.46245
X5.47682Y132.08866
X45.32369Y130.80585
X38.74767Y146.1664
X24.33941Y130.16938
X31.76638Y128.99193
X8.60371Y129.00263
X35.83051Y128.56418
X32.24767Y144.35883
X95.47077Y174.68863
X94.35859Y172.10103
X92.29958Y173.72936
X93.41051Y156.4935
X105.30002Y155.27406
X65.67043Y139.3545
X56.77914Y174.98428
X54.109Y153.53352
X52.20178Y172.27873
X9.92568Y184.64957
X75.60936Y184.78738
X69.84739Y185.24595
X113.64698Y131.46875
M30