G04 project-name*
%FSLAX35Y35*%
%MOMM*%
G04 undefined.(undefined)*
%LPD*%
%ADD10C,1.500*%
D10*
X9192524Y12728185D02*
D03*

%ADD11C,0.5*%
%LPD*%
D11*
X9192524Y12728185D02*
G01*
X9192524Y12966991D01*
X9252160Y13026627D01*
X9427776Y13026627D01*

%LPD*%
D11*
X11005644Y16337112D02*
G01*
X11005644Y15997548D01*
X10991137Y15983041D01*

%LPD*%
D11*
X10388996Y16876341D02*
G01*
X10245008Y16876341D01*
X10229451Y16891898D01*
%ADD12C,1*%
%LPD*%
D12*
X318920Y18601344D02*
G01*
X191095Y18601344D01*
X151112Y18561362D01*
X151112Y17772655D01*
X295546Y17628221D01*
X712143Y17628221D01*
%ADD13C,0.6*%
%LPD*%
D13*
X2346252Y18089992D02*
G01*
X2581376Y18089992D01*
X2691414Y17979954D01*

%LPD*%
D12*
X8879532Y17628221D02*
G01*
X8879532Y17851291D01*
X8729534Y18001288D01*
X5070151Y18001288D01*
X4917763Y17848900D01*
X4917763Y17628221D01*
G04 undefined.(undefined)*
%LPD*%
%ADD14C,1.50*%
D14*
X9357087Y16683577D02*
D03*


%LPD*%
D11*
X9590340Y16851919D02*
G01*
X9590340Y16709815D01*
X9508044Y16627520D01*
X9413144Y16627520D01*
X9357087Y16683577D01*
G04 undefined.(undefined)*
%LPD*%
D14*
X6510841Y13541603D02*
D03*

G04 undefined.(undefined)*
%LPD*%
D14*
X6462768Y13171509D02*
D03*


%LPD*%
D12*
X7119532Y17628221D02*
G01*
X7119532Y17628221D01*
X6515776Y17024465D01*
X3761519Y17024465D01*
X3157763Y17628221D01*

%LPD*%
D12*
X3761519Y17024465D02*
G01*
X1034220Y17024465D01*
X712143Y17346541D01*
X712143Y17628221D01*

%LPD*%
D12*
X5070151Y18001288D02*
G01*
X2610695Y18001288D01*
X2472143Y17862737D01*
X2472143Y17628221D01*

%LPD*%
D13*
X1747644Y18089992D02*
G01*
X2035661Y18089992D01*

%LPD*%
D12*
X400801Y18225344D02*
G01*
X669182Y18225344D01*

%LPD*%
D12*
X684076Y18225344D02*
G01*
X684076Y18108104D01*
X851366Y17940815D01*
X1086005Y17940815D01*
X1398599Y17628221D01*
X2472143Y17628221D01*

%LPD*%
D11*
X9878462Y16876341D02*
G01*
X10089122Y16876341D01*

%LPD*%
D11*
X11005644Y16627112D02*
G01*
X11005644Y16861948D01*
G04 undefined.(undefined)*
%LPD*%
D14*
X4174099Y14588801D02*
D03*

G04 undefined.(undefined)*
%LPD*%
D14*
X4008598Y16785355D02*
D03*


%LPD*%
D11*
X4174099Y14588801D02*
G01*
X4174099Y16619854D01*
X4008598Y16785355D01*
G04 undefined.(undefined)*
%LPD*%
D10*
X10219009Y13711717D02*
D03*


%LPD*%
D11*
X10219009Y13711717D02*
G01*
X10219009Y13099424D01*
X10179198Y13066481D01*
X10098644Y13066481D01*
G04 din.i0+(1)*
%LPD*%
%ADD15C,2.6*%
D15*
X9590644Y11742853D02*
D03*

G04 din.i0-(3)*
%LPD*%
D15*
X10098644Y11742853D02*
D03*

G04 din.i1+(5)*
%LPD*%
D15*
X10606644Y11742853D02*
D03*

G04 din.i1-(7)*
%LPD*%
D15*
X11114644Y11742853D02*
D03*

G04 din.i0+(2)*
%LPD*%
D15*
X9590644Y12504853D02*
D03*

G04 din.i0-(4)*
%LPD*%
D15*
X10098644Y12504853D02*
D03*

G04 din.i1+(6)*
%LPD*%
D15*
X10606644Y12504853D02*
D03*

G04 din.i1-(8)*
%LPD*%
D15*
X11114644Y12504853D02*
D03*

G04 p_in.gnd(1)*
%LPD*%
D15*
X1872644Y19781853D02*
D03*

G04 p_in.vin(3)*
%LPD*%
D15*
X1364644Y19781853D02*
D03*

G04 p_in.gnd(2)*
%LPD*%
D15*
X1872644Y19019853D02*
D03*

G04 p_in.vin(4)*
%LPD*%
D15*
X1364644Y19019853D02*
D03*

G04 dout.q1c(1)*
%LPD*%
D15*
X11114644Y19781853D02*
D03*

G04 dout.q1e(3)*
%LPD*%
D15*
X10606644Y19781853D02*
D03*

G04 dout.q0c(5)*
%LPD*%
D15*
X10098644Y19781853D02*
D03*

G04 dout.q0e(7)*
%LPD*%
D15*
X9590644Y19781853D02*
D03*

G04 dout.q1c(2)*
%LPD*%
D15*
X11114644Y19019853D02*
D03*

G04 dout.q1e(4)*
%LPD*%
D15*
X10606644Y19019853D02*
D03*

G04 dout.q0c(6)*
%LPD*%
D15*
X10098644Y19019853D02*
D03*

G04 dout.q0e(8)*
%LPD*%
D15*
X9590644Y19019853D02*
D03*

G04 q1.c1.R2.1(1)*
%LPD*%
%ADD16R,1.6X0.9*%
D16*
X11005644Y16627112D02*
D03*

G04 q1.c1.R2.2(2)*
%LPD*%
D16*
X11005644Y16337112D02*
D03*

G04 q0.c1.R2.1(1)*
%LPD*%
%ADD17R,0.9X1.6*%
D17*
X10098996Y16876341D02*
D03*

G04 q0.c1.R2.2(2)*
%LPD*%
D17*
X10388996Y16876341D02*
D03*

G04 sp.nc(1)*
%LPD*%
%ADD18C,1.9*%
D18*
X7400644Y19414728D02*
D03*

G04 sp.tx(2)*
%LPD*%
D18*
X7126644Y19414728D02*
D03*

G04 sp.rx(3)*
%LPD*%
D18*
X6852644Y19414728D02*
D03*

G04 sp.nc(4)*
%LPD*%
D18*
X6578644Y19414728D02*
D03*

G04 sp.gnd(5)*
%LPD*%
D18*
X6304644Y19414728D02*
D03*

G04 sp.tx2(6)*
%LPD*%
D18*
X7263644Y19130728D02*
D03*

G04 sp.rx2(7)*
%LPD*%
D18*
X6989644Y19130728D02*
D03*

G04 sp.nc(8)*
%LPD*%
D18*
X6715644Y19130728D02*
D03*

G04 sp.gnd(9)*
%LPD*%
D18*
X6441644Y19130728D02*
D03*

G04 sp.S(S)*
%LPD*%
%ADD19C,5*%
D19*
X8102144Y19272728D02*
D03*

G04 sp.S(S)*
%LPD*%
D19*
X5603144Y19272728D02*
D03*

G04 l.red(1)*
%LPD*%
D18*
X7400644Y12394018D02*
D03*

G04 l.pwm(2)*
%LPD*%
D18*
X7126644Y12394018D02*
D03*

G04 l.en(3)*
%LPD*%
D18*
X6852644Y12394018D02*
D03*

G04 l.pctl(4)*
%LPD*%
D18*
X6578644Y12394018D02*
D03*

G04 l.gnd(5)*
%LPD*%
D18*
X6304644Y12394018D02*
D03*

G04 l.ready(6)*
%LPD*%
D18*
X7263644Y12110018D02*
D03*

G04 l.reset(7)*
%LPD*%
D18*
X6989644Y12110018D02*
D03*

G04 l.alarm(8)*
%LPD*%
D18*
X6715644Y12110018D02*
D03*

G04 l.nc(9)*
%LPD*%
D18*
X6441644Y12110018D02*
D03*

G04 l.S(S)*
%LPD*%
D19*
X8102144Y12252018D02*
D03*

G04 l.S(S)*
%LPD*%
D19*
X5603144Y12252018D02*
D03*

G04 g.clk-(1)*
%LPD*%
D18*
X3711644Y12394018D02*
D03*

G04 g.sync-(2)*
%LPD*%
D18*
X3437644Y12394018D02*
D03*

G04 g.x-(3)*
%LPD*%
D18*
X3163644Y12394018D02*
D03*

G04 g.y-(4)*
%LPD*%
D18*
X2889644Y12394018D02*
D03*

G04 g.y_stat-(5)*
%LPD*%
D18*
X2615644Y12394018D02*
D03*

G04 g.x_stat-(6)*
%LPD*%
D18*
X2341644Y12394018D02*
D03*

G04 g.nc(7)*
%LPD*%
D18*
X2067644Y12394018D02*
D03*

G04 g.nc(8)*
%LPD*%
D18*
X1793644Y12394018D02*
D03*

G04 g.clk+(9)*
%LPD*%
D18*
X3574644Y12110018D02*
D03*

G04 g.sync+(10)*
%LPD*%
D18*
X3300644Y12110018D02*
D03*

G04 g.x+(11)*
%LPD*%
D18*
X3026644Y12110018D02*
D03*

G04 g.y+(12)*
%LPD*%
D18*
X2752644Y12110018D02*
D03*

G04 g.y_stat+(13)*
%LPD*%
D18*
X2478644Y12110018D02*
D03*

G04 g.x_stat+(14)*
%LPD*%
D18*
X2204644Y12110018D02*
D03*

G04 g.nc(15)*
%LPD*%
D18*
X1930644Y12110018D02*
D03*

G04 g.S(S)*
%LPD*%
D19*
X4418644Y12252018D02*
D03*

G04 g.S(S)*
%LPD*%
D19*
X1086644Y12252018D02*
D03*

G04 pin_led.r.1(1)*
%LPD*%
D17*
X2346252Y18089992D02*
D03*

G04 pin_led.r.2(2)*
%LPD*%
D17*
X2056252Y18089992D02*
D03*

G04 pin_led.led.c(1)*
%LPD*%
D17*
X1457644Y18089992D02*
D03*

G04 pin_led.led.a(2)*
%LPD*%
D17*
X1747644Y18089992D02*
D03*

G04 p1.rev.c(1)*
%LPD*%
%ADD20R,1.68X1.52*%
D20*
X356361Y18225344D02*
D03*

G04 p1.rev.a(2)*
%LPD*%
D20*
X356361Y18601344D02*
D03*

G04 p1.in.c(1)*
%LPD*%
D20*
X686925Y18225344D02*
D03*

G04 p1.in.a(2)*
%LPD*%
D20*
X686925Y18601344D02*
D03*

G04 q0.c1.Q1.c(3)*
%LPD*%
%ADD21R,0.9X0.7*%
D21*
X9744644Y17283960D02*
D03*

G04 q0.c1.Q1.e(2)*
%LPD*%
D21*
X9944645Y17378960D02*
D03*

G04 q0.c1.Q1.b(1)*
%LPD*%
D21*
X9944645Y17188960D02*
D03*

G04 q1.c1.Q1.c(3)*
%LPD*%
D21*
X10760644Y17283960D02*
D03*

G04 q1.c1.Q1.e(2)*
%LPD*%
D21*
X10960645Y17378960D02*
D03*

G04 q1.c1.Q1.b(1)*
%LPD*%
D21*
X10960645Y17188960D02*
D03*


%LPD*%
D11*
X1457644Y18089992D02*
G01*
X1457644Y18664153D01*
X1471035Y18677544D01*
G04 undefined.(undefined)*
%LPD*%
D10*
X2013681Y18568735D02*
D03*

%ADD22C,1.5*%
%LPD*%
D22*
X2013681Y18568735D02*
G01*
X1884640Y18568735D01*
X1792468Y18660907D01*
%ADD23C,1.8*%
%LPD*%
D23*
X191095Y18601344D02*
G01*
X191095Y18780697D01*
X327458Y18917060D01*
X1028977Y18917060D01*
X1319341Y18626695D01*
X1833164Y18626695D01*

%LPD*%
D22*
X3874767Y14616640D02*
G01*
X3874767Y14641338D01*
X3822108Y14693997D01*
X1255114Y14693997D01*
X1146169Y14585053D01*
G04 undefined.(undefined)*
%LPD*%
D10*
X10449756Y13705539D02*
D03*


%LPD*%
D11*
X10449756Y13705539D02*
G01*
X10449756Y13625917D01*
X10320844Y13497006D01*
X10320844Y13087277D01*
X10381495Y13026627D01*
X10485905Y13026627D01*
G04 undefined.(undefined)*
%LPD*%
D10*
X5042333Y18740122D02*
D03*

%ADD24C,0.7*%
%LPD*%
D24*
X6401284Y18486722D02*
G01*
X5295733Y18486722D01*
X5042333Y18740122D01*

%LPD*%
D13*
X7261378Y13284760D02*
G01*
X7977446Y13284760D01*

%LPD*%
D11*
X2869953Y13924643D02*
G01*
X3081715Y13924643D01*
X3224767Y14067695D01*
X3224767Y14435883D01*

%LPD*%
D11*
X10485905Y13316627D02*
G01*
X10485905Y13495563D01*
X10517695Y13527353D01*
X10715644Y13527353D01*

%LPD*%
D11*
X9427776Y13316627D02*
G01*
X9654160Y13316627D01*
X9722644Y13248142D01*
X9722644Y13066481D01*

%LPD*%
D11*
X6462768Y13171509D02*
G01*
X6462768Y13068114D01*
X6543062Y12987820D01*
%ADD25C,1.1*%
%LPD*%
D25*
X3118587Y13377448D02*
G01*
X5512222Y13377448D01*
X5875832Y13013837D01*
X6979433Y13013837D01*
X7119532Y13153936D01*
X7119532Y13648220D01*

%LPD*%
D11*
X9699644Y13527353D02*
G01*
X9534310Y13527353D01*
X9427776Y13420818D01*
X9427776Y13316627D01*

%LPD*%
D11*
X11023644Y13951169D02*
G01*
X11023644Y13760201D01*
X11005644Y13742201D01*
X11005644Y13527353D01*

%LPD*%
D11*
X9971644Y14283383D02*
G01*
X10062127Y14283383D01*
X10162812Y14182698D01*
X10162812Y13303760D01*
X10098644Y13239592D01*
X10098644Y13066481D01*

%LPD*%
D11*
X9717644Y14283383D02*
G01*
X9717644Y14000186D01*

%LPD*%
D11*
X9045807Y15871485D02*
G01*
X9964530Y15871485D01*
X10101059Y15734956D01*

%LPD*%
D11*
X11005644Y15464653D02*
G01*
X11005644Y15664821D01*
X10927649Y15742816D01*
X10090496Y15742816D01*
X9989644Y15641964D01*
X9989644Y15464653D01*

%LPD*%
D11*
X10987644Y15183383D02*
G01*
X11136123Y15183383D01*
X11261663Y15308924D01*
X11261663Y15872913D01*
X11139720Y15994857D01*
X10961885Y15994857D01*
X10926318Y16030423D01*

%LPD*%
D11*
X9300248Y16013842D02*
G01*
X9300248Y16109060D01*
X9841381Y16650192D01*
X10143723Y16650192D01*
X10235466Y16741936D01*
X10235466Y17272507D01*
X10129013Y17378960D01*
X9944645Y17378960D01*

%LPD*%
D11*
X7716781Y16940893D02*
G01*
X9037986Y16940893D01*
X9307197Y17210103D01*
X9435859Y17210103D01*
G04 undefined.(undefined)*
%LPD*%
D14*
X7716781Y16940893D02*
D03*


%LPD*%
D12*
X5288510Y14512623D02*
G01*
X7716781Y16940893D01*
G04 undefined.(undefined)*
%LPD*%
D14*
X10447808Y17201047D02*
D03*


%LPD*%
D11*
X10447808Y17201047D02*
G01*
X10447808Y17236877D01*
X10423755Y17260929D01*
X10423755Y17575103D01*
X10532384Y17683732D01*
X10715644Y17683732D01*

%LPD*%
D11*
X10715644Y15464653D02*
G01*
X10715644Y15326557D01*
X10733644Y15308557D01*
X10733644Y15183383D01*

%LPD*%
D11*
X9699644Y18089992D02*
G01*
X9699644Y17967734D01*
X9836875Y17830503D01*
X9836875Y17549768D01*
X9755970Y17468863D01*
X9547077Y17468863D01*

%LPD*%
D11*
X11005644Y18089992D02*
G01*
X11005644Y17757343D01*
G04 undefined.(undefined)*
%LPD*%
D14*
X9687919Y16219611D02*
D03*


%LPD*%
D11*
X10715644Y16876341D02*
G01*
X10715644Y16679077D01*
X10563149Y16526582D01*
X9994889Y16526582D01*
X9687919Y16219611D01*
G04 undefined.(undefined)*
%LPD*%
D14*
X10560738Y17446245D02*
D03*


%LPD*%
D11*
X10760644Y17283960D02*
G01*
X10760644Y17373013D01*
X10687505Y17446153D01*
X10560829Y17446153D01*
X10560738Y17446245D01*

%LPD*%
D11*
X9744644Y17283960D02*
G01*
X9744644Y17370905D01*
X9649098Y17466452D01*
G04 undefined.(undefined)*
%LPD*%
D14*
X547682Y13208866D02*
D03*

%ADD26C,0.4*%
%LPD*%
D26*
X4532369Y13080585D02*
G01*
X3449286Y13080585D01*
X3296691Y13233179D01*
X571995Y13233179D01*
X547682Y13208866D01*
G04 undefined.(undefined)*
%LPD*%
D14*
X4532369Y13080585D02*
D03*

G04 undefined.(undefined)*
%LPD*%
D14*
X3874767Y14616640D02*
D03*


%LPD*%
D26*
X3874767Y14616640D02*
G01*
X1259572Y14616640D01*
X712143Y14069211D01*
X712143Y13648220D01*
G04 undefined.(undefined)*
%LPD*%
D14*
X2433941Y13016938D02*
D03*

G04 undefined.(undefined)*
%LPD*%
D14*
X3176638Y12899193D02*
D03*


%LPD*%
D26*
X2433941Y13016938D02*
G01*
X3058892Y13016938D01*
X3176638Y12899193D01*
G04 undefined.(undefined)*
%LPD*%
D14*
X860371Y12900263D02*
D03*

G04 undefined.(undefined)*
%LPD*%
D14*
X3583051Y12856418D02*
D03*


%LPD*%
D26*
X860371Y12900263D02*
G01*
X860371Y12832339D01*
X909593Y12781592D01*
X3008581Y12781592D01*
X3072574Y12717599D01*
X3444232Y12717599D01*
X3583051Y12856418D01*
G04 undefined.(undefined)*
%LPD*%
D14*
X3224767Y14435883D02*
D03*


%LPD*%
D26*
X3224767Y14435883D02*
G01*
X3214569Y14435883D01*

%LPD*%
D11*
X9880469Y16876341D02*
G01*
X9880469Y16989742D01*
X9944645Y17062815D01*
X9944645Y17188960D01*
G04 undefined.(undefined)*
%LPD*%
D14*
X9547077Y17468863D02*
D03*


%LPD*%
D11*
X9649098Y17466452D02*
G01*
X9549488Y17466452D01*
X9547077Y17468863D01*

%LPD*%
D11*
X10960645Y17188960D02*
G01*
X10960645Y17071239D01*
X11005644Y17026239D01*
X11005644Y16876341D01*

%LPD*%
D11*
X10715644Y18089992D02*
G01*
X10715644Y17943037D01*
X10841047Y17817634D01*
X10841047Y17553017D01*
X10734276Y17446245D01*
X10560738Y17446245D01*

%LPD*%
D11*
X9989644Y18089992D02*
G01*
X9989644Y17734015D01*

%LPD*%
D11*
X9699644Y15464653D02*
G01*
X9699644Y15353463D01*
X9717644Y15335463D01*
X9717644Y15183383D01*
G04 undefined.(undefined)*
%LPD*%
D14*
X9435859Y17210103D02*
D03*


%LPD*%
D11*
X9435859Y17210103D02*
G01*
X9435859Y17248019D01*
X9390361Y17293517D01*
X9390361Y17623378D01*
X9450715Y17683732D01*
X9699644Y17683732D01*
G04 undefined.(undefined)*
%LPD*%
D14*
X9229958Y17372936D02*
D03*


%LPD*%
D12*
X3157763Y13648220D02*
G01*
X4036839Y13648220D01*
X7624368Y17235749D01*
X9092772Y17235749D01*
X9229958Y17372936D01*

%LPD*%
D12*
X7119532Y13648220D02*
G01*
X7119532Y14298220D01*
X8835153Y16013842D01*
X10988586Y16013842D01*
X11390074Y16415329D01*
X11390074Y17296882D01*

%LPD*%
D11*
X11390074Y17296882D02*
G01*
X11390074Y17306549D01*
X11317663Y17378960D01*
X10960645Y17378960D01*
G04 undefined.(undefined)*
%LPD*%
D14*
X9341051Y15649350D02*
D03*


%LPD*%
D11*
X9699644Y15464653D02*
G01*
X9525748Y15464653D01*
X9341051Y15649350D01*
G04 undefined.(undefined)*
%LPD*%
D14*
X10530002Y15527406D02*
D03*


%LPD*%
D11*
X10715644Y15464653D02*
G01*
X10592755Y15464653D01*
X10530002Y15527406D01*

%LPD*%
D11*
X7716781Y16940893D02*
G01*
X7716781Y16663459D01*
X8218754Y16161485D01*
X9045807Y16161485D01*

%LPD*%
D11*
X9971644Y15183383D02*
G01*
X9971644Y15023352D01*
X9893016Y14944724D01*
X8606114Y14944724D01*
X8177147Y15373691D01*

%LPD*%
D11*
X10733644Y14283383D02*
G01*
X10733644Y13950719D01*

%LPD*%
D11*
X10987644Y14283383D02*
G01*
X11133501Y14283383D01*
X11228906Y14187978D01*
X11228906Y13367304D01*
X11120184Y13258582D01*
X11120184Y13060941D01*
X11114644Y13066481D01*

%LPD*%
D11*
X10007644Y13951169D02*
G01*
X10007644Y13752126D01*
X9989644Y13734126D01*
X9989644Y13527353D01*

%LPD*%
D25*
X712143Y13648220D02*
G01*
X712143Y13456047D01*
X790742Y13377448D01*
X3118587Y13377448D01*
X3157763Y13416624D01*
X3157763Y13648220D01*

%LPD*%
D11*
X6510841Y13541603D02*
G01*
X6510841Y13541603D01*
X6380710Y13411471D01*
X5948066Y13411471D01*
X5464776Y13894761D01*
X5274381Y13894761D01*

%LPD*%
D12*
X5288510Y14512623D02*
G01*
X5288510Y13898946D01*

%LPD*%
D11*
X10485905Y13316627D02*
G01*
X10670929Y13316627D01*
X10738644Y13248912D01*
X10738644Y13066481D01*
G04 undefined.(undefined)*
%LPD*%
D14*
X6567043Y13935450D02*
D03*


%LPD*%
D13*
X6971378Y13284760D02*
G01*
X6833732Y13284760D01*
X6778790Y13339703D01*
X6778790Y13723702D01*
X6567043Y13935450D01*
G04 undefined.(undefined)*
%LPD*%
D14*
X5677914Y17498428D02*
D03*


%LPD*%
D26*
X5677914Y17498428D02*
G01*
X6653158Y17498428D01*
X6843911Y17307675D01*
G04 undefined.(undefined)*
%LPD*%
D14*
X5410900Y15353352D02*
D03*


%LPD*%
D11*
X5410900Y15353352D02*
G01*
X5573901Y15353352D01*
X5680787Y15246465D01*
G04 undefined.(undefined)*
%LPD*%
D14*
X5220178Y17227873D02*
D03*


%LPD*%
D11*
X5220178Y17227873D02*
G01*
X5220178Y17039767D01*
X5257800Y17002146D01*

%LPD*%
D11*
X2472143Y13648220D02*
G01*
X2472143Y13822225D01*
X2577005Y13927087D01*
X2757440Y13927087D01*

%LPD*%
D13*
X8103721Y13284760D02*
G01*
X8719889Y13284760D01*
X8879532Y13444403D01*
X8879532Y13648220D01*

%LPD*%
D12*
X5286383Y13783668D02*
G01*
X5286383Y13688959D01*
X5245645Y13648220D01*
X4917763Y13648220D01*
G04 undefined.(undefined)*
%LPD*%
D10*
X992568Y18464957D02*
D03*

%ADD27C,2*%
%LPD*%
D27*
X992568Y18464957D02*
G01*
X992568Y18504641D01*
X895865Y18601344D01*
X686925Y18601344D01*
G04 undefined.(undefined)*
%LPD*%
D10*
X7560936Y18478738D02*
D03*


%LPD*%
D11*
X7482148Y18285814D02*
G01*
X7482148Y18399950D01*
X7560936Y18478738D01*
G04 undefined.(undefined)*
%LPD*%
D10*
X6984739Y18524595D02*
D03*


%LPD*%
D11*
X6777284Y18486722D02*
G01*
X6946866Y18486722D01*
X6984739Y18524595D01*

%LPD*%
D24*
X7106148Y18285814D02*
G01*
X6465638Y18285814D01*
X6401284Y18350168D01*
X6401284Y18486722D01*
G04 undefined.(undefined)*
%LPD*%
D10*
X11364698Y13146875D02*
D03*


%LPD*%
D11*
X11364698Y13146875D02*
G01*
X11358460Y13146875D01*
X11278066Y13066481D01*
X11114644Y13066481D01*

%LPD*%
D22*
X712143Y13648220D02*
G01*
X712143Y14142168D01*
X1171512Y14601537D01*
G04 t3.1(1)*
%LPD*%
%ADD28R,1X2*%
D28*
X7993721Y13284760D02*
D03*

G04 t3.1(2)*
%LPD*%
D28*
X8103721Y13284760D02*
D03*

G04 t2.1(1)*
%LPD*%
%ADD29R,2X1*%
D29*
X5286383Y13893668D02*
D03*

G04 t2.1(2)*
%LPD*%
D29*
X5286383Y13783668D02*
D03*

G04 t1.1(1)*
%LPD*%
D28*
X2759953Y13924643D02*
D03*

G04 t1.1(2)*
%LPD*%
D28*
X2869953Y13924643D02*
D03*

G04 r.1(1)*
%LPD*%
D22*
X6164803Y13700163D02*
D03*

G04 r.2(2)*
%LPD*%
D22*
X6164803Y13950163D02*
D03*

G04 r.3(3)*
%LPD*%
D22*
X6164803Y14200163D02*
D03*

G04 i0.R1.1(1)*
%LPD*%
D16*
X9427776Y13026627D02*
D03*

G04 i0.R1.2(2)*
%LPD*%
D16*
X9427776Y13316627D02*
D03*

G04 i0.R2.1(1)*
%LPD*%
D17*
X10007644Y13951169D02*
D03*

G04 i0.R2.2(2)*
%LPD*%
D17*
X9717644Y13951169D02*
D03*

G04 i0.R3.1(1)*
%LPD*%
D17*
X9989644Y15464653D02*
D03*

G04 i0.R3.2(2)*
%LPD*%
D17*
X9699644Y15464653D02*
D03*

G04 q0.c1.R1.1(1)*
%LPD*%
D17*
X9878462Y16876341D02*
D03*

G04 q0.c1.R1.2(2)*
%LPD*%
D17*
X9588462Y16876341D02*
D03*

G04 q0.l.c(1)*
%LPD*%
D17*
X9699644Y18089992D02*
D03*

G04 q0.l.a(2)*
%LPD*%
D17*
X9989644Y18089992D02*
D03*

G04 q0.R1.1(1)*
%LPD*%
D17*
X9989644Y17683732D02*
D03*

G04 q0.R1.2(2)*
%LPD*%
D17*
X9699644Y17683732D02*
D03*

G04 q1.c1.R1.1(1)*
%LPD*%
D17*
X11005644Y16876341D02*
D03*

G04 q1.c1.R1.2(2)*
%LPD*%
D17*
X10715644Y16876341D02*
D03*

G04 q1.l.c(1)*
%LPD*%
D17*
X10715644Y18089992D02*
D03*

G04 q1.l.a(2)*
%LPD*%
D17*
X11005644Y18089992D02*
D03*

G04 q1.R1.1(1)*
%LPD*%
D17*
X11005644Y17683732D02*
D03*

G04 q1.R1.2(2)*
%LPD*%
D17*
X10715644Y17683732D02*
D03*

G04 debug.nrst(1)*
%LPD*%
%ADD30C,1.89*%
D30*
X4010216Y19272728D02*
D03*

G04 debug.swdio(2)*
%LPD*%
D30*
X3756216Y19272728D02*
D03*

G04 debug.gnd(3)*
%LPD*%
D30*
X3502216Y19272728D02*
D03*

G04 debug.swclk(4)*
%LPD*%
D30*
X3248216Y19272728D02*
D03*

G04 i0.opto.a(1)*
%LPD*%
%ADD31R,1.5X1.3*%
D31*
X9717644Y14283383D02*
D03*

G04 i0.opto.ca(2)*
%LPD*%
D31*
X9971644Y14283383D02*
D03*

G04 i0.opto.co(4)*
%LPD*%
D31*
X9717644Y15183383D02*
D03*

G04 i0.opto.e(3)*
%LPD*%
D31*
X9971644Y15183383D02*
D03*

G04 i0.D1.c(1)*
%LPD*%
%ADD32R,1.52X1.68*%
D32*
X9722644Y13066481D02*
D03*

G04 i0.D1.a(2)*
%LPD*%
D32*
X10098644Y13066481D02*
D03*

G04 i1.R1.1(1)*
%LPD*%
D16*
X10485905Y13026627D02*
D03*

G04 i1.R1.2(2)*
%LPD*%
D16*
X10485905Y13316627D02*
D03*

G04 i1.R2.1(1)*
%LPD*%
D17*
X11023644Y13951169D02*
D03*

G04 i1.R2.2(2)*
%LPD*%
D17*
X10733644Y13951169D02*
D03*

G04 i1.R3.1(1)*
%LPD*%
D17*
X11005644Y15464653D02*
D03*

G04 i1.R3.2(2)*
%LPD*%
D17*
X10715644Y15464653D02*
D03*

G04 i1.opto.a(1)*
%LPD*%
D31*
X10733644Y14283383D02*
D03*

G04 i1.opto.ca(2)*
%LPD*%
D31*
X10987644Y14283383D02*
D03*

G04 i1.opto.co(4)*
%LPD*%
D31*
X10733644Y15183383D02*
D03*

G04 i1.opto.e(3)*
%LPD*%
D31*
X10987644Y15183383D02*
D03*

G04 i1.D1.c(1)*
%LPD*%
D32*
X10738644Y13066481D02*
D03*

G04 i1.D1.a(2)*
%LPD*%
D32*
X11114644Y13066481D02*
D03*

G04 __b4.(undefined)*
%LPD*%
%ADD33C,6.2*%
D33*
X8702644Y19497353D02*
D03*

G04 __b5.(undefined)*
%LPD*%
D33*
X8702644Y12027393D02*
D03*

G04 __b6.(undefined)*
%LPD*%
D33*
X502644Y12027393D02*
D03*

G04 __b1.(undefined)*
%LPD*%
D33*
X502644Y19497353D02*
D03*

G04 __b2.(undefined)*
%LPD*%
D33*
X12002644Y19497353D02*
D03*

G04 __b3.(undefined)*
%LPD*%
D33*
X5002644Y19497353D02*
D03*

G04 __b7.(undefined)*
%LPD*%
D33*
X12002644Y12027393D02*
D03*

G04 __b8.(undefined)*
%LPD*%
D33*
X5002644Y12027393D02*
D03*

G04 i0.led.c(1)*
%LPD*%
D17*
X9989644Y13527353D02*
D03*

G04 i0.led.a(2)*
%LPD*%
D17*
X9699644Y13527353D02*
D03*

G04 i1.led.c(1)*
%LPD*%
D17*
X11005644Y13527353D02*
D03*

G04 i1.led.a(2)*
%LPD*%
D17*
X10715644Y13527353D02*
D03*

G04 j1.1(1)*
%LPD*%
D16*
X9045807Y16161485D02*
D03*

G04 j1.1(2)*
%LPD*%
D16*
X9045807Y15871485D02*
D03*

G04 j2.1(1)*
%LPD*%
D17*
X6971378Y13284760D02*
D03*

G04 j2.1(2)*
%LPD*%
D17*
X7261378Y13284760D02*
D03*

G04 p5.in+(1)*
%LPD*%
%ADD34R,3X3*%
D34*
X2472143Y17628221D02*
D03*

G04 p5.in-(2)*
%LPD*%
D34*
X712143Y17628221D02*
D03*

G04 p5.out+(4)*
%LPD*%
D34*
X2472143Y13648220D02*
D03*

G04 p5.out-(3)*
%LPD*%
D34*
X712143Y13648220D02*
D03*

G04 p3.in+(1)*
%LPD*%
D34*
X4917763Y17628221D02*
D03*

G04 p3.in-(2)*
%LPD*%
D34*
X3157763Y17628221D02*
D03*

G04 p3.out+(4)*
%LPD*%
D34*
X4917763Y13648220D02*
D03*

G04 p3.out-(3)*
%LPD*%
D34*
X3157763Y13648220D02*
D03*

G04 p4.in+(1)*
%LPD*%
D34*
X8879532Y17628221D02*
D03*

G04 p4.in-(2)*
%LPD*%
D34*
X7119532Y17628221D02*
D03*

G04 p4.out+(4)*
%LPD*%
D34*
X8879532Y13648220D02*
D03*

G04 p4.out-(3)*
%LPD*%
D34*
X7119532Y13648220D02*
D03*

G04 d2.t2.c(1)*
%LPD*%
D32*
X6777284Y18486722D02*
D03*

G04 d2.t2.a(2)*
%LPD*%
D32*
X6401284Y18486722D02*
D03*

G04 d2.t4.c(1)*
%LPD*%
D32*
X7482148Y18285814D02*
D03*

G04 d2.t4.a(2)*
%LPD*%
D32*
X7106148Y18285814D02*
D03*

M02*