G04 project-name*
%FSLAX35Y35*%
%MOMM*%
G04 din.i0+(1)*
%LPD*%
%ADD10C,3*%
D10*
X9590644Y11742853D02*
D03*

G04 din.i0-(3)*
%LPD*%
D10*
X10098644Y11742853D02*
D03*

G04 din.i1+(5)*
%LPD*%
D10*
X10606644Y11742853D02*
D03*

G04 din.i1-(7)*
%LPD*%
D10*
X11114644Y11742853D02*
D03*

G04 din.i0+(2)*
%LPD*%
D10*
X9590644Y12504853D02*
D03*

G04 din.i0-(4)*
%LPD*%
D10*
X10098644Y12504853D02*
D03*

G04 din.i1+(6)*
%LPD*%
D10*
X10606644Y12504853D02*
D03*

G04 din.i1-(8)*
%LPD*%
D10*
X11114644Y12504853D02*
D03*

G04 p_in.gnd(1)*
%LPD*%
D10*
X1872644Y19781853D02*
D03*

G04 p_in.vin(3)*
%LPD*%
D10*
X1364644Y19781853D02*
D03*

G04 p_in.gnd(2)*
%LPD*%
D10*
X1872644Y19019853D02*
D03*

G04 p_in.vin(4)*
%LPD*%
D10*
X1364644Y19019853D02*
D03*

G04 dout.q1c(1)*
%LPD*%
D10*
X11114644Y19781853D02*
D03*

G04 dout.q1e(3)*
%LPD*%
D10*
X10606644Y19781853D02*
D03*

G04 dout.q0c(5)*
%LPD*%
D10*
X10098644Y19781853D02*
D03*

G04 dout.q0e(7)*
%LPD*%
D10*
X9590644Y19781853D02*
D03*

G04 dout.q1c(2)*
%LPD*%
D10*
X11114644Y19019853D02*
D03*

G04 dout.q1e(4)*
%LPD*%
D10*
X10606644Y19019853D02*
D03*

G04 dout.q0c(6)*
%LPD*%
D10*
X10098644Y19019853D02*
D03*

G04 dout.q0e(8)*
%LPD*%
D10*
X9590644Y19019853D02*
D03*

G04 q1.c1.R2.1(1)*
%LPD*%
%ADD11R,1.8X1.1*%
D11*
X11005644Y16627112D02*
D03*

G04 q1.c1.R2.2(2)*
%LPD*%
D11*
X11005644Y16337112D02*
D03*

G04 q0.c1.R2.1(1)*
%LPD*%
%ADD12R,1.1X1.8*%
D12*
X10098996Y16876341D02*
D03*

G04 q0.c1.R2.2(2)*
%LPD*%
D12*
X10388996Y16876341D02*
D03*

G04 sp.nc(1)*
%LPD*%
%ADD13C,2.3*%
D13*
X7400644Y19414728D02*
D03*

G04 sp.tx(2)*
%LPD*%
D13*
X7126644Y19414728D02*
D03*

G04 sp.rx(3)*
%LPD*%
D13*
X6852644Y19414728D02*
D03*

G04 sp.nc(4)*
%LPD*%
D13*
X6578644Y19414728D02*
D03*

G04 sp.gnd(5)*
%LPD*%
D13*
X6304644Y19414728D02*
D03*

G04 sp.tx2(6)*
%LPD*%
D13*
X7263644Y19130728D02*
D03*

G04 sp.rx2(7)*
%LPD*%
D13*
X6989644Y19130728D02*
D03*

G04 sp.nc(8)*
%LPD*%
D13*
X6715644Y19130728D02*
D03*

G04 sp.gnd(9)*
%LPD*%
D13*
X6441644Y19130728D02*
D03*

G04 sp.S(S)*
%LPD*%
%ADD14C,5.4*%
D14*
X8102144Y19272728D02*
D03*

G04 sp.S(S)*
%LPD*%
D14*
X5603144Y19272728D02*
D03*

G04 l.red(1)*
%LPD*%
D13*
X7400644Y12394018D02*
D03*

G04 l.pwm(2)*
%LPD*%
D13*
X7126644Y12394018D02*
D03*

G04 l.en(3)*
%LPD*%
D13*
X6852644Y12394018D02*
D03*

G04 l.pctl(4)*
%LPD*%
D13*
X6578644Y12394018D02*
D03*

G04 l.gnd(5)*
%LPD*%
D13*
X6304644Y12394018D02*
D03*

G04 l.ready(6)*
%LPD*%
D13*
X7263644Y12110018D02*
D03*

G04 l.reset(7)*
%LPD*%
D13*
X6989644Y12110018D02*
D03*

G04 l.alarm(8)*
%LPD*%
D13*
X6715644Y12110018D02*
D03*

G04 l.nc(9)*
%LPD*%
D13*
X6441644Y12110018D02*
D03*

G04 l.S(S)*
%LPD*%
D14*
X8102144Y12252018D02*
D03*

G04 l.S(S)*
%LPD*%
D14*
X5603144Y12252018D02*
D03*

G04 g.clk-(1)*
%LPD*%
D13*
X3711644Y12394018D02*
D03*

G04 g.sync-(2)*
%LPD*%
D13*
X3437644Y12394018D02*
D03*

G04 g.x-(3)*
%LPD*%
D13*
X3163644Y12394018D02*
D03*

G04 g.y-(4)*
%LPD*%
D13*
X2889644Y12394018D02*
D03*

G04 g.y_stat-(5)*
%LPD*%
D13*
X2615644Y12394018D02*
D03*

G04 g.x_stat-(6)*
%LPD*%
D13*
X2341644Y12394018D02*
D03*

G04 g.nc(7)*
%LPD*%
D13*
X2067644Y12394018D02*
D03*

G04 g.nc(8)*
%LPD*%
D13*
X1793644Y12394018D02*
D03*

G04 g.clk+(9)*
%LPD*%
D13*
X3574644Y12110018D02*
D03*

G04 g.sync+(10)*
%LPD*%
D13*
X3300644Y12110018D02*
D03*

G04 g.x+(11)*
%LPD*%
D13*
X3026644Y12110018D02*
D03*

G04 g.y+(12)*
%LPD*%
D13*
X2752644Y12110018D02*
D03*

G04 g.y_stat+(13)*
%LPD*%
D13*
X2478644Y12110018D02*
D03*

G04 g.x_stat+(14)*
%LPD*%
D13*
X2204644Y12110018D02*
D03*

G04 g.nc(15)*
%LPD*%
D13*
X1930644Y12110018D02*
D03*

G04 g.S(S)*
%LPD*%
D14*
X4418644Y12252018D02*
D03*

G04 g.S(S)*
%LPD*%
D14*
X1086644Y12252018D02*
D03*

G04 pin_led.r.1(1)*
%LPD*%
D12*
X2346252Y18089992D02*
D03*

G04 pin_led.r.2(2)*
%LPD*%
D12*
X2056252Y18089992D02*
D03*

G04 pin_led.led.c(1)*
%LPD*%
D12*
X1457644Y18089992D02*
D03*

G04 pin_led.led.a(2)*
%LPD*%
D12*
X1747644Y18089992D02*
D03*

G04 p1.rev.c(1)*
%LPD*%
%ADD15R,1.88X1.72*%
D15*
X356361Y18225344D02*
D03*

G04 p1.rev.a(2)*
%LPD*%
D15*
X356361Y18601344D02*
D03*

G04 p1.in.c(1)*
%LPD*%
D15*
X686925Y18225344D02*
D03*

G04 p1.in.a(2)*
%LPD*%
D15*
X686925Y18601344D02*
D03*

G04 q0.c1.Q1.c(3)*
%LPD*%
%ADD16R,1.1X0.8999999999999999*%
D16*
X9744644Y17283960D02*
D03*

G04 q0.c1.Q1.e(2)*
%LPD*%
D16*
X9944645Y17378960D02*
D03*

G04 q0.c1.Q1.b(1)*
%LPD*%
D16*
X9944645Y17188960D02*
D03*

G04 q1.c1.Q1.c(3)*
%LPD*%
D16*
X10760644Y17283960D02*
D03*

G04 q1.c1.Q1.e(2)*
%LPD*%
D16*
X10960645Y17378960D02*
D03*

G04 q1.c1.Q1.b(1)*
%LPD*%
D16*
X10960645Y17188960D02*
D03*

G04 t3.1(1)*
%LPD*%
%ADD17R,1.2X2.2*%
D17*
X7993721Y13284760D02*
D03*

G04 t3.1(2)*
%LPD*%
D17*
X8103721Y13284760D02*
D03*

G04 t2.1(1)*
%LPD*%
%ADD18R,2.2X1.2*%
D18*
X5286383Y13893668D02*
D03*

G04 t2.1(2)*
%LPD*%
D18*
X5286383Y13783668D02*
D03*

G04 t1.1(1)*
%LPD*%
D17*
X2759953Y13924643D02*
D03*

G04 t1.1(2)*
%LPD*%
D17*
X2869953Y13924643D02*
D03*

G04 r.1(1)*
%LPD*%
%ADD19C,1.9*%
D19*
X6164803Y13700163D02*
D03*

G04 r.2(2)*
%LPD*%
D19*
X6164803Y13950163D02*
D03*

G04 r.3(3)*
%LPD*%
D19*
X6164803Y14200163D02*
D03*

G04 i0.R1.1(1)*
%LPD*%
D11*
X9427776Y13026627D02*
D03*

G04 i0.R1.2(2)*
%LPD*%
D11*
X9427776Y13316627D02*
D03*

G04 i0.R2.1(1)*
%LPD*%
D12*
X10007644Y13951169D02*
D03*

G04 i0.R2.2(2)*
%LPD*%
D12*
X9717644Y13951169D02*
D03*

G04 i0.R3.1(1)*
%LPD*%
D12*
X9989644Y15464653D02*
D03*

G04 i0.R3.2(2)*
%LPD*%
D12*
X9699644Y15464653D02*
D03*

G04 q0.c1.R1.1(1)*
%LPD*%
D12*
X9878462Y16876341D02*
D03*

G04 q0.c1.R1.2(2)*
%LPD*%
D12*
X9588462Y16876341D02*
D03*

G04 q0.l.c(1)*
%LPD*%
D12*
X9699644Y18089992D02*
D03*

G04 q0.l.a(2)*
%LPD*%
D12*
X9989644Y18089992D02*
D03*

G04 q0.R1.1(1)*
%LPD*%
D12*
X9989644Y17683732D02*
D03*

G04 q0.R1.2(2)*
%LPD*%
D12*
X9699644Y17683732D02*
D03*

G04 q1.c1.R1.1(1)*
%LPD*%
D12*
X11005644Y16876341D02*
D03*

G04 q1.c1.R1.2(2)*
%LPD*%
D12*
X10715644Y16876341D02*
D03*

G04 q1.l.c(1)*
%LPD*%
D12*
X10715644Y18089992D02*
D03*

G04 q1.l.a(2)*
%LPD*%
D12*
X11005644Y18089992D02*
D03*

G04 q1.R1.1(1)*
%LPD*%
D12*
X11005644Y17683732D02*
D03*

G04 q1.R1.2(2)*
%LPD*%
D12*
X10715644Y17683732D02*
D03*

G04 debug.nrst(1)*
%LPD*%
%ADD20C,2.29*%
D20*
X4010216Y19272728D02*
D03*

G04 debug.swdio(2)*
%LPD*%
D20*
X3756216Y19272728D02*
D03*

G04 debug.gnd(3)*
%LPD*%
D20*
X3502216Y19272728D02*
D03*

G04 debug.swclk(4)*
%LPD*%
D20*
X3248216Y19272728D02*
D03*

G04 i0.opto.a(1)*
%LPD*%
%ADD21R,1.7X1.5*%
D21*
X9717644Y14283383D02*
D03*

G04 i0.opto.ca(2)*
%LPD*%
D21*
X9971644Y14283383D02*
D03*

G04 i0.opto.co(4)*
%LPD*%
D21*
X9717644Y15183383D02*
D03*

G04 i0.opto.e(3)*
%LPD*%
D21*
X9971644Y15183383D02*
D03*

G04 i0.D1.c(1)*
%LPD*%
%ADD22R,1.72X1.88*%
D22*
X9722644Y13066481D02*
D03*

G04 i0.D1.a(2)*
%LPD*%
D22*
X10098644Y13066481D02*
D03*

G04 i1.R1.1(1)*
%LPD*%
D11*
X10485905Y13026627D02*
D03*

G04 i1.R1.2(2)*
%LPD*%
D11*
X10485905Y13316627D02*
D03*

G04 i1.R2.1(1)*
%LPD*%
D12*
X11023644Y13951169D02*
D03*

G04 i1.R2.2(2)*
%LPD*%
D12*
X10733644Y13951169D02*
D03*

G04 i1.R3.1(1)*
%LPD*%
D12*
X11005644Y15464653D02*
D03*

G04 i1.R3.2(2)*
%LPD*%
D12*
X10715644Y15464653D02*
D03*

G04 i1.opto.a(1)*
%LPD*%
D21*
X10733644Y14283383D02*
D03*

G04 i1.opto.ca(2)*
%LPD*%
D21*
X10987644Y14283383D02*
D03*

G04 i1.opto.co(4)*
%LPD*%
D21*
X10733644Y15183383D02*
D03*

G04 i1.opto.e(3)*
%LPD*%
D21*
X10987644Y15183383D02*
D03*

G04 i1.D1.c(1)*
%LPD*%
D22*
X10738644Y13066481D02*
D03*

G04 i1.D1.a(2)*
%LPD*%
D22*
X11114644Y13066481D02*
D03*

G04 __b4.(undefined)*
%LPD*%
%ADD23C,6.6000000000000005*%
D23*
X8702644Y19497353D02*
D03*

G04 __b5.(undefined)*
%LPD*%
D23*
X8702644Y12027393D02*
D03*

G04 __b6.(undefined)*
%LPD*%
D23*
X502644Y12027393D02*
D03*

G04 __b1.(undefined)*
%LPD*%
D23*
X502644Y19497353D02*
D03*

G04 __b2.(undefined)*
%LPD*%
D23*
X12002644Y19497353D02*
D03*

G04 __b3.(undefined)*
%LPD*%
D23*
X5002644Y19497353D02*
D03*

G04 __b7.(undefined)*
%LPD*%
D23*
X12002644Y12027393D02*
D03*

G04 __b8.(undefined)*
%LPD*%
D23*
X5002644Y12027393D02*
D03*

G04 i0.led.c(1)*
%LPD*%
D12*
X9989644Y13527353D02*
D03*

G04 i0.led.a(2)*
%LPD*%
D12*
X9699644Y13527353D02*
D03*

G04 i1.led.c(1)*
%LPD*%
D12*
X11005644Y13527353D02*
D03*

G04 i1.led.a(2)*
%LPD*%
D12*
X10715644Y13527353D02*
D03*

G04 j1.1(1)*
%LPD*%
D11*
X9045807Y16161485D02*
D03*

G04 j1.1(2)*
%LPD*%
D11*
X9045807Y15871485D02*
D03*

G04 j2.1(1)*
%LPD*%
D12*
X6971378Y13284760D02*
D03*

G04 j2.1(2)*
%LPD*%
D12*
X7261378Y13284760D02*
D03*

G04 p5.in+(1)*
%LPD*%
%ADD24R,3.2X3.2*%
D24*
X2472143Y17628221D02*
D03*

G04 p5.in-(2)*
%LPD*%
D24*
X712143Y17628221D02*
D03*

G04 p5.out+(4)*
%LPD*%
D24*
X2472143Y13648220D02*
D03*

G04 p5.out-(3)*
%LPD*%
D24*
X712143Y13648220D02*
D03*

G04 p3.in+(1)*
%LPD*%
D24*
X4917763Y17628221D02*
D03*

G04 p3.in-(2)*
%LPD*%
D24*
X3157763Y17628221D02*
D03*

G04 p3.out+(4)*
%LPD*%
D24*
X4917763Y13648220D02*
D03*

G04 p3.out-(3)*
%LPD*%
D24*
X3157763Y13648220D02*
D03*

G04 p4.in+(1)*
%LPD*%
D24*
X8879532Y17628221D02*
D03*

G04 p4.in-(2)*
%LPD*%
D24*
X7119532Y17628221D02*
D03*

G04 p4.out+(4)*
%LPD*%
D24*
X8879532Y13648220D02*
D03*

G04 p4.out-(3)*
%LPD*%
D24*
X7119532Y13648220D02*
D03*

G04 d2.t2.c(1)*
%LPD*%
D22*
X6777284Y18486722D02*
D03*

G04 d2.t2.a(2)*
%LPD*%
D22*
X6401284Y18486722D02*
D03*

G04 d2.t4.c(1)*
%LPD*%
D22*
X7482148Y18285814D02*
D03*

G04 d2.t4.a(2)*
%LPD*%
D22*
X7106148Y18285814D02*
D03*

M02*