G04 project-name*
%FSLAX35Y35*%
%MOMM*%
G04 c5.a(1)*
%LPD*%
%ADD10C,2.6*%
D10*
X-5713150Y20000000D02*
D03*

G04 c5.b(3)*
%LPD*%
D10*
X-5713150Y19492000D02*
D03*

G04 c5.c(5)*
%LPD*%
D10*
X-5713150Y18984000D02*
D03*

G04 c5.d(7)*
%LPD*%
D10*
X-5713150Y18476000D02*
D03*

G04 c5.e(9)*
%LPD*%
D10*
X-5713150Y17968000D02*
D03*

G04 c5.f(11)*
%LPD*%
D10*
X-5713150Y17460000D02*
D03*

G04 c5.a(2)*
%LPD*%
D10*
X-4951150Y20000000D02*
D03*

G04 c5.b(4)*
%LPD*%
D10*
X-4951150Y19492000D02*
D03*

G04 c5.c(6)*
%LPD*%
D10*
X-4951150Y18984000D02*
D03*

G04 c5.d(8)*
%LPD*%
D10*
X-4951150Y18476000D02*
D03*

G04 c5.e(10)*
%LPD*%
D10*
X-4951150Y17968000D02*
D03*

G04 c5.f(12)*
%LPD*%
D10*
X-4951150Y17460000D02*
D03*

G04 c4.1(1)*
%LPD*%
%ADD11C,2.52*%
D11*
X-3368233Y17729816D02*
D03*

G04 c4.2(2)*
%LPD*%
D11*
X-3368233Y17348816D02*
D03*

G04 c3.1(1)*
%LPD*%
%ADD12R,2.794X1.016*%
D12*
X-3228533Y19949200D02*
D03*

G04 c3.2(2)*
%LPD*%
D12*
X-3228533Y19695200D02*
D03*

G04 c3.3(3)*
%LPD*%
D12*
X-3228533Y19441200D02*
D03*

G04 c3.4(4)*
%LPD*%
D12*
X-3228533Y19187200D02*
D03*

G04 c3.5(5)*
%LPD*%
D12*
X-3228533Y18933200D02*
D03*

G04 c3.6(6)*
%LPD*%
D12*
X-3228533Y18679200D02*
D03*

G04 c3.7(7)*
%LPD*%
D12*
X-3228533Y18425200D02*
D03*

G04 c3.8(8)*
%LPD*%
D12*
X-3228533Y18171200D02*
D03*

G04 c2.1(1)*
%LPD*%
%ADD13C,1.89*%
D13*
X-1765916Y19292416D02*
D03*

G04 c2.3(3)*
%LPD*%
D13*
X-1765916Y19038416D02*
D03*

G04 c2.5(5)*
%LPD*%
D13*
X-1765916Y18784416D02*
D03*

G04 c2.7(7)*
%LPD*%
D13*
X-1765916Y18530416D02*
D03*

G04 c2.2(2)*
%LPD*%
D13*
X-1511916Y19292416D02*
D03*

G04 c2.4(4)*
%LPD*%
D13*
X-1511916Y19038416D02*
D03*

G04 c2.6(6)*
%LPD*%
D13*
X-1511916Y18784416D02*
D03*

G04 c2.8(8)*
%LPD*%
D13*
X-1511916Y18530416D02*
D03*

G04 c1.1(1)*
%LPD*%
D13*
X-1765916Y20000000D02*
D03*

G04 c1.2(2)*
%LPD*%
D13*
X-1765916Y19746000D02*
D03*

M02*