M48
FMAT,2
METRIC,TZ
T11C1.2
T21C0.9
T01C1.3
%
G90
G05
M71
T11
X-33.68233Y177.29816
X-33.68233Y173.48816
T21
X-17.65916Y192.92416
X-17.65916Y190.38416
X-17.65916Y187.84416
X-17.65916Y185.30416
X-15.11916Y192.92416
X-15.11916Y190.38416
X-15.11916Y187.84416
X-15.11916Y185.30416
X-17.65916Y200
X-17.65916Y197.46
T01
X-57.1315Y200
X-57.1315Y194.92
X-57.1315Y189.84
X-57.1315Y184.76
X-57.1315Y179.68
X-57.1315Y174.6
X-49.5115Y200
X-49.5115Y194.92
X-49.5115Y189.84
X-49.5115Y184.76
X-49.5115Y179.68
X-49.5115Y174.6
M30