M48
FMAT,2
METRIC,TZ
T11C3.1
T01C0.9
%
G90
G05
M71
T11
X-32.81916Y207.07
X-32.81916Y173.74999
T01
X-71.4475Y200
X-71.4475Y197.46
X-71.4475Y194.92
X-71.4475Y192.38
X-71.4475Y189.84
X-71.4475Y187.3
X-34.08916Y200
X-34.08916Y197.25999
X-34.08916Y194.52
X-34.08916Y191.77999
X-34.08916Y189.04
X-34.08916Y186.29999
X-34.08916Y183.56
X-34.08916Y180.81999
X-31.54916Y198.63
X-31.54916Y195.88999
X-31.54916Y193.15
X-31.54916Y190.40999
X-31.54916Y187.67
X-31.54916Y184.93
X-31.54916Y182.19
M30