G04 project-name*
%FSLAX35Y35*%
%MOMM*%
%ADD10C,0.4*%
%LPD*%
D10*
X-2697241Y19467424D02*
G01*
X-2516800Y19467424D01*
X-2318343Y19665881D01*
X-2318343Y20353298D01*
X-2491825Y20526781D01*
X-2559481Y20526781D01*
X-2576551Y20509711D01*

%LPD*%
D10*
X-3967241Y19467424D02*
G01*
X-3967241Y20846858D01*
X-3679574Y21134524D01*
X-3620071Y21134524D01*

%LPD*%
D10*
X-3616623Y21134524D02*
G01*
X-3616623Y20594111D01*
X-3617723Y20593011D01*
X-3617723Y20466597D01*
X-3417713Y20266587D01*
X-3085013Y20266587D01*
X-2957551Y20139126D01*
X-2957551Y19969711D01*

%LPD*%
D10*
X-2858071Y21134524D02*
G01*
X-2858071Y20948076D01*
X-2731650Y20821656D01*
X-2644444Y20821656D01*
X-2576551Y20753764D01*
X-2576551Y20509711D01*

%LPD*%
D10*
X-3112071Y21134524D02*
G01*
X-3112071Y20916274D01*
X-2950072Y20754276D01*
X-2889171Y20754276D01*
X-2830551Y20695657D01*
X-2830551Y20509711D01*

%LPD*%
D10*
X-3366071Y21134524D02*
G01*
X-3366071Y20893460D01*
X-3227507Y20754897D01*
X-3090710Y20754897D01*
X-2957551Y20621739D01*
X-2957551Y20509711D01*

%LPD*%
D10*
X-3459241Y19213424D02*
G01*
X-3459241Y19371189D01*
X-3183357Y19647072D01*
X-2595886Y19647072D01*
X-2444380Y19798578D01*
X-2444380Y20243820D01*
X-2546415Y20345854D01*
X-2651771Y20345854D01*
X-2703551Y20397634D01*
X-2703551Y20509711D01*
G04 r.1(1)*
%LPD*%
%ADD11C,1.5*%
D11*
X-2697241Y19467424D02*
D03*

G04 r.2(2)*
%LPD*%
D11*
X-3459241Y19213424D02*
D03*

G04 r.3(3)*
%LPD*%
D11*
X-3967241Y19467424D02*
D03*

G04 i1.1(1)*
%LPD*%
%ADD12R,1.016X2.794*%
D12*
X-3620071Y21134524D02*
D03*

G04 i1.2(2)*
%LPD*%
D12*
X-3366071Y21134524D02*
D03*

G04 i1.3(3)*
%LPD*%
D12*
X-3112071Y21134524D02*
D03*

G04 i1.4(4)*
%LPD*%
D12*
X-2858071Y21134524D02*
D03*

G04 c1.out1(1)*
%LPD*%
%ADD13R,0.6X2*%
D13*
X-2576551Y20509711D02*
D03*

G04 c1.in1-(2)*
%LPD*%
D13*
X-2703551Y20509711D02*
D03*

G04 c1.in1+(3)*
%LPD*%
D13*
X-2830551Y20509711D02*
D03*

G04 c1.vcc(4)*
%LPD*%
D13*
X-2957551Y20509711D02*
D03*

G04 c1.in2+(5)*
%LPD*%
D13*
X-3084551Y20509711D02*
D03*

G04 c1.in2-(6)*
%LPD*%
D13*
X-3211551Y20509711D02*
D03*

G04 c1.out2(7)*
%LPD*%
D13*
X-3338551Y20509711D02*
D03*

G04 c1.out4(14)*
%LPD*%
D13*
X-2576551Y19969711D02*
D03*

G04 c1.in4-(13)*
%LPD*%
D13*
X-2703551Y19969711D02*
D03*

G04 c1.in4+(12)*
%LPD*%
D13*
X-2830551Y19969711D02*
D03*

G04 c1.vee(11)*
%LPD*%
D13*
X-2957551Y19969711D02*
D03*

G04 c1.in3+(10)*
%LPD*%
D13*
X-3084551Y19969711D02*
D03*

G04 c1.in3-(9)*
%LPD*%
D13*
X-3211551Y19969711D02*
D03*

G04 c1.out3(8)*
%LPD*%
D13*
X-3338551Y19969711D02*
D03*

M02*