G04 project-name*
%FSLAX35Y35*%
%MOMM*%
G04 c2.oe1'(1)*
%LPD*%
%ADD10R,1.7X0.65*%
D10*
X-4630833Y19691000D02*
D03*

G04 c2.i0(2)*
%LPD*%
D10*
X-4630833Y19625999D02*
D03*

G04 c2.q4(3)*
%LPD*%
D10*
X-4630833Y19560999D02*
D03*

G04 c2.i1(4)*
%LPD*%
D10*
X-4630833Y19495999D02*
D03*

G04 c2.q5(5)*
%LPD*%
D10*
X-4630833Y19430999D02*
D03*

G04 c2.i2(6)*
%LPD*%
D10*
X-4630833Y19365999D02*
D03*

G04 c2.q6(7)*
%LPD*%
D10*
X-4630833Y19300999D02*
D03*

G04 c2.i3(8)*
%LPD*%
D10*
X-4630833Y19236000D02*
D03*

G04 c2.q7(9)*
%LPD*%
D10*
X-4630833Y19170999D02*
D03*

G04 c2.gnd(10)*
%LPD*%
D10*
X-4630833Y19105999D02*
D03*

G04 c2.vcc(20)*
%LPD*%
D10*
X-4050833Y19691000D02*
D03*

G04 c2.oe2'(19)*
%LPD*%
D10*
X-4050833Y19625999D02*
D03*

G04 c2.q0(18)*
%LPD*%
D10*
X-4050833Y19560999D02*
D03*

G04 c2.i4(17)*
%LPD*%
D10*
X-4050833Y19495999D02*
D03*

G04 c2.q1(16)*
%LPD*%
D10*
X-4050833Y19430999D02*
D03*

G04 c2.i5(15)*
%LPD*%
D10*
X-4050833Y19365999D02*
D03*

G04 c2.q2(14)*
%LPD*%
D10*
X-4050833Y19300999D02*
D03*

G04 c2.i6(13)*
%LPD*%
D10*
X-4050833Y19236000D02*
D03*

G04 c2.q3(12)*
%LPD*%
D10*
X-4050833Y19170999D02*
D03*

G04 c2.i7(11)*
%LPD*%
D10*
X-4050833Y19105999D02*
D03*

M02*