G04 project-name*
%FSLAX35Y35*%
%MOMM*%
G04 c1.c1.1b(1)*
%LPD*%
%ADD10R,1.75X0.8*%
D10*
X-1940416Y19969999D02*
D03*

G04 c1.c1.1a(2)*
%LPD*%
D10*
X-1940416Y19842999D02*
D03*

G04 c1.c1.1y(3)*
%LPD*%
D10*
X-1940416Y19715999D02*
D03*

G04 c1.c1.g(4)*
%LPD*%
D10*
X-1940416Y19588999D02*
D03*

G04 c1.c1.2y(5)*
%LPD*%
D10*
X-1940416Y19461999D02*
D03*

G04 c1.c1.2a(6)*
%LPD*%
D10*
X-1940416Y19334999D02*
D03*

G04 c1.c1.2b(7)*
%LPD*%
D10*
X-1940416Y19207999D02*
D03*

G04 c1.c1.gnd(8)*
%LPD*%
D10*
X-1940416Y19080999D02*
D03*

G04 c1.c1.vcc(16)*
%LPD*%
D10*
X-1400416Y19969999D02*
D03*

G04 c1.c1.4b(15)*
%LPD*%
D10*
X-1400416Y19842999D02*
D03*

G04 c1.c1.4a(14)*
%LPD*%
D10*
X-1400416Y19715999D02*
D03*

G04 c1.c1.4y(13)*
%LPD*%
D10*
X-1400416Y19588999D02*
D03*

G04 c1.c1.n_g(12)*
%LPD*%
D10*
X-1400416Y19461999D02*
D03*

G04 c1.c1.3y(11)*
%LPD*%
D10*
X-1400416Y19334999D02*
D03*

G04 c1.c1.3a(10)*
%LPD*%
D10*
X-1400416Y19207999D02*
D03*

G04 c1.c1.3b(9)*
%LPD*%
D10*
X-1400416Y19080999D02*
D03*

G04 c1.r4.1(1)*
%LPD*%
%ADD11R,1.1X1.8*%
D11*
X-7201666Y19920000D02*
D03*

G04 c1.r4.2(2)*
%LPD*%
D11*
X-6911666Y19920000D02*
D03*

G04 c1.r3.1(1)*
%LPD*%
D11*
X-5458749Y19455416D02*
D03*

G04 c1.r3.2(2)*
%LPD*%
D11*
X-5168749Y19455416D02*
D03*

G04 c1.r2.1(1)*
%LPD*%
D11*
X-5458749Y19920000D02*
D03*

G04 c1.r2.2(2)*
%LPD*%
D11*
X-5168749Y19920000D02*
D03*

G04 c1.r1.1(1)*
%LPD*%
D11*
X-3715833Y19455416D02*
D03*

G04 c1.r1.2(2)*
%LPD*%
D11*
X-3425833Y19455416D02*
D03*

G04 c1.c2.c(1)*
%LPD*%
D11*
X-3715833Y19920000D02*
D03*

G04 c1.c2.a(2)*
%LPD*%
D11*
X-3425833Y19920000D02*
D03*

M02*