G04 project-name*
%FSLAX35Y35*%
%MOMM*%
G04 P.L1.1(1)*
%LPD*%
%ADD10R,3X7.5*%
D10*
X3963301Y18789891D02*
D03*

G04 P.L1.2(2)*
%LPD*%
D10*
X4563302Y18789891D02*
D03*

G04 cn2.GND(1)*
%LPD*%
%ADD11C,2.52*%
D11*
X7970945Y17623353D02*
D03*

G04 cn2.Vin(2)*
%LPD*%
D11*
X7970945Y17242353D02*
D03*

G04 undefined.(undefined)*
%LPD*%
%ADD12C,1.5*%
D12*
X4828637Y17428871D02*
D03*

%ADD13C,0.4*%
%LPD*%
D13*
X4928955Y16665542D02*
G01*
X4928955Y17328552D01*
X4828637Y17428871D01*
G04 undefined.(undefined)*
%LPD*%
D12*
X6275902Y17902415D02*
D03*


%LPD*%
D13*
X4928955Y16665542D02*
G01*
X4928955Y17153424D01*
X5057111Y17281579D01*
X5862243Y17281579D01*
X6335267Y17754604D01*
X6335267Y17843049D01*
X6275902Y17902415D01*
G04 undefined.(undefined)*
%LPD*%
D12*
X1219678Y17021682D02*
D03*


%LPD*%
D13*
X1118955Y16665542D02*
G01*
X1118955Y16920959D01*
X1219678Y17021682D01*

%LPD*%
D13*
X4420955Y16665542D02*
G01*
X4420955Y16432415D01*
X4454959Y16398412D01*
X4878246Y16398412D01*
X4928955Y16449121D01*
X4928955Y16665542D01*

%LPD*%
D13*
X864955Y16665542D02*
G01*
X864955Y16913194D01*
X954541Y17002780D01*
X1047413Y17002780D01*
X1118955Y16931237D01*
X1118955Y16665542D01*
G04 undefined.(undefined)*
%LPD*%
D12*
X6440756Y18623119D02*
D03*

G04 undefined.(undefined)*
%LPD*%
D12*
X4885056Y18450042D02*
D03*


%LPD*%
D13*
X6440756Y18623119D02*
G01*
X5058132Y18623119D01*
X4885056Y18450042D01*

%LPD*%
D13*
X5690955Y16135542D02*
G01*
X5690955Y16353408D01*
X5644688Y16399676D01*
X4974763Y16399676D01*
X4928955Y16445484D01*
X4928955Y16665542D01*
G04 undefined.(undefined)*
%LPD*%
D12*
X4186715Y15807812D02*
D03*

%ADD14C,0.2*%
%LPD*%
D14*
X4186715Y15807812D02*
G01*
X4186715Y15860364D01*
X4166955Y15880124D01*
X4166955Y16135542D01*
G04 undefined.(undefined)*
%LPD*%
D12*
X3996034Y17045917D02*
D03*


%LPD*%
D14*
X3996034Y17045917D02*
G01*
X3912955Y16987663D01*
X3912955Y16665542D01*

%LPD*%
D14*
X2388955Y16675542D02*
G01*
X2388955Y16885249D01*
X2438090Y16934384D01*
X3108092Y16934384D01*
X3150955Y16891521D01*
X3150955Y16675542D01*

%LPD*%
D14*
X3108092Y16934384D02*
G01*
X3709130Y16934384D01*
X3945505Y17170759D01*
X4920805Y17170759D01*
X4931685Y17159879D01*

%LPD*%
D14*
X4420955Y16675542D02*
G01*
X4420955Y17170808D01*
X4419081Y17172682D01*

%LPD*%
D14*
X3912955Y16125542D02*
G01*
X3912955Y16353960D01*
X3971900Y16412905D01*
X4451261Y16412905D01*
X4465588Y16398578D01*
G04 undefined.(undefined)*
%LPD*%
D12*
X4030561Y15617759D02*
D03*


%LPD*%
D14*
X4030561Y15617759D02*
G01*
X4030561Y15770223D01*
X3912955Y15887829D01*
X3912955Y16125542D01*
G04 undefined.(undefined)*
%LPD*%
D12*
X3687946Y15556985D02*
D03*


%LPD*%
D14*
X3658955Y16125542D02*
G01*
X3658955Y15585975D01*
X3687946Y15556985D01*
G04 beep.b.c(1)*
%LPD*%
D12*
X5136988Y14780092D02*
D03*

G04 beep.b.a(2)*
%LPD*%
D12*
X5906988Y14780092D02*
D03*

G04 rpi.3v3(1)*
%LPD*%
%ADD15R,1.5X3.1*%
D15*
X864955Y16125542D02*
D03*

G04 rpi.2(3)*
%LPD*%
D15*
X1118955Y16125542D02*
D03*

G04 rpi.3(5)*
%LPD*%
D15*
X1372955Y16125542D02*
D03*

G04 rpi.4(7)*
%LPD*%
D15*
X1626955Y16125542D02*
D03*

G04 rpi.gnd1(9)*
%LPD*%
D15*
X1880955Y16125542D02*
D03*

G04 rpi.17(11)*
%LPD*%
D15*
X2134955Y16125542D02*
D03*

G04 rpi.27(13)*
%LPD*%
D15*
X2388955Y16125542D02*
D03*

G04 rpi.22(15)*
%LPD*%
D15*
X2642955Y16125542D02*
D03*

G04 rpi.3v3(17)*
%LPD*%
D15*
X2896955Y16125542D02*
D03*

G04 rpi.10(19)*
%LPD*%
D15*
X3150955Y16125542D02*
D03*

G04 rpi.9(21)*
%LPD*%
D15*
X3404955Y16125542D02*
D03*

G04 rpi.11(23)*
%LPD*%
D15*
X3658955Y16125542D02*
D03*

G04 rpi.gnd2(25)*
%LPD*%
D15*
X3912955Y16125542D02*
D03*

G04 rpi.0(27)*
%LPD*%
D15*
X4166955Y16125542D02*
D03*

G04 rpi.5(29)*
%LPD*%
D15*
X4420955Y16125542D02*
D03*

G04 rpi.6(31)*
%LPD*%
D15*
X4674955Y16125542D02*
D03*

G04 rpi.13(33)*
%LPD*%
D15*
X4928955Y16125542D02*
D03*

G04 rpi.19(35)*
%LPD*%
D15*
X5182955Y16125542D02*
D03*

G04 rpi.26(37)*
%LPD*%
D15*
X5436955Y16125542D02*
D03*

G04 rpi.gnd3(39)*
%LPD*%
D15*
X5690955Y16125542D02*
D03*

G04 rpi.5v(2)*
%LPD*%
D15*
X864955Y16675542D02*
D03*

G04 rpi.5v(4)*
%LPD*%
D15*
X1118955Y16675542D02*
D03*

G04 rpi.gnd4(6)*
%LPD*%
D15*
X1372955Y16675542D02*
D03*

G04 rpi.14(8)*
%LPD*%
D15*
X1626955Y16675542D02*
D03*

G04 rpi.15(10)*
%LPD*%
D15*
X1880955Y16675542D02*
D03*

G04 rpi.18(12)*
%LPD*%
D15*
X2134955Y16675542D02*
D03*

G04 rpi.gnd5(14)*
%LPD*%
D15*
X2388955Y16675542D02*
D03*

G04 rpi.23(16)*
%LPD*%
D15*
X2642955Y16675542D02*
D03*

G04 rpi.24(18)*
%LPD*%
D15*
X2896955Y16675542D02*
D03*

G04 rpi.gnd6(20)*
%LPD*%
D15*
X3150955Y16675542D02*
D03*

G04 rpi.25(22)*
%LPD*%
D15*
X3404955Y16675542D02*
D03*

G04 rpi.8(24)*
%LPD*%
D15*
X3658955Y16675542D02*
D03*

G04 rpi.7(26)*
%LPD*%
D15*
X3912955Y16675542D02*
D03*

G04 rpi.1(28)*
%LPD*%
D15*
X4166955Y16675542D02*
D03*

G04 rpi.gnd7(30)*
%LPD*%
D15*
X4420955Y16675542D02*
D03*

G04 rpi.12(32)*
%LPD*%
D15*
X4674955Y16675542D02*
D03*

G04 rpi.gnd8(34)*
%LPD*%
D15*
X4928955Y16675542D02*
D03*

G04 rpi.16(36)*
%LPD*%
D15*
X5182955Y16675542D02*
D03*

G04 rpi.20(38)*
%LPD*%
D15*
X5436955Y16675542D02*
D03*

G04 rpi.21(40)*
%LPD*%
D15*
X5690955Y16675542D02*
D03*

G04 __1.M3(1)*
%LPD*%
%ADD16C,6.2*%
D16*
X377955Y16397353D02*
D03*

G04 __2.M3(1)*
%LPD*%
D16*
X6177955Y16397353D02*
D03*

G04 __3.M3(1)*
%LPD*%
D16*
X377955Y11497353D02*
D03*

G04 __4.M3(1)*
%LPD*%
D16*
X6177955Y11497353D02*
D03*

G04 P.C10.c(1)*
%LPD*%
D12*
X7239362Y18854316D02*
D03*

G04 P.C10.a(2)*
%LPD*%
D12*
X6839362Y18854316D02*
D03*

G04 P.C10.c(1)*
%LPD*%
D12*
X7239362Y18854316D02*
D03*

G04 P.C10.a(2)*
%LPD*%
D12*
X6839362Y18854316D02*
D03*

M02*