G04 project-name*
%FSLAX35Y35*%
%MOMM*%
G04 P.L1.1(1)*
%LPD*%
%ADD10R,3.2X7.7*%
D10*
X3963301Y18789891D02*
D03*

G04 P.L1.2(2)*
%LPD*%
D10*
X4563302Y18789891D02*
D03*

G04 cn2.GND(1)*
%LPD*%
%ADD11C,2.92*%
D11*
X7970945Y17623353D02*
D03*

G04 cn2.Vin(2)*
%LPD*%
D11*
X7970945Y17242353D02*
D03*

G04 beep.b.c(1)*
%LPD*%
%ADD12C,1.9*%
D12*
X5136988Y14780092D02*
D03*

G04 beep.b.a(2)*
%LPD*%
D12*
X5906988Y14780092D02*
D03*

G04 rpi.3v3(1)*
%LPD*%
%ADD13R,1.7X3.3000000000000003*%
D13*
X864955Y16125542D02*
D03*

G04 rpi.2(3)*
%LPD*%
D13*
X1118955Y16125542D02*
D03*

G04 rpi.3(5)*
%LPD*%
D13*
X1372955Y16125542D02*
D03*

G04 rpi.4(7)*
%LPD*%
D13*
X1626955Y16125542D02*
D03*

G04 rpi.gnd1(9)*
%LPD*%
D13*
X1880955Y16125542D02*
D03*

G04 rpi.17(11)*
%LPD*%
D13*
X2134955Y16125542D02*
D03*

G04 rpi.27(13)*
%LPD*%
D13*
X2388955Y16125542D02*
D03*

G04 rpi.22(15)*
%LPD*%
D13*
X2642955Y16125542D02*
D03*

G04 rpi.3v3(17)*
%LPD*%
D13*
X2896955Y16125542D02*
D03*

G04 rpi.10(19)*
%LPD*%
D13*
X3150955Y16125542D02*
D03*

G04 rpi.9(21)*
%LPD*%
D13*
X3404955Y16125542D02*
D03*

G04 rpi.11(23)*
%LPD*%
D13*
X3658955Y16125542D02*
D03*

G04 rpi.gnd2(25)*
%LPD*%
D13*
X3912955Y16125542D02*
D03*

G04 rpi.0(27)*
%LPD*%
D13*
X4166955Y16125542D02*
D03*

G04 rpi.5(29)*
%LPD*%
D13*
X4420955Y16125542D02*
D03*

G04 rpi.6(31)*
%LPD*%
D13*
X4674955Y16125542D02*
D03*

G04 rpi.13(33)*
%LPD*%
D13*
X4928955Y16125542D02*
D03*

G04 rpi.19(35)*
%LPD*%
D13*
X5182955Y16125542D02*
D03*

G04 rpi.26(37)*
%LPD*%
D13*
X5436955Y16125542D02*
D03*

G04 rpi.gnd3(39)*
%LPD*%
D13*
X5690955Y16125542D02*
D03*

G04 rpi.5v(2)*
%LPD*%
D13*
X864955Y16675542D02*
D03*

G04 rpi.5v(4)*
%LPD*%
D13*
X1118955Y16675542D02*
D03*

G04 rpi.gnd4(6)*
%LPD*%
D13*
X1372955Y16675542D02*
D03*

G04 rpi.14(8)*
%LPD*%
D13*
X1626955Y16675542D02*
D03*

G04 rpi.15(10)*
%LPD*%
D13*
X1880955Y16675542D02*
D03*

G04 rpi.18(12)*
%LPD*%
D13*
X2134955Y16675542D02*
D03*

G04 rpi.gnd5(14)*
%LPD*%
D13*
X2388955Y16675542D02*
D03*

G04 rpi.23(16)*
%LPD*%
D13*
X2642955Y16675542D02*
D03*

G04 rpi.24(18)*
%LPD*%
D13*
X2896955Y16675542D02*
D03*

G04 rpi.gnd6(20)*
%LPD*%
D13*
X3150955Y16675542D02*
D03*

G04 rpi.25(22)*
%LPD*%
D13*
X3404955Y16675542D02*
D03*

G04 rpi.8(24)*
%LPD*%
D13*
X3658955Y16675542D02*
D03*

G04 rpi.7(26)*
%LPD*%
D13*
X3912955Y16675542D02*
D03*

G04 rpi.1(28)*
%LPD*%
D13*
X4166955Y16675542D02*
D03*

G04 rpi.gnd7(30)*
%LPD*%
D13*
X4420955Y16675542D02*
D03*

G04 rpi.12(32)*
%LPD*%
D13*
X4674955Y16675542D02*
D03*

G04 rpi.gnd8(34)*
%LPD*%
D13*
X4928955Y16675542D02*
D03*

G04 rpi.16(36)*
%LPD*%
D13*
X5182955Y16675542D02*
D03*

G04 rpi.20(38)*
%LPD*%
D13*
X5436955Y16675542D02*
D03*

G04 rpi.21(40)*
%LPD*%
D13*
X5690955Y16675542D02*
D03*

G04 __1.M3(1)*
%LPD*%
%ADD14C,6.6000000000000005*%
D14*
X377955Y16397353D02*
D03*

G04 __2.M3(1)*
%LPD*%
D14*
X6177955Y16397353D02*
D03*

G04 __3.M3(1)*
%LPD*%
D14*
X377955Y11497353D02*
D03*

G04 __4.M3(1)*
%LPD*%
D14*
X6177955Y11497353D02*
D03*

G04 P.C10.c(1)*
%LPD*%
D12*
X7239362Y18854316D02*
D03*

G04 P.C10.a(2)*
%LPD*%
D12*
X6839362Y18854316D02*
D03*

G04 P.C10.c(1)*
%LPD*%
D12*
X7239362Y18854316D02*
D03*

G04 P.C10.a(2)*
%LPD*%
D12*
X6839362Y18854316D02*
D03*

M02*