G04 project-name*
%FSLAX35Y35*%
%MOMM*%
%ADD10C,0.4*%
%LPD*%
D10*
X7405390Y17246958D02*
G01*
X7874861Y17246958D01*
G04 P.L1.1(1)*
%LPD*%
%ADD11R,3X7.5*%
D11*
X3963301Y18789891D02*
D03*

G04 P.L1.2(2)*
%LPD*%
D11*
X4563302Y18789891D02*
D03*

G04 P.R1.1(1)*
%LPD*%
%ADD12R,1.6X0.9*%
D12*
X6038641Y17497011D02*
D03*

G04 P.R1.2(2)*
%LPD*%
D12*
X6038641Y17207011D02*
D03*

G04 P.R2.1(1)*
%LPD*%
%ADD13R,0.9X1.6*%
D13*
X3580317Y18068024D02*
D03*

G04 P.R2.2(2)*
%LPD*%
D13*
X3290317Y18068024D02*
D03*

G04 led1.DR.Q1.c(3)*
%LPD*%
%ADD14R,0.9X0.7*%
D14*
X5558399Y16350173D02*
D03*

G04 led1.DR.Q1.e(2)*
%LPD*%
D14*
X5358399Y16255174D02*
D03*

G04 led1.DR.Q1.b(1)*
%LPD*%
D14*
X5358399Y16445174D02*
D03*

G04 led1.DR.R1.1(1)*
%LPD*%
D13*
X5008100Y16262853D02*
D03*

G04 led1.DR.R1.2(2)*
%LPD*%
D13*
X4718100Y16262853D02*
D03*

G04 led1.R1.1(1)*
%LPD*%
D13*
X6572127Y16982967D02*
D03*

G04 led1.R1.2(2)*
%LPD*%
D13*
X6282127Y16982967D02*
D03*

G04 led2.DR.Q1.c(3)*
%LPD*%
D14*
X5537517Y16840697D02*
D03*

G04 led2.DR.Q1.e(2)*
%LPD*%
D14*
X5337517Y16745697D02*
D03*

G04 led2.DR.Q1.b(1)*
%LPD*%
D14*
X5337517Y16935697D02*
D03*

G04 led2.DR.R1.1(1)*
%LPD*%
D13*
X5012063Y16715504D02*
D03*

G04 led2.DR.R1.2(2)*
%LPD*%
D13*
X4722063Y16715504D02*
D03*

G04 led2.R1.1(1)*
%LPD*%
D13*
X6057216Y16976441D02*
D03*

G04 led2.R1.2(2)*
%LPD*%
D13*
X5767216Y16976441D02*
D03*

G04 beep.D.Q1.c(3)*
%LPD*%
D14*
X4584206Y15091405D02*
D03*

G04 beep.D.Q1.e(2)*
%LPD*%
D14*
X4384206Y14996405D02*
D03*

G04 beep.D.Q1.b(1)*
%LPD*%
D14*
X4384206Y15186405D02*
D03*

G04 beep.D.R1.1(1)*
%LPD*%
D13*
X4199875Y15181060D02*
D03*

G04 beep.D.R1.2(2)*
%LPD*%
D13*
X3909875Y15181060D02*
D03*

G04 beep.R1.1(1)*
%LPD*%
D13*
X5411381Y15141977D02*
D03*

G04 beep.R1.2(2)*
%LPD*%
D13*
X5121381Y15141977D02*
D03*

G04 P.C3.C1.c(1)*
%LPD*%
D13*
X7176162Y18085653D02*
D03*

G04 P.C3.C1.a(2)*
%LPD*%
D13*
X6886162Y18085653D02*
D03*

G04 P.C3.C2.c(1)*
%LPD*%
D13*
X7177374Y17859514D02*
D03*

G04 P.C3.C2.a(2)*
%LPD*%
D13*
X6887374Y17859514D02*
D03*

G04 P.C13.c(1)*
%LPD*%
D13*
X6764172Y18279091D02*
D03*

G04 P.C13.a(2)*
%LPD*%
D13*
X6474172Y18279091D02*
D03*

G04 P.C11.c(1)*
%LPD*%
D13*
X4314768Y18131399D02*
D03*

G04 P.C11.a(2)*
%LPD*%
D13*
X4024768Y18131399D02*
D03*

G04 P.D14.c(1)*
%LPD*%
%ADD15R,1.52X1.68*%
D15*
X7029599Y17614600D02*
D03*

G04 P.D14.a(2)*
%LPD*%
D15*
X7405599Y17614600D02*
D03*

G04 P.D13.c(1)*
%LPD*%
D15*
X7029390Y17246958D02*
D03*

G04 P.D13.a(2)*
%LPD*%
D15*
X7405390Y17246958D02*
D03*

G04 P.D15.c(1)*
%LPD*%
D15*
X5291559Y17544523D02*
D03*

G04 P.D15.a(2)*
%LPD*%
D15*
X5667559Y17544523D02*
D03*

G04 led1.D1.c(1)*
%LPD*%
D13*
X8267645Y17082353D02*
D03*

G04 led1.D1.a(2)*
%LPD*%
D13*
X8557645Y17082353D02*
D03*

G04 led2.D1.c(1)*
%LPD*%
D13*
X8267645Y17793353D02*
D03*

G04 led2.D1.a(2)*
%LPD*%
D13*
X8557645Y17793353D02*
D03*

G04 cn2.GND(1)*
%LPD*%
%ADD16C,2.52*%
D16*
X7970945Y17623353D02*
D03*

G04 cn2.Vin(2)*
%LPD*%
D16*
X7970945Y17242353D02*
D03*

G04 undefined.(undefined)*
%LPD*%
%ADD17C,1.5*%
D17*
X4828637Y17428871D02*
D03*


%LPD*%
D10*
X4828637Y17428871D02*
G01*
X4525345Y17428871D01*

%LPD*%
D10*
X7034290Y17221148D02*
G01*
X7034290Y17642461D01*

%LPD*%
D10*
X7352599Y17614600D02*
G01*
X7966984Y17614600D01*

%LPD*%
D10*
X5670230Y17899008D02*
G01*
X5670230Y18093798D01*
X5728493Y18152061D01*
X5955384Y18152061D01*
X6010630Y18096815D01*
X6010630Y17899008D01*

%LPD*%
D10*
X7379268Y17613800D02*
G01*
X7217187Y17610971D01*
X7217187Y17113134D01*
X7175955Y17071902D01*
X6763250Y17071902D01*
X6197103Y17638049D01*
X6089359Y17638049D01*
X6010630Y17716777D01*
X6010630Y17899008D01*
G04 undefined.(undefined)*
%LPD*%
D17*
X6275902Y17902415D02*
D03*


%LPD*%
D10*
X6275902Y17902415D02*
G01*
X6032436Y17902415D01*
G04 undefined.(undefined)*
%LPD*%
D17*
X1219678Y17021682D02*
D03*


%LPD*%
D10*
X1219678Y17021682D02*
G01*
X3723162Y17021682D01*
X3914461Y17212980D01*
X5867790Y17212980D01*
X5873759Y17207011D01*
X6038641Y17207011D01*

%LPD*%
D10*
X3873535Y17660947D02*
G01*
X3873535Y18067639D01*
X3937296Y18131399D01*
X4024768Y18131399D01*

%LPD*%
D10*
X3873535Y17660947D02*
G01*
X3711506Y17660947D01*
X3580317Y17792135D01*
X3580317Y18068024D01*

%LPD*%
D10*
X3949654Y18910785D02*
G01*
X3945957Y19249659D01*
X4161965Y19409521D01*
X4642942Y19409521D01*
X5028558Y19023904D01*
X5028558Y17649485D01*
X5133520Y17544523D01*
X5286196Y17544523D01*

%LPD*%
D10*
X5669035Y17544523D02*
G01*
X5669035Y17823275D01*
G04 undefined.(undefined)*
%LPD*%
D17*
X6440756Y18623119D02*
D03*

G04 undefined.(undefined)*
%LPD*%
D17*
X4885056Y18450042D02*
D03*


%LPD*%
D10*
X6828657Y18854316D02*
G01*
X6724303Y18854316D01*
X6725064Y18855077D01*
X6672714Y18855077D01*
X6440756Y18623119D01*

%LPD*%
D10*
X4885056Y18450042D02*
G01*
X4689873Y18450042D01*
X4663301Y18476614D01*
X4663301Y18774785D01*

%LPD*%
D10*
X4503536Y17430947D02*
G01*
X4350003Y17430947D01*
X4314768Y17466181D01*
X4314768Y18131399D01*

%LPD*%
D10*
X4503536Y17890947D02*
G01*
X4503536Y18239986D01*
X4663301Y18399752D01*
X4663301Y18789891D01*
G04 undefined.(undefined)*
%LPD*%
D17*
X4186715Y15807812D02*
D03*

%ADD18C,0.2*%
%LPD*%
D18*
X4718100Y16262853D02*
G01*
X4615353Y16262853D01*
X4243291Y15864388D01*
X4186715Y15807812D01*
G04 undefined.(undefined)*
%LPD*%
D17*
X3996034Y17045917D02*
D03*


%LPD*%
D18*
X4722063Y16715504D02*
G01*
X4326446Y16715504D01*
X3996034Y17045917D01*

%LPD*%
D18*
X5337518Y16745697D02*
G01*
X5337518Y16632614D01*
X5459797Y16510334D01*
X5459797Y16405236D01*
X5358400Y16303838D01*
X5358400Y16255174D01*

%LPD*%
D18*
X5337518Y16745697D02*
G01*
X5337518Y16792588D01*
X5458794Y16913864D01*
X5510557Y16913864D01*
X5702671Y17105977D01*
X6129298Y17105977D01*
X6220737Y17197416D01*
X6220737Y17616101D01*
X6196075Y17640762D01*
X6083796Y17640762D01*
X6010630Y17713928D01*
X6010630Y17899008D01*

%LPD*%
D18*
X5012063Y16715504D02*
G01*
X5075599Y16715504D01*
X5200599Y16840505D01*
X5200599Y16876845D01*
X5259451Y16935697D01*
X5337518Y16935697D01*

%LPD*%
D18*
X8557645Y17082353D02*
G01*
X8557645Y16963911D01*
X8411653Y16817918D01*
X6029389Y16817918D01*
X5776006Y16564535D01*
X5776006Y16046992D01*
X5646171Y15917158D01*
X5085126Y15917158D01*
X4841992Y16160291D01*
X4841992Y17162144D01*
X4903405Y17223557D01*
X5136458Y17223557D01*

%LPD*%
D18*
X5008100Y16262853D02*
G01*
X5088411Y16262853D01*
X5270732Y16445174D01*
X5358400Y16445174D01*

%LPD*%
D10*
X8557645Y17082353D02*
G01*
X8557645Y17786906D01*

%LPD*%
D10*
X8557645Y17793353D02*
G01*
X8557645Y17793353D01*
%ADD19C,0.6*%
%LPD*%
D19*
X7972423Y17634431D02*
G01*
X7972423Y18480698D01*
X7592521Y18860600D01*
X7250691Y18860600D01*

%LPD*%
D10*
X5840431Y17899008D02*
G01*
X5840431Y17474292D01*
X5732520Y17366382D01*
X5192852Y17366382D01*
X4912590Y17646644D01*
X4912590Y18231233D01*
X4663301Y18480522D01*
X4663301Y18439906D01*

%LPD*%
D10*
X6038641Y17497011D02*
G01*
X5934862Y17497011D01*
X5840431Y17591442D01*
X5840431Y17899008D01*

%LPD*%
D10*
X5291559Y17544523D02*
G01*
X5389198Y17544523D01*
X5436913Y17592238D01*
X5436913Y17684076D01*
X5500031Y17747193D01*
X5500031Y17899008D01*

%LPD*%
D10*
X5329830Y17899008D02*
G01*
X5329830Y18141019D01*
X5462456Y18273644D01*
X6474172Y18273644D01*

%LPD*%
D10*
X6474172Y18279091D02*
G01*
X6474172Y17888852D01*
X6748423Y17614600D01*
X7029599Y17614600D01*

%LPD*%
D10*
X6764172Y18279091D02*
G01*
X7046486Y18279091D01*
X7239362Y18471968D01*
X7239362Y18854316D01*

%LPD*%
D18*
X6886162Y18085653D02*
G01*
X6886162Y17885716D01*

%LPD*%
D18*
X6887374Y17859514D02*
G01*
X6773475Y17859514D01*
X6637454Y17995535D01*
X6637454Y18707402D01*
X6573876Y18770979D01*

%LPD*%
D18*
X7176162Y18085653D02*
G01*
X7176162Y17888814D01*

%LPD*%
D18*
X7177374Y17859514D02*
G01*
X7310641Y17859514D01*
X7405599Y17764557D01*
X7405599Y17614600D01*

%LPD*%
D18*
X8267645Y17082353D02*
G01*
X8267645Y16982899D01*
X8221626Y16936879D01*
X6618215Y16936879D01*
X6572127Y16982967D01*

%LPD*%
D18*
X8267645Y17793353D02*
G01*
X8355161Y17793353D01*
X8387415Y17761100D01*
X8387415Y16992473D01*
X8257260Y16862318D01*
X6491156Y16862318D01*
X6431571Y16921902D01*
X6431571Y17044131D01*
X6371180Y17104523D01*
X6226904Y17104523D01*
X6098823Y16976441D01*
X6057216Y16976441D01*

%LPD*%
D18*
X6282127Y16982967D02*
G01*
X6231525Y16982967D01*
X6179936Y16931378D01*
X6179936Y16899455D01*
X6145609Y16865128D01*
X5990884Y16865128D01*
X5700406Y16574650D01*
X5700406Y16386162D01*
X5664418Y16350173D01*
X5558400Y16350173D01*

%LPD*%
D18*
X5767216Y16976441D02*
G01*
X5701699Y16976441D01*
X5643996Y16918738D01*
X5643996Y16880014D01*
X5604679Y16840697D01*
X5537518Y16840697D01*
G04 undefined.(undefined)*
%LPD*%
D17*
X4030561Y15617759D02*
D03*


%LPD*%
D18*
X4384206Y14996405D02*
G01*
X4384206Y15034035D01*
X4487952Y15137781D01*
X4487952Y15270481D01*
X4279021Y15479413D01*
X4168908Y15479413D01*
X4030561Y15617759D01*

%LPD*%
D18*
X4384206Y15186405D02*
G01*
X4228093Y15186405D01*

%LPD*%
D18*
X4584207Y15091405D02*
G01*
X5070809Y15091405D01*
X5121381Y15141977D01*

%LPD*%
D18*
X5121381Y15141977D02*
G01*
X5121381Y14795699D01*
X5136988Y14780092D01*

%LPD*%
D18*
X5411381Y15141977D02*
G01*
X5686342Y15141977D01*
X5906988Y14921331D01*
X5906988Y14780092D01*

%LPD*%
D18*
X5411381Y15141977D02*
G01*
X5411381Y15896591D01*
X5388613Y15919358D01*
G04 undefined.(undefined)*
%LPD*%
D17*
X3687946Y15556985D02*
D03*


%LPD*%
D18*
X3909875Y15181060D02*
G01*
X3909875Y15181060D01*

%LPD*%
D18*
X3687946Y15556985D02*
G01*
X3687946Y15311074D01*
X3817959Y15181060D01*
X3909875Y15181060D01*
G04 beep.b.c(1)*
%LPD*%
D17*
X5136988Y14780092D02*
D03*

G04 beep.b.a(2)*
%LPD*%
D17*
X5906988Y14780092D02*
D03*

G04 __1.M3(1)*
%LPD*%
%ADD20C,6.2*%
D20*
X377955Y16397353D02*
D03*

G04 __2.M3(1)*
%LPD*%
D20*
X6177955Y16397353D02*
D03*

G04 __3.M3(1)*
%LPD*%
D20*
X377955Y11497353D02*
D03*

G04 __4.M3(1)*
%LPD*%
D20*
X6177955Y11497353D02*
D03*

G04 P.C1.gnd(6)*
%LPD*%
%ADD21R,10.8X8*%
D21*
X5670230Y18916008D02*
D03*

G04 P.C1.onoff(5)*
%LPD*%
%ADD22R,1.07X2.16*%
D22*
X6010630Y17899008D02*
D03*

G04 P.C1.fb(4)*
%LPD*%
D22*
X5840431Y17899008D02*
D03*

G04 P.C1.gnd(3)*
%LPD*%
D22*
X5670230Y17899008D02*
D03*

G04 P.C1.out(2)*
%LPD*%
D22*
X5500031Y17899008D02*
D03*

G04 P.C1.vin(1)*
%LPD*%
D22*
X5329830Y17899008D02*
D03*

G04 P.C10.c(1)*
%LPD*%
D17*
X7239362Y18854316D02*
D03*

G04 P.C10.a(2)*
%LPD*%
D17*
X6839362Y18854316D02*
D03*

G04 P.C10.c(1)*
%LPD*%
D17*
X7239362Y18854316D02*
D03*

G04 P.C10.a(2)*
%LPD*%
D17*
X6839362Y18854316D02*
D03*

G04 P.C2.vout(4)*
%LPD*%
%ADD23R,2.15X3.8*%
D23*
X3873535Y17660947D02*
D03*

G04 P.C2.vin(3)*
%LPD*%
%ADD24R,2X1.5*%
D24*
X4503536Y17890947D02*
D03*

G04 P.C2.vout(2)*
%LPD*%
D24*
X4503536Y17660947D02*
D03*

G04 P.C2.gnd(1)*
%LPD*%
D24*
X4503536Y17430947D02*
D03*

M02*