G04 project-name*
%FSLAX35Y35*%
%MOMM*%
G04 P.L1.1(1)*
%LPD*%
%ADD10R,3.2X7.7*%
D10*
X3963301Y18789891D02*
D03*

G04 P.L1.2(2)*
%LPD*%
D10*
X4563302Y18789891D02*
D03*

G04 P.R1.1(1)*
%LPD*%
%ADD11R,1.8X1.1*%
D11*
X6038641Y17497011D02*
D03*

G04 P.R1.2(2)*
%LPD*%
D11*
X6038641Y17207011D02*
D03*

G04 P.R2.1(1)*
%LPD*%
%ADD12R,1.1X1.8*%
D12*
X3580317Y18068024D02*
D03*

G04 P.R2.2(2)*
%LPD*%
D12*
X3290317Y18068024D02*
D03*

G04 led1.DR.Q1.c(3)*
%LPD*%
%ADD13R,1.1X0.8999999999999999*%
D13*
X5558399Y16350173D02*
D03*

G04 led1.DR.Q1.e(2)*
%LPD*%
D13*
X5358399Y16255174D02*
D03*

G04 led1.DR.Q1.b(1)*
%LPD*%
D13*
X5358399Y16445174D02*
D03*

G04 led1.DR.R1.1(1)*
%LPD*%
D12*
X5008100Y16262853D02*
D03*

G04 led1.DR.R1.2(2)*
%LPD*%
D12*
X4718100Y16262853D02*
D03*

G04 led1.R1.1(1)*
%LPD*%
D12*
X6572127Y16982967D02*
D03*

G04 led1.R1.2(2)*
%LPD*%
D12*
X6282127Y16982967D02*
D03*

G04 led2.DR.Q1.c(3)*
%LPD*%
D13*
X5537517Y16840697D02*
D03*

G04 led2.DR.Q1.e(2)*
%LPD*%
D13*
X5337517Y16745697D02*
D03*

G04 led2.DR.Q1.b(1)*
%LPD*%
D13*
X5337517Y16935697D02*
D03*

G04 led2.DR.R1.1(1)*
%LPD*%
D12*
X5012063Y16715504D02*
D03*

G04 led2.DR.R1.2(2)*
%LPD*%
D12*
X4722063Y16715504D02*
D03*

G04 led2.R1.1(1)*
%LPD*%
D12*
X6057216Y16976441D02*
D03*

G04 led2.R1.2(2)*
%LPD*%
D12*
X5767216Y16976441D02*
D03*

G04 beep.D.Q1.c(3)*
%LPD*%
D13*
X4584206Y15091405D02*
D03*

G04 beep.D.Q1.e(2)*
%LPD*%
D13*
X4384206Y14996405D02*
D03*

G04 beep.D.Q1.b(1)*
%LPD*%
D13*
X4384206Y15186405D02*
D03*

G04 beep.D.R1.1(1)*
%LPD*%
D12*
X4199875Y15181060D02*
D03*

G04 beep.D.R1.2(2)*
%LPD*%
D12*
X3909875Y15181060D02*
D03*

G04 beep.R1.1(1)*
%LPD*%
D12*
X5411381Y15141977D02*
D03*

G04 beep.R1.2(2)*
%LPD*%
D12*
X5121381Y15141977D02*
D03*

G04 P.C3.C1.c(1)*
%LPD*%
D12*
X7176162Y18085653D02*
D03*

G04 P.C3.C1.a(2)*
%LPD*%
D12*
X6886162Y18085653D02*
D03*

G04 P.C3.C2.c(1)*
%LPD*%
D12*
X7177374Y17859514D02*
D03*

G04 P.C3.C2.a(2)*
%LPD*%
D12*
X6887374Y17859514D02*
D03*

G04 P.C13.c(1)*
%LPD*%
D12*
X6764172Y18279091D02*
D03*

G04 P.C13.a(2)*
%LPD*%
D12*
X6474172Y18279091D02*
D03*

G04 P.C11.c(1)*
%LPD*%
D12*
X4314768Y18131399D02*
D03*

G04 P.C11.a(2)*
%LPD*%
D12*
X4024768Y18131399D02*
D03*

G04 P.D14.c(1)*
%LPD*%
%ADD14R,1.72X1.88*%
D14*
X7029599Y17614600D02*
D03*

G04 P.D14.a(2)*
%LPD*%
D14*
X7405599Y17614600D02*
D03*

G04 P.D13.c(1)*
%LPD*%
D14*
X7029390Y17246958D02*
D03*

G04 P.D13.a(2)*
%LPD*%
D14*
X7405390Y17246958D02*
D03*

G04 P.D15.c(1)*
%LPD*%
D14*
X5291559Y17544523D02*
D03*

G04 P.D15.a(2)*
%LPD*%
D14*
X5667559Y17544523D02*
D03*

G04 led1.D1.c(1)*
%LPD*%
D12*
X8267645Y17082353D02*
D03*

G04 led1.D1.a(2)*
%LPD*%
D12*
X8557645Y17082353D02*
D03*

G04 led2.D1.c(1)*
%LPD*%
D12*
X8267645Y17793353D02*
D03*

G04 led2.D1.a(2)*
%LPD*%
D12*
X8557645Y17793353D02*
D03*

G04 cn2.GND(1)*
%LPD*%
%ADD15C,2.92*%
D15*
X7970945Y17623353D02*
D03*

G04 cn2.Vin(2)*
%LPD*%
D15*
X7970945Y17242353D02*
D03*

G04 beep.b.c(1)*
%LPD*%
%ADD16C,1.9*%
D16*
X5136988Y14780092D02*
D03*

G04 beep.b.a(2)*
%LPD*%
D16*
X5906988Y14780092D02*
D03*

G04 __1.M3(1)*
%LPD*%
%ADD17C,6.6000000000000005*%
D17*
X377955Y16397353D02*
D03*

G04 __2.M3(1)*
%LPD*%
D17*
X6177955Y16397353D02*
D03*

G04 __3.M3(1)*
%LPD*%
D17*
X377955Y11497353D02*
D03*

G04 __4.M3(1)*
%LPD*%
D17*
X6177955Y11497353D02*
D03*

G04 P.C1.gnd(6)*
%LPD*%
%ADD18R,11X8.2*%
D18*
X5670230Y18916008D02*
D03*

G04 P.C1.onoff(5)*
%LPD*%
%ADD19R,1.27X2.3600000000000003*%
D19*
X6010630Y17899008D02*
D03*

G04 P.C1.fb(4)*
%LPD*%
D19*
X5840431Y17899008D02*
D03*

G04 P.C1.gnd(3)*
%LPD*%
D19*
X5670230Y17899008D02*
D03*

G04 P.C1.out(2)*
%LPD*%
D19*
X5500031Y17899008D02*
D03*

G04 P.C1.vin(1)*
%LPD*%
D19*
X5329830Y17899008D02*
D03*

G04 P.C10.c(1)*
%LPD*%
D16*
X7239362Y18854316D02*
D03*

G04 P.C10.a(2)*
%LPD*%
D16*
X6839362Y18854316D02*
D03*

G04 P.C10.c(1)*
%LPD*%
D16*
X7239362Y18854316D02*
D03*

G04 P.C10.a(2)*
%LPD*%
D16*
X6839362Y18854316D02*
D03*

G04 P.C2.vout(4)*
%LPD*%
%ADD20R,2.35X4*%
D20*
X3873535Y17660947D02*
D03*

G04 P.C2.vin(3)*
%LPD*%
%ADD21R,2.2X1.7*%
D21*
X4503536Y17890947D02*
D03*

G04 P.C2.vout(2)*
%LPD*%
D21*
X4503536Y17660947D02*
D03*

G04 P.C2.gnd(1)*
%LPD*%
D21*
X4503536Y17430947D02*
D03*

M02*