M48
FMAT,2
METRIC,TZ
T11C3.1
T01C0.9
%
G90
G05
M71
T11
X-134.93666Y207.015
X-134.93666Y182.02499
X-100.99749Y207.08
X-100.99749Y160.04
X-66.90833Y207.07
X-66.90833Y173.74999
X-32.81916Y207.015
X-32.81916Y182.02499
T01
X-136.35666Y200
X-136.35666Y197.25999
X-136.35666Y194.52
X-136.35666Y191.77999
X-136.35666Y189.04
X-133.51666Y198.63
X-133.51666Y195.88999
X-133.51666Y193.15
X-133.51666Y190.40999
X-102.26749Y200
X-102.26749Y197.25999
X-102.26749Y194.52
X-102.26749Y191.77999
X-102.26749Y189.04
X-102.26749Y186.29999
X-102.26749Y183.56
X-102.26749Y180.81999
X-102.26749Y178.08
X-102.26749Y175.33999
X-102.26749Y172.59999
X-102.26749Y169.86
X-102.26749Y167.11999
X-99.72749Y198.63
X-99.72749Y195.88999
X-99.72749Y193.15
X-99.72749Y190.40999
X-99.72749Y187.67
X-99.72749Y184.93
X-99.72749Y182.19
X-99.72749Y179.45
X-99.72749Y176.71
X-99.72749Y173.97
X-99.72749Y171.22999
X-99.72749Y168.49
X-68.17833Y200
X-68.17833Y197.25999
X-68.17833Y194.52
X-68.17833Y191.77999
X-68.17833Y189.04
X-68.17833Y186.29999
X-68.17833Y183.56
X-68.17833Y180.81999
X-65.63833Y198.63
X-65.63833Y195.88999
X-65.63833Y193.15
X-65.63833Y190.40999
X-65.63833Y187.67
X-65.63833Y184.93
X-65.63833Y182.19
X-34.08916Y200
X-34.08916Y197.25999
X-34.08916Y194.52
X-34.08916Y191.77999
X-34.08916Y189.04
X-31.54916Y198.63
X-31.54916Y195.88999
X-31.54916Y193.15
X-31.54916Y190.40999
M30